<?xml version="1.0" encoding="UTF-8" standalone="no"?><svg xmlns="http://www.w3.org/2000/svg" xmlns:xlink="http://www.w3.org/1999/xlink" contentScriptType="application/ecmascript" contentStyleType="text/css" height="410px" preserveAspectRatio="none" style="width:977px;height:410px;" version="1.1" viewBox="0 0 977 410" width="977px" zoomAndPan="magnify"><defs><filter height="300%" id="fzmwky5cv1fx9" width="300%" x="-1" y="-1"><feGaussianBlur result="blurOut" stdDeviation="2.0"/><feColorMatrix in="blurOut" result="blurOut2" type="matrix" values="0 0 0 0 0 0 0 0 0 0 0 0 0 0 0 0 0 0 .4 0"/><feOffset dx="4.0" dy="4.0" in="blurOut2" result="blurOut3"/><feBlend in="SourceGraphic" in2="blurOut3" mode="normal"/></filter></defs><g><!--MD5=[d0da0a299942266ebd64acf2b2e95fa4]
class Subject--><rect fill="#FEFECE" filter="url(#fzmwky5cv1fx9)" height="86.4141" id="Subject" style="stroke: #A80036; stroke-width: 1.5;" width="132" x="134" y="52"/><ellipse cx="172.85" cy="68" fill="#A9DCDF" rx="11" ry="11" style="stroke: #A80036; stroke-width: 1.0;"/><path d="M172.9594,63.3438 L171.8031,68.4219 L174.1313,68.4219 L172.9594,63.3438 Z M171.475,61.1094 L174.4594,61.1094 L177.8188,73.5 L175.3656,73.5 L174.6,70.4375 L171.3188,70.4375 L170.5688,73.5 L168.1313,73.5 L171.475,61.1094 Z "/><text fill="#000000" font-family="sans-serif" font-size="12" font-style="italic" lengthAdjust="spacingAndGlyphs" textLength="47" x="192.15" y="72.1543">Subject</text><line style="stroke: #A80036; stroke-width: 1.5;" x1="135" x2="265" y1="84" y2="84"/><line style="stroke: #A80036; stroke-width: 1.5;" x1="135" x2="265" y1="92" y2="92"/><ellipse cx="145" cy="103" fill="#84BE84" rx="3" ry="3" style="stroke: #038048; stroke-width: 1.0;"/><text fill="#000000" font-family="sans-serif" font-size="11" lengthAdjust="spacingAndGlyphs" textLength="106" x="154" y="106.2104">registerObserver()</text><ellipse cx="145" cy="115.8047" fill="#84BE84" rx="3" ry="3" style="stroke: #038048; stroke-width: 1.0;"/><text fill="#000000" font-family="sans-serif" font-size="11" lengthAdjust="spacingAndGlyphs" textLength="104" x="154" y="119.0151">removeObserver()</text><ellipse cx="145" cy="128.6094" fill="#84BE84" rx="3" ry="3" style="stroke: #038048; stroke-width: 1.0;"/><text fill="#000000" font-family="sans-serif" font-size="11" lengthAdjust="spacingAndGlyphs" textLength="99" x="154" y="131.8198">notifyObservers()</text><!--MD5=[d40932010816485ec57b44b6eea2392a]
class Observer--><rect fill="#FEFECE" filter="url(#fzmwky5cv1fx9)" height="60.8047" id="Observer" style="stroke: #A80036; stroke-width: 1.5;" width="88" x="576" y="64.5"/><ellipse cx="591" cy="80.5" fill="#A9DCDF" rx="11" ry="11" style="stroke: #A80036; stroke-width: 1.0;"/><path d="M591.1094,75.8438 L589.9531,80.9219 L592.2813,80.9219 L591.1094,75.8438 Z M589.625,73.6094 L592.6094,73.6094 L595.9688,86 L593.5156,86 L592.75,82.9375 L589.4688,82.9375 L588.7188,86 L586.2813,86 L589.625,73.6094 Z "/><text fill="#000000" font-family="sans-serif" font-size="12" font-style="italic" lengthAdjust="spacingAndGlyphs" textLength="56" x="605" y="84.6543">Observer</text><line style="stroke: #A80036; stroke-width: 1.5;" x1="577" x2="663" y1="96.5" y2="96.5"/><line style="stroke: #A80036; stroke-width: 1.5;" x1="577" x2="663" y1="104.5" y2="104.5"/><ellipse cx="587" cy="115.5" fill="#84BE84" rx="3" ry="3" style="stroke: #038048; stroke-width: 1.0;"/><text fill="#000000" font-family="sans-serif" font-size="11" lengthAdjust="spacingAndGlyphs" textLength="47" x="596" y="118.7104">update()</text><!--MD5=[297a0fef87b4e1353b7422f9b4d8cc2e]
class DisplayElement--><rect fill="#FEFECE" filter="url(#fzmwky5cv1fx9)" height="60.8047" id="DisplayElement" style="stroke: #A80036; stroke-width: 1.5;" width="127" x="413.5" y="64.5"/><ellipse cx="428.5" cy="80.5" fill="#A9DCDF" rx="11" ry="11" style="stroke: #A80036; stroke-width: 1.0;"/><path d="M428.6094,75.8438 L427.4531,80.9219 L429.7813,80.9219 L428.6094,75.8438 Z M427.125,73.6094 L430.1094,73.6094 L433.4688,86 L431.0156,86 L430.25,82.9375 L426.9688,82.9375 L426.2188,86 L423.7813,86 L427.125,73.6094 Z "/><text fill="#000000" font-family="sans-serif" font-size="12" font-style="italic" lengthAdjust="spacingAndGlyphs" textLength="95" x="442.5" y="84.6543">DisplayElement</text><line style="stroke: #A80036; stroke-width: 1.5;" x1="414.5" x2="539.5" y1="96.5" y2="96.5"/><line style="stroke: #A80036; stroke-width: 1.5;" x1="414.5" x2="539.5" y1="104.5" y2="104.5"/><ellipse cx="424.5" cy="115.5" fill="#84BE84" rx="3" ry="3" style="stroke: #038048; stroke-width: 1.0;"/><text fill="#000000" font-family="sans-serif" font-size="11" lengthAdjust="spacingAndGlyphs" textLength="48" x="433.5" y="118.7104">display()</text><!--MD5=[dd430b671f247037c3d3af64e9fb01da]
class WeatherData--><rect fill="#FEFECE" filter="url(#fzmwky5cv1fx9)" height="201.6563" id="WeatherData" style="stroke: #A80036; stroke-width: 1.5;" width="164" x="6" y="198"/><ellipse cx="43.05" cy="214" fill="#ADD1B2" rx="11" ry="11" style="stroke: #A80036; stroke-width: 1.0;"/><path d="M46.0188,219.6406 Q45.4406,219.9375 44.8,220.0781 Q44.1594,220.2344 43.4563,220.2344 Q40.9563,220.2344 39.6281,218.5938 Q38.3156,216.9375 38.3156,213.8125 Q38.3156,210.6875 39.6281,209.0313 Q40.9563,207.375 43.4563,207.375 Q44.1594,207.375 44.8,207.5313 Q45.4563,207.6875 46.0188,207.9844 L46.0188,210.7031 Q45.3938,210.125 44.8,209.8594 Q44.2063,209.5781 43.5813,209.5781 Q42.2375,209.5781 41.55,210.6563 Q40.8625,211.7188 40.8625,213.8125 Q40.8625,215.9063 41.55,216.9844 Q42.2375,218.0469 43.5813,218.0469 Q44.2063,218.0469 44.8,217.7813 Q45.3938,217.5 46.0188,216.9219 L46.0188,219.6406 Z "/><text fill="#000000" font-family="sans-serif" font-size="12" lengthAdjust="spacingAndGlyphs" textLength="83" x="61.95" y="218.1543">WeatherData</text><line style="stroke: #A80036; stroke-width: 1.5;" x1="7" x2="169" y1="230" y2="230"/><rect fill="none" height="6" style="stroke: #C82930; stroke-width: 1.0;" width="6" x="14" y="238"/><text fill="#000000" font-family="sans-serif" font-size="11" lengthAdjust="spacingAndGlyphs" textLength="64" x="26" y="244.2104">observers_</text><rect fill="none" height="6" style="stroke: #C82930; stroke-width: 1.0;" width="6" x="14" y="250.8047"/><text fill="#000000" font-family="sans-serif" font-size="11" lengthAdjust="spacingAndGlyphs" textLength="77" x="26" y="257.0151">temperature_</text><rect fill="none" height="6" style="stroke: #C82930; stroke-width: 1.0;" width="6" x="14" y="263.6094"/><text fill="#000000" font-family="sans-serif" font-size="11" lengthAdjust="spacingAndGlyphs" textLength="54" x="26" y="269.8198">humidity_</text><rect fill="none" height="6" style="stroke: #C82930; stroke-width: 1.0;" width="6" x="14" y="276.4141"/><text fill="#000000" font-family="sans-serif" font-size="11" lengthAdjust="spacingAndGlyphs" textLength="45" x="26" y="282.6245">ressure</text><line style="stroke: #A80036; stroke-width: 1.5;" x1="7" x2="169" y1="289.2188" y2="289.2188"/><ellipse cx="17" cy="300.2188" fill="#84BE84" rx="3" ry="3" style="stroke: #038048; stroke-width: 1.0;"/><text fill="#000000" font-family="sans-serif" font-size="11" lengthAdjust="spacingAndGlyphs" textLength="106" x="26" y="303.4292">registerObserver()</text><ellipse cx="17" cy="313.0234" fill="#84BE84" rx="3" ry="3" style="stroke: #038048; stroke-width: 1.0;"/><text fill="#000000" font-family="sans-serif" font-size="11" lengthAdjust="spacingAndGlyphs" textLength="104" x="26" y="316.2339">removeObserver()</text><ellipse cx="17" cy="325.8281" fill="#84BE84" rx="3" ry="3" style="stroke: #038048; stroke-width: 1.0;"/><text fill="#000000" font-family="sans-serif" font-size="11" lengthAdjust="spacingAndGlyphs" textLength="99" x="26" y="329.0386">notifyObservers()</text><text fill="#000000" font-family="sans-serif" font-size="11" lengthAdjust="spacingAndGlyphs" textLength="0" x="30" y="341.8433"/><ellipse cx="17" cy="351.4375" fill="#84BE84" rx="3" ry="3" style="stroke: #038048; stroke-width: 1.0;"/><text fill="#000000" font-family="sans-serif" font-size="11" lengthAdjust="spacingAndGlyphs" textLength="100" x="26" y="354.6479">getTemperature()</text><ellipse cx="17" cy="364.2422" fill="#84BE84" rx="3" ry="3" style="stroke: #038048; stroke-width: 1.0;"/><text fill="#000000" font-family="sans-serif" font-size="11" lengthAdjust="spacingAndGlyphs" textLength="75" x="26" y="367.4526">getHumidity()</text><ellipse cx="17" cy="377.0469" fill="#84BE84" rx="3" ry="3" style="stroke: #038048; stroke-width: 1.0;"/><text fill="#000000" font-family="sans-serif" font-size="11" lengthAdjust="spacingAndGlyphs" textLength="78" x="26" y="380.2573">getPressure()</text><ellipse cx="17" cy="389.8516" fill="#84BE84" rx="3" ry="3" style="stroke: #038048; stroke-width: 1.0;"/><text fill="#000000" font-family="sans-serif" font-size="11" lengthAdjust="spacingAndGlyphs" textLength="138" x="26" y="393.062">measurmentsChanged()</text><!--MD5=[c342471437fb69c89c2527caaf53c3c7]
class CurrentConditionDisplay--><rect fill="#FEFECE" filter="url(#fzmwky5cv1fx9)" height="112.0234" id="CurrentConditionDisplay" style="stroke: #A80036; stroke-width: 1.5;" width="182" x="591" y="243"/><ellipse cx="606" cy="259" fill="#ADD1B2" rx="11" ry="11" style="stroke: #A80036; stroke-width: 1.0;"/><path d="M608.9688,264.6406 Q608.3906,264.9375 607.75,265.0781 Q607.1094,265.2344 606.4063,265.2344 Q603.9063,265.2344 602.5781,263.5938 Q601.2656,261.9375 601.2656,258.8125 Q601.2656,255.6875 602.5781,254.0313 Q603.9063,252.375 606.4063,252.375 Q607.1094,252.375 607.75,252.5313 Q608.4063,252.6875 608.9688,252.9844 L608.9688,255.7031 Q608.3438,255.125 607.75,254.8594 Q607.1563,254.5781 606.5313,254.5781 Q605.1875,254.5781 604.5,255.6563 Q603.8125,256.7188 603.8125,258.8125 Q603.8125,260.9063 604.5,261.9844 Q605.1875,263.0469 606.5313,263.0469 Q607.1563,263.0469 607.75,262.7813 Q608.3438,262.5 608.9688,261.9219 L608.9688,264.6406 Z "/><text fill="#000000" font-family="sans-serif" font-size="12" lengthAdjust="spacingAndGlyphs" textLength="150" x="620" y="263.1543">CurrentConditionDisplay</text><line style="stroke: #A80036; stroke-width: 1.5;" x1="592" x2="772" y1="275" y2="275"/><rect fill="none" height="6" style="stroke: #C82930; stroke-width: 1.0;" width="6" x="599" y="283"/><text fill="#000000" font-family="sans-serif" font-size="11" lengthAdjust="spacingAndGlyphs" textLength="77" x="611" y="289.2104">temperature_</text><rect fill="none" height="6" style="stroke: #C82930; stroke-width: 1.0;" width="6" x="599" y="295.8047"/><text fill="#000000" font-family="sans-serif" font-size="11" lengthAdjust="spacingAndGlyphs" textLength="54" x="611" y="302.0151">humidity_</text><rect fill="none" height="6" style="stroke: #C82930; stroke-width: 1.0;" width="6" x="599" y="308.6094"/><text fill="#000000" font-family="sans-serif" font-size="11" lengthAdjust="spacingAndGlyphs" textLength="132" x="611" y="314.8198">weatherData_ : Subject</text><line style="stroke: #A80036; stroke-width: 1.5;" x1="592" x2="772" y1="321.4141" y2="321.4141"/><ellipse cx="602" cy="332.4141" fill="#84BE84" rx="3" ry="3" style="stroke: #038048; stroke-width: 1.0;"/><text fill="#000000" font-family="sans-serif" font-size="11" lengthAdjust="spacingAndGlyphs" textLength="47" x="611" y="335.6245">update()</text><ellipse cx="602" cy="345.2188" fill="#84BE84" rx="3" ry="3" style="stroke: #038048; stroke-width: 1.0;"/><text fill="#000000" font-family="sans-serif" font-size="11" lengthAdjust="spacingAndGlyphs" textLength="48" x="611" y="348.4292">display()</text><!--MD5=[3f66f3dab78abc149ba09318de2fd356]
class StaticticsDisplay--><rect fill="#FEFECE" filter="url(#fzmwky5cv1fx9)" height="137.6328" id="StaticticsDisplay" style="stroke: #A80036; stroke-width: 1.5;" width="158" x="398" y="230"/><ellipse cx="423.8" cy="246" fill="#ADD1B2" rx="11" ry="11" style="stroke: #A80036; stroke-width: 1.0;"/><path d="M426.7688,251.6406 Q426.1906,251.9375 425.55,252.0781 Q424.9094,252.2344 424.2063,252.2344 Q421.7063,252.2344 420.3781,250.5938 Q419.0656,248.9375 419.0656,245.8125 Q419.0656,242.6875 420.3781,241.0313 Q421.7063,239.375 424.2063,239.375 Q424.9094,239.375 425.55,239.5313 Q426.2063,239.6875 426.7688,239.9844 L426.7688,242.7031 Q426.1438,242.125 425.55,241.8594 Q424.9563,241.5781 424.3313,241.5781 Q422.9875,241.5781 422.3,242.6563 Q421.6125,243.7188 421.6125,245.8125 Q421.6125,247.9063 422.3,248.9844 Q422.9875,250.0469 424.3313,250.0469 Q424.9563,250.0469 425.55,249.7813 Q426.1438,249.5 426.7688,248.9219 L426.7688,251.6406 Z "/><text fill="#000000" font-family="sans-serif" font-size="12" lengthAdjust="spacingAndGlyphs" textLength="102" x="440.2" y="250.1543">StaticticsDisplay</text><line style="stroke: #A80036; stroke-width: 1.5;" x1="399" x2="555" y1="262" y2="262"/><rect fill="none" height="6" style="stroke: #C82930; stroke-width: 1.0;" width="6" x="406" y="270"/><text fill="#000000" font-family="sans-serif" font-size="11" lengthAdjust="spacingAndGlyphs" textLength="104" x="418" y="276.2104">maxTemperature_</text><rect fill="none" height="6" style="stroke: #C82930; stroke-width: 1.0;" width="6" x="406" y="282.8047"/><text fill="#000000" font-family="sans-serif" font-size="11" lengthAdjust="spacingAndGlyphs" textLength="101" x="418" y="289.0151">minTemperautre_</text><rect fill="none" height="6" style="stroke: #C82930; stroke-width: 1.0;" width="6" x="406" y="295.6094"/><text fill="#000000" font-family="sans-serif" font-size="11" lengthAdjust="spacingAndGlyphs" textLength="105" x="418" y="301.8198">totalTemperature_</text><rect fill="none" height="6" style="stroke: #C82930; stroke-width: 1.0;" width="6" x="406" y="308.4141"/><text fill="#000000" font-family="sans-serif" font-size="11" lengthAdjust="spacingAndGlyphs" textLength="113" x="418" y="314.6245">numberofReadings_</text><rect fill="none" height="6" style="stroke: #C82930; stroke-width: 1.0;" width="6" x="406" y="321.2188"/><text fill="#000000" font-family="sans-serif" font-size="11" lengthAdjust="spacingAndGlyphs" textLength="132" x="418" y="327.4292">weatherData_ : Subject</text><line style="stroke: #A80036; stroke-width: 1.5;" x1="399" x2="555" y1="334.0234" y2="334.0234"/><ellipse cx="409" cy="345.0234" fill="#84BE84" rx="3" ry="3" style="stroke: #038048; stroke-width: 1.0;"/><text fill="#000000" font-family="sans-serif" font-size="11" lengthAdjust="spacingAndGlyphs" textLength="47" x="418" y="348.2339">update()</text><ellipse cx="409" cy="357.8281" fill="#84BE84" rx="3" ry="3" style="stroke: #038048; stroke-width: 1.0;"/><text fill="#000000" font-family="sans-serif" font-size="11" lengthAdjust="spacingAndGlyphs" textLength="48" x="418" y="361.0386">display()</text><!--MD5=[0c5b86180f045f00e8d5f9a51a584ce2]
class ForecastDisplay--><rect fill="#FEFECE" filter="url(#fzmwky5cv1fx9)" height="112.0234" id="ForecastDisplay" style="stroke: #A80036; stroke-width: 1.5;" width="158" x="205" y="243"/><ellipse cx="232.15" cy="259" fill="#ADD1B2" rx="11" ry="11" style="stroke: #A80036; stroke-width: 1.0;"/><path d="M235.1188,264.6406 Q234.5406,264.9375 233.9,265.0781 Q233.2594,265.2344 232.5563,265.2344 Q230.0563,265.2344 228.7281,263.5938 Q227.4156,261.9375 227.4156,258.8125 Q227.4156,255.6875 228.7281,254.0313 Q230.0563,252.375 232.5563,252.375 Q233.2594,252.375 233.9,252.5313 Q234.5563,252.6875 235.1188,252.9844 L235.1188,255.7031 Q234.4938,255.125 233.9,254.8594 Q233.3063,254.5781 232.6813,254.5781 Q231.3375,254.5781 230.65,255.6563 Q229.9625,256.7188 229.9625,258.8125 Q229.9625,260.9063 230.65,261.9844 Q231.3375,263.0469 232.6813,263.0469 Q233.3063,263.0469 233.9,262.7813 Q234.4938,262.5 235.1188,261.9219 L235.1188,264.6406 Z "/><text fill="#000000" font-family="sans-serif" font-size="12" lengthAdjust="spacingAndGlyphs" textLength="99" x="248.85" y="263.1543">ForecastDisplay</text><line style="stroke: #A80036; stroke-width: 1.5;" x1="206" x2="362" y1="275" y2="275"/><rect fill="none" height="6" style="stroke: #C82930; stroke-width: 1.0;" width="6" x="213" y="283"/><text fill="#000000" font-family="sans-serif" font-size="11" lengthAdjust="spacingAndGlyphs" textLength="99" x="225" y="289.2104">currentPressure_</text><rect fill="none" height="6" style="stroke: #C82930; stroke-width: 1.0;" width="6" x="213" y="295.8047"/><text fill="#000000" font-family="sans-serif" font-size="11" lengthAdjust="spacingAndGlyphs" textLength="79" x="225" y="302.0151">lastPressure_</text><rect fill="none" height="6" style="stroke: #C82930; stroke-width: 1.0;" width="6" x="213" y="308.6094"/><text fill="#000000" font-family="sans-serif" font-size="11" lengthAdjust="spacingAndGlyphs" textLength="132" x="225" y="314.8198">weatherData_ : Subject</text><line style="stroke: #A80036; stroke-width: 1.5;" x1="206" x2="362" y1="321.4141" y2="321.4141"/><ellipse cx="216" cy="332.4141" fill="#84BE84" rx="3" ry="3" style="stroke: #038048; stroke-width: 1.0;"/><text fill="#000000" font-family="sans-serif" font-size="11" lengthAdjust="spacingAndGlyphs" textLength="47" x="225" y="335.6245">update()</text><ellipse cx="216" cy="345.2188" fill="#84BE84" rx="3" ry="3" style="stroke: #038048; stroke-width: 1.0;"/><text fill="#000000" font-family="sans-serif" font-size="11" lengthAdjust="spacingAndGlyphs" textLength="48" x="225" y="348.4292">display()</text><!--MD5=[2957f26db403bf45d2a5f9df1ef35d03]
class HeatIndexDisplay--><rect fill="#FEFECE" filter="url(#fzmwky5cv1fx9)" height="112.0234" id="HeatIndexDisplay" style="stroke: #A80036; stroke-width: 1.5;" width="158" x="808" y="243"/><ellipse cx="831.55" cy="259" fill="#ADD1B2" rx="11" ry="11" style="stroke: #A80036; stroke-width: 1.0;"/><path d="M834.5188,264.6406 Q833.9406,264.9375 833.3,265.0781 Q832.6594,265.2344 831.9563,265.2344 Q829.4563,265.2344 828.1281,263.5938 Q826.8156,261.9375 826.8156,258.8125 Q826.8156,255.6875 828.1281,254.0313 Q829.4563,252.375 831.9563,252.375 Q832.6594,252.375 833.3,252.5313 Q833.9563,252.6875 834.5188,252.9844 L834.5188,255.7031 Q833.8938,255.125 833.3,254.8594 Q832.7063,254.5781 832.0813,254.5781 Q830.7375,254.5781 830.05,255.6563 Q829.3625,256.7188 829.3625,258.8125 Q829.3625,260.9063 830.05,261.9844 Q830.7375,263.0469 832.0813,263.0469 Q832.7063,263.0469 833.3,262.7813 Q833.8938,262.5 834.5188,261.9219 L834.5188,264.6406 Z "/><text fill="#000000" font-family="sans-serif" font-size="12" lengthAdjust="spacingAndGlyphs" textLength="107" x="847.45" y="263.1543">HeatIndexDisplay</text><line style="stroke: #A80036; stroke-width: 1.5;" x1="809" x2="965" y1="275" y2="275"/><rect fill="none" height="6" style="stroke: #C82930; stroke-width: 1.0;" width="6" x="816" y="283"/><text fill="#000000" font-family="sans-serif" font-size="11" lengthAdjust="spacingAndGlyphs" textLength="61" x="828" y="289.2104">heatIndex_</text><rect fill="none" height="6" style="stroke: #C82930; stroke-width: 1.0;" width="6" x="816" y="295.8047"/><text fill="#000000" font-family="sans-serif" font-size="11" lengthAdjust="spacingAndGlyphs" textLength="132" x="828" y="302.0151">weatherData_ : Subject</text><line style="stroke: #A80036; stroke-width: 1.5;" x1="809" x2="965" y1="308.6094" y2="308.6094"/><ellipse cx="819" cy="319.6094" fill="#84BE84" rx="3" ry="3" style="stroke: #038048; stroke-width: 1.0;"/><text fill="#000000" font-family="sans-serif" font-size="11" lengthAdjust="spacingAndGlyphs" textLength="47" x="828" y="322.8198">update()</text><ellipse cx="819" cy="332.4141" fill="#84BE84" rx="3" ry="3" style="stroke: #038048; stroke-width: 1.0;"/><text fill="#000000" font-family="sans-serif" font-size="11" lengthAdjust="spacingAndGlyphs" textLength="113" x="828" y="335.6245">computeHeatIndex()</text><ellipse cx="819" cy="345.2188" fill="#84BE84" rx="3" ry="3" style="stroke: #038048; stroke-width: 1.0;"/><text fill="#000000" font-family="sans-serif" font-size="11" lengthAdjust="spacingAndGlyphs" textLength="48" x="828" y="348.4292">display()</text><!--MD5=[7518d0f2b34a53396ed9c2f001163bb5]
reverse link Subject to Observer--><path d="M277.98,53.28 C348.35,21.43 453.83,-11.76 540.5,22 C562.5,30.57 582.1,48.39 596.34,64.27 " fill="none" id="Subject&lt;-Observer" style="stroke: #A80036; stroke-width: 1.0;"/><polygon fill="#FFFFFF" points="266.13,58.78,273.2559,59.8849,277.0166,53.7321,269.8907,52.6272,266.13,58.78" style="stroke: #A80036; stroke-width: 1.0;"/><!--MD5=[4d145dea50b85159b1ac157b12c5ef9a]
reverse link Subject to WeatherData--><path d="M166.67,156.12 C159.36,169.3 151.43,183.59 143.52,197.87 " fill="none" id="Subject&lt;-WeatherData" style="stroke: #A80036; stroke-width: 1.0; stroke-dasharray: 7.0,7.0;"/><polygon fill="none" points="160.7,152.44,176.52,138.35,172.94,159.23,160.7,152.44" style="stroke: #A80036; stroke-width: 1.0;"/><!--MD5=[e57f8ee32c45fa1445772d7a345272e4]
reverse link WeatherData to CurrentConditionDisplay--><path d="M170.86,189.05 C181.28,180.66 192.53,173.38 204.5,168 C275.66,136.06 483.7,137.52 555.5,168 C591.73,183.38 622.64,214.78 644.84,242.99 " fill="none" id="WeatherData&lt;-CurrentConditionDisplay" style="stroke: #A80036; stroke-width: 1.0;"/><polygon fill="#FFFFFF" points="160.71,197.79,167.8662,196.9018,169.7987,189.9545,162.6425,190.8427,160.71,197.79" style="stroke: #A80036; stroke-width: 1.0;"/><!--MD5=[0eab760bd9289546f8704fcd70bb8936]
reverse link WeatherData to StaticticsDisplay--><path d="M170.86,189.05 C181.28,180.66 192.53,173.38 204.5,168 C268.56,139.24 298.56,138.97 362.5,168 C391.38,181.11 415.83,205.51 434.63,229.72 " fill="none" id="WeatherData&lt;-StaticticsDisplay" style="stroke: #A80036; stroke-width: 1.0;"/><polygon fill="#FFFFFF" points="160.71,197.79,167.8662,196.9018,169.7987,189.9545,162.6425,190.8427,160.71,197.79" style="stroke: #A80036; stroke-width: 1.0;"/><!--MD5=[619c92f6662b183e4209befa12dc923a]
reverse link WeatherData to ForecastDisplay--><path d="M183.57,299 C190.69,299 197.82,299 204.95,299 " fill="none" id="WeatherData&lt;-ForecastDisplay" style="stroke: #A80036; stroke-width: 1.0;"/><polygon fill="#FFFFFF" points="170.3,299,176.3,303,182.3,299,176.3,295,170.3,299" style="stroke: #A80036; stroke-width: 1.0;"/><!--MD5=[29dcc2ec45b18f50b638dd7cb91a58b2]
reverse link WeatherData to HeatIndexDisplay--><path d="M170.86,189.05 C181.28,180.66 192.53,173.38 204.5,168 C262.18,142.11 715.99,141.74 773.5,168 C807.44,183.5 835.13,214.72 854.66,242.79 " fill="none" id="WeatherData&lt;-HeatIndexDisplay" style="stroke: #A80036; stroke-width: 1.0;"/><polygon fill="#FFFFFF" points="160.71,197.79,167.8662,196.9018,169.7987,189.9545,162.6425,190.8427,160.71,197.79" style="stroke: #A80036; stroke-width: 1.0;"/><!--MD5=[4c13c504f614e7a354905c0ee43e9e3d]
reverse link Observer to CurrentConditionDisplay--><path d="M635.11,145.22 C644.17,174.75 655.72,212.38 665.09,242.9 " fill="none" id="Observer&lt;-CurrentConditionDisplay" style="stroke: #A80036; stroke-width: 1.0; stroke-dasharray: 7.0,7.0;"/><polygon fill="none" points="628.32,146.98,629.15,125.81,641.71,142.87,628.32,146.98" style="stroke: #A80036; stroke-width: 1.0;"/><!--MD5=[5d20f0cf562774c816963381baebee6b]
reverse link Observer to StaticticsDisplay--><path d="M587.11,142.46 C568.83,168.28 545.74,200.89 525.44,229.58 " fill="none" id="Observer&lt;-StaticticsDisplay" style="stroke: #A80036; stroke-width: 1.0; stroke-dasharray: 7.0,7.0;"/><polygon fill="none" points="581.63,138.08,598.9,125.81,593.06,146.17,581.63,138.08" style="stroke: #A80036; stroke-width: 1.0;"/><!--MD5=[7ecb7c8e0148d76c0abeb0d63a045250]
reverse link Observer to ForecastDisplay--><path d="M562.07,135.91 C560.71,136.63 559.35,137.33 558,138 C483.61,174.96 451.21,153.62 381,198 C361.88,210.08 343.79,226.68 328.53,242.88 " fill="none" id="Observer&lt;-ForecastDisplay" style="stroke: #A80036; stroke-width: 1.0; stroke-dasharray: 7.0,7.0;"/><polygon fill="none" points="558.79,129.72,579.59,125.62,565.88,141.79,558.79,129.72" style="stroke: #A80036; stroke-width: 1.0;"/><!--MD5=[f3f3736a37fed1e5e5a45d7eb51abeee]
reverse link Observer to HeatIndexDisplay--><path d="M682.04,127.72 C715.7,146.21 757.21,171.13 791,198 C807.76,211.33 824.48,227.48 839.14,242.88 " fill="none" id="Observer&lt;-HeatIndexDisplay" style="stroke: #A80036; stroke-width: 1.0; stroke-dasharray: 7.0,7.0;"/><polygon fill="none" points="678.54,133.79,664.24,118.14,685.17,121.46,678.54,133.79" style="stroke: #A80036; stroke-width: 1.0;"/><!--MD5=[c2f339009f0ea99f8a9c856cedb113fb]
reverse link DisplayElement to CurrentConditionDisplay--><path d="M521.82,140.16 C552.47,170.36 593.31,210.61 626.08,242.9 " fill="none" id="DisplayElement&lt;-CurrentConditionDisplay" style="stroke: #A80036; stroke-width: 1.0; stroke-dasharray: 7.0,7.0;"/><polygon fill="none" points="516.58,144.83,507.25,125.81,526.41,134.86,516.58,144.83" style="stroke: #A80036; stroke-width: 1.0;"/><!--MD5=[33495b8ef2b1343fd14c8596821f9118]
reverse link DisplayElement to StaticticsDisplay--><path d="M477,145.85 C477,171.1 477,202.13 477,229.58 " fill="none" id="DisplayElement&lt;-StaticticsDisplay" style="stroke: #A80036; stroke-width: 1.0; stroke-dasharray: 7.0,7.0;"/><polygon fill="none" points="470,145.81,477,125.81,484,145.81,470,145.81" style="stroke: #A80036; stroke-width: 1.0;"/><!--MD5=[114179d18ae80a3a67e94fb1923de588]
reverse link DisplayElement to ForecastDisplay--><path d="M434.41,140.58 C405.6,170.73 367.36,210.76 336.64,242.9 " fill="none" id="DisplayElement&lt;-ForecastDisplay" style="stroke: #A80036; stroke-width: 1.0; stroke-dasharray: 7.0,7.0;"/><polygon fill="none" points="429.64,135.43,448.52,125.81,439.77,145.1,429.64,135.43" style="stroke: #A80036; stroke-width: 1.0;"/><!--MD5=[8f1ee69e3a720b93b0945390a77dc038]
reverse link DisplayElement to HeatIndexDisplay--><path d="M548.75,133.87 C552.19,135.33 555.61,136.71 559,138 C658.56,175.84 699.08,144.21 791,198 C810.73,209.55 829.04,226.29 844.26,242.79 " fill="none" id="DisplayElement&lt;-HeatIndexDisplay" style="stroke: #A80036; stroke-width: 1.0; stroke-dasharray: 7.0,7.0;"/><polygon fill="none" points="545.76,140.2,530.48,125.52,551.58,127.46,545.76,140.2" style="stroke: #A80036; stroke-width: 1.0;"/><!--MD5=[3277349c35f55f06bd73600ba5cdf1d1]
@startuml observer

abstract class Subject {
    +registerObserver()
    +removeObserver()
    +notifyObservers()
}

abstract class Observer{
    +update()
}

abstract class DisplayElement{
    +display()
}

class WeatherData{
    -observers_
    -temperature_
    -humidity_
    -ressure
    +registerObserver()
    +removeObserver()
    +notifyObservers()

    +getTemperature()
    +getHumidity()
    +getPressure()
    +measurmentsChanged()
}

class CurrentConditionDisplay{
    -temperature_
    -humidity_
    -weatherData_ : Subject
    +update()
    +display()
}

class StaticticsDisplay{
    -maxTemperature_
    -minTemperautre_
    -totalTemperature_
    -numberofReadings_
    -weatherData_ : Subject
    +update()
    +display()
}

class ForecastDisplay{
    -currentPressure_
    -lastPressure_
    -weatherData_ : Subject
    +update()
    +display()
}

class HeatIndexDisplay{
    -heatIndex_
    -weatherData_ : Subject
    +update()
    +computeHeatIndex()
    +display()
}

Subject o- Observer
Subject <|.. WeatherData

WeatherData o- CurrentConditionDisplay
WeatherData o- StaticticsDisplay
WeatherData o- ForecastDisplay
WeatherData o- HeatIndexDisplay

Observer <|.. CurrentConditionDisplay
Observer <|.. StaticticsDisplay
Observer <|.. ForecastDisplay
Observer <|.. HeatIndexDisplay

DisplayElement <|.. CurrentConditionDisplay
DisplayElement <|.. StaticticsDisplay
DisplayElement <|.. ForecastDisplay
DisplayElement <|.. HeatIndexDisplay



@enduml

PlantUML version 1.2020.10(Sun May 17 11:35:57 CEST 2020)
(GPL source distribution)
Java Runtime: OpenJDK Runtime Environment
JVM: OpenJDK 64-Bit Server VM
Java Version: 1.8.0_252-8u252-b09-1ubuntu1-b09
Operating System: Linux
Default Encoding: UTF-8
Language: en
Country: US
--></g></svg>