<?xml version="1.0" encoding="UTF-8" standalone="no"?><svg xmlns="http://www.w3.org/2000/svg" xmlns:xlink="http://www.w3.org/1999/xlink" contentScriptType="application/ecmascript" contentStyleType="text/css" height="315px" preserveAspectRatio="none" style="width:1950px;height:315px;" version="1.1" viewBox="0 0 1950 315" width="1950px" zoomAndPan="magnify"><defs><filter height="300%" id="f86h8ajuisnq9" width="300%" x="-1" y="-1"><feGaussianBlur result="blurOut" stdDeviation="2.0"/><feColorMatrix in="blurOut" result="blurOut2" type="matrix" values="0 0 0 0 0 0 0 0 0 0 0 0 0 0 0 0 0 0 .4 0"/><feOffset dx="4.0" dy="4.0" in="blurOut2" result="blurOut3"/><feBlend in="SourceGraphic" in2="blurOut3" mode="normal"/></filter></defs><g><!--MD5=[26f5c61a402468dcc7e4daedc2568d01]
class PizzaStore--><rect fill="#FEFECE" filter="url(#f86h8ajuisnq9)" height="73.6094" id="PizzaStore" style="stroke: #A80036; stroke-width: 1.5;" width="101" x="93" y="52.5"/><ellipse cx="110.7" cy="68.5" fill="#A9DCDF" rx="11" ry="11" style="stroke: #A80036; stroke-width: 1.0;"/><path d="M110.8094,63.8438 L109.6531,68.9219 L111.9813,68.9219 L110.8094,63.8438 Z M109.325,61.6094 L112.3094,61.6094 L115.6688,74 L113.2156,74 L112.45,70.9375 L109.1688,70.9375 L108.4188,74 L105.9813,74 L109.325,61.6094 Z "/><text fill="#000000" font-family="sans-serif" font-size="12" font-style="italic" lengthAdjust="spacingAndGlyphs" textLength="63" x="125.3" y="72.6543">PizzaStore</text><line style="stroke: #A80036; stroke-width: 1.5;" x1="94" x2="193" y1="84.5" y2="84.5"/><line style="stroke: #A80036; stroke-width: 1.5;" x1="94" x2="193" y1="92.5" y2="92.5"/><ellipse cx="104" cy="103.5" fill="#84BE84" rx="3" ry="3" style="stroke: #038048; stroke-width: 1.0;"/><text fill="#000000" font-family="sans-serif" font-size="11" lengthAdjust="spacingAndGlyphs" textLength="70" x="113" y="106.7104">orderPizza();</text><ellipse cx="104" cy="116.3047" fill="#84BE84" rx="3" ry="3" style="stroke: #038048; stroke-width: 1.0;"/><text fill="#000000" font-family="sans-serif" font-size="11" lengthAdjust="spacingAndGlyphs" textLength="75" x="113" y="119.5151">createPizza();</text><!--MD5=[8c04977af96283d87084f008fe3725f3]
class NYPizzaStore--><rect fill="#FEFECE" filter="url(#f86h8ajuisnq9)" height="60.8047" id="NYPizzaStore" style="stroke: #A80036; stroke-width: 1.5;" width="111" x="6" y="237.5"/><ellipse cx="21" cy="253.5" fill="#ADD1B2" rx="11" ry="11" style="stroke: #A80036; stroke-width: 1.0;"/><path d="M23.9688,259.1406 Q23.3906,259.4375 22.75,259.5781 Q22.1094,259.7344 21.4063,259.7344 Q18.9063,259.7344 17.5781,258.0938 Q16.2656,256.4375 16.2656,253.3125 Q16.2656,250.1875 17.5781,248.5313 Q18.9063,246.875 21.4063,246.875 Q22.1094,246.875 22.75,247.0313 Q23.4063,247.1875 23.9688,247.4844 L23.9688,250.2031 Q23.3438,249.625 22.75,249.3594 Q22.1563,249.0781 21.5313,249.0781 Q20.1875,249.0781 19.5,250.1563 Q18.8125,251.2188 18.8125,253.3125 Q18.8125,255.4063 19.5,256.4844 Q20.1875,257.5469 21.5313,257.5469 Q22.1563,257.5469 22.75,257.2813 Q23.3438,257 23.9688,256.4219 L23.9688,259.1406 Z "/><text fill="#000000" font-family="sans-serif" font-size="12" lengthAdjust="spacingAndGlyphs" textLength="79" x="35" y="257.6543">NYPizzaStore</text><line style="stroke: #A80036; stroke-width: 1.5;" x1="7" x2="116" y1="269.5" y2="269.5"/><line style="stroke: #A80036; stroke-width: 1.5;" x1="7" x2="116" y1="277.5" y2="277.5"/><ellipse cx="17" cy="288.5" fill="#84BE84" rx="3" ry="3" style="stroke: #038048; stroke-width: 1.0;"/><text fill="#000000" font-family="sans-serif" font-size="11" lengthAdjust="spacingAndGlyphs" textLength="75" x="26" y="291.7104">createPizza();</text><!--MD5=[7dfaa3cdae4bc038d1f67fa8678eb5d0]
class ChicagoPizzaStore--><rect fill="#FEFECE" filter="url(#f86h8ajuisnq9)" height="60.8047" id="ChicagoPizzaStore" style="stroke: #A80036; stroke-width: 1.5;" width="145" x="152" y="237.5"/><ellipse cx="167" cy="253.5" fill="#ADD1B2" rx="11" ry="11" style="stroke: #A80036; stroke-width: 1.0;"/><path d="M169.9688,259.1406 Q169.3906,259.4375 168.75,259.5781 Q168.1094,259.7344 167.4063,259.7344 Q164.9063,259.7344 163.5781,258.0938 Q162.2656,256.4375 162.2656,253.3125 Q162.2656,250.1875 163.5781,248.5313 Q164.9063,246.875 167.4063,246.875 Q168.1094,246.875 168.75,247.0313 Q169.4063,247.1875 169.9688,247.4844 L169.9688,250.2031 Q169.3438,249.625 168.75,249.3594 Q168.1563,249.0781 167.5313,249.0781 Q166.1875,249.0781 165.5,250.1563 Q164.8125,251.2188 164.8125,253.3125 Q164.8125,255.4063 165.5,256.4844 Q166.1875,257.5469 167.5313,257.5469 Q168.1563,257.5469 168.75,257.2813 Q169.3438,257 169.9688,256.4219 L169.9688,259.1406 Z "/><text fill="#000000" font-family="sans-serif" font-size="12" lengthAdjust="spacingAndGlyphs" textLength="113" x="181" y="257.6543">ChicagoPizzaStore</text><line style="stroke: #A80036; stroke-width: 1.5;" x1="153" x2="296" y1="269.5" y2="269.5"/><line style="stroke: #A80036; stroke-width: 1.5;" x1="153" x2="296" y1="277.5" y2="277.5"/><ellipse cx="163" cy="288.5" fill="#84BE84" rx="3" ry="3" style="stroke: #038048; stroke-width: 1.0;"/><text fill="#000000" font-family="sans-serif" font-size="11" lengthAdjust="spacingAndGlyphs" textLength="75" x="172" y="291.7104">createPizza();</text><!--MD5=[5c5a2dd8ed299478ae091ad6bda6d6bd]
class Pizza--><rect fill="#FEFECE" filter="url(#f86h8ajuisnq9)" height="163.2422" id="Pizza" style="stroke: #A80036; stroke-width: 1.5;" width="85" x="1035" y="8"/><ellipse cx="1060.8" cy="24" fill="#A9DCDF" rx="11" ry="11" style="stroke: #A80036; stroke-width: 1.0;"/><path d="M1060.9094,19.3438 L1059.7531,24.4219 L1062.0813,24.4219 L1060.9094,19.3438 Z M1059.425,17.1094 L1062.4094,17.1094 L1065.7688,29.5 L1063.3156,29.5 L1062.55,26.4375 L1059.2688,26.4375 L1058.5188,29.5 L1056.0813,29.5 L1059.425,17.1094 Z "/><text fill="#000000" font-family="sans-serif" font-size="12" font-style="italic" lengthAdjust="spacingAndGlyphs" textLength="29" x="1077.2" y="28.1543">Pizza</text><line style="stroke: #A80036; stroke-width: 1.5;" x1="1036" x2="1119" y1="40" y2="40"/><polygon fill="none" points="1046,46,1050,50,1046,54,1042,50" style="stroke: #B38D22; stroke-width: 1.0;"/><text fill="#000000" font-family="sans-serif" font-size="11" lengthAdjust="spacingAndGlyphs" textLength="42" x="1055" y="54.2104">name_;</text><polygon fill="none" points="1046,58.8047,1050,62.8047,1046,66.8047,1042,62.8047" style="stroke: #B38D22; stroke-width: 1.0;"/><text fill="#000000" font-family="sans-serif" font-size="11" lengthAdjust="spacingAndGlyphs" textLength="45" x="1055" y="67.0151">dough_;</text><polygon fill="none" points="1046,71.6094,1050,75.6094,1046,79.6094,1042,75.6094" style="stroke: #B38D22; stroke-width: 1.0;"/><text fill="#000000" font-family="sans-serif" font-size="11" lengthAdjust="spacingAndGlyphs" textLength="44" x="1055" y="79.8198">sauce_;</text><polygon fill="none" points="1046,84.4141,1050,88.4141,1046,92.4141,1042,88.4141" style="stroke: #B38D22; stroke-width: 1.0;"/><text fill="#000000" font-family="sans-serif" font-size="11" lengthAdjust="spacingAndGlyphs" textLength="59" x="1055" y="92.6245">toppings_;</text><line style="stroke: #A80036; stroke-width: 1.5;" x1="1036" x2="1119" y1="99.2188" y2="99.2188"/><ellipse cx="1046" cy="110.2188" fill="#84BE84" rx="3" ry="3" style="stroke: #038048; stroke-width: 1.0;"/><text fill="#000000" font-family="sans-serif" font-size="11" lengthAdjust="spacingAndGlyphs" textLength="57" x="1055" y="113.4292">prepare();</text><ellipse cx="1046" cy="123.0234" fill="#84BE84" rx="3" ry="3" style="stroke: #038048; stroke-width: 1.0;"/><text fill="#000000" font-family="sans-serif" font-size="11" lengthAdjust="spacingAndGlyphs" textLength="39" x="1055" y="126.2339">bake();</text><ellipse cx="1046" cy="135.8281" fill="#84BE84" rx="3" ry="3" style="stroke: #038048; stroke-width: 1.0;"/><text fill="#000000" font-family="sans-serif" font-size="11" lengthAdjust="spacingAndGlyphs" textLength="29" x="1055" y="139.0386">cut();</text><ellipse cx="1046" cy="148.6328" fill="#84BE84" rx="3" ry="3" style="stroke: #038048; stroke-width: 1.0;"/><text fill="#000000" font-family="sans-serif" font-size="11" lengthAdjust="spacingAndGlyphs" textLength="32" x="1055" y="151.8433">box();</text><ellipse cx="1046" cy="161.4375" fill="#84BE84" rx="3" ry="3" style="stroke: #038048; stroke-width: 1.0;"/><text fill="#000000" font-family="sans-serif" font-size="11" lengthAdjust="spacingAndGlyphs" textLength="59" x="1055" y="164.6479">getName()</text><!--MD5=[466c7a54d14799a3d082976584b7eea7]
class NYStyleCheesePizza--><rect fill="#FEFECE" filter="url(#f86h8ajuisnq9)" height="60.8047" id="NYStyleCheesePizza" style="stroke: #A80036; stroke-width: 1.5;" width="154" x="332.5" y="237.5"/><ellipse cx="347.5" cy="253.5" fill="#ADD1B2" rx="11" ry="11" style="stroke: #A80036; stroke-width: 1.0;"/><path d="M350.4688,259.1406 Q349.8906,259.4375 349.25,259.5781 Q348.6094,259.7344 347.9063,259.7344 Q345.4063,259.7344 344.0781,258.0938 Q342.7656,256.4375 342.7656,253.3125 Q342.7656,250.1875 344.0781,248.5313 Q345.4063,246.875 347.9063,246.875 Q348.6094,246.875 349.25,247.0313 Q349.9063,247.1875 350.4688,247.4844 L350.4688,250.2031 Q349.8438,249.625 349.25,249.3594 Q348.6563,249.0781 348.0313,249.0781 Q346.6875,249.0781 346,250.1563 Q345.3125,251.2188 345.3125,253.3125 Q345.3125,255.4063 346,256.4844 Q346.6875,257.5469 348.0313,257.5469 Q348.6563,257.5469 349.25,257.2813 Q349.8438,257 350.4688,256.4219 L350.4688,259.1406 Z "/><text fill="#000000" font-family="sans-serif" font-size="12" lengthAdjust="spacingAndGlyphs" textLength="122" x="361.5" y="257.6543">NYStyleCheesePizza</text><line style="stroke: #A80036; stroke-width: 1.5;" x1="333.5" x2="485.5" y1="269.5" y2="269.5"/><line style="stroke: #A80036; stroke-width: 1.5;" x1="333.5" x2="485.5" y1="277.5" y2="277.5"/><ellipse cx="343.5" cy="288.5" fill="#84BE84" rx="3" ry="3" style="stroke: #038048; stroke-width: 1.0;"/><text fill="#000000" font-family="sans-serif" font-size="11" lengthAdjust="spacingAndGlyphs" textLength="121" x="352.5" y="291.7104">NYStyleCheesePizza()</text><!--MD5=[7012c540a7210c10f466863e915e20e1]
class NYStyleClamPizza--><rect fill="#FEFECE" filter="url(#f86h8ajuisnq9)" height="60.8047" id="NYStyleClamPizza" style="stroke: #A80036; stroke-width: 1.5;" width="137" x="522" y="237.5"/><ellipse cx="537" cy="253.5" fill="#ADD1B2" rx="11" ry="11" style="stroke: #A80036; stroke-width: 1.0;"/><path d="M539.9688,259.1406 Q539.3906,259.4375 538.75,259.5781 Q538.1094,259.7344 537.4063,259.7344 Q534.9063,259.7344 533.5781,258.0938 Q532.2656,256.4375 532.2656,253.3125 Q532.2656,250.1875 533.5781,248.5313 Q534.9063,246.875 537.4063,246.875 Q538.1094,246.875 538.75,247.0313 Q539.4063,247.1875 539.9688,247.4844 L539.9688,250.2031 Q539.3438,249.625 538.75,249.3594 Q538.1563,249.0781 537.5313,249.0781 Q536.1875,249.0781 535.5,250.1563 Q534.8125,251.2188 534.8125,253.3125 Q534.8125,255.4063 535.5,256.4844 Q536.1875,257.5469 537.5313,257.5469 Q538.1563,257.5469 538.75,257.2813 Q539.3438,257 539.9688,256.4219 L539.9688,259.1406 Z "/><text fill="#000000" font-family="sans-serif" font-size="12" lengthAdjust="spacingAndGlyphs" textLength="105" x="551" y="257.6543">NYStyleClamPizza</text><line style="stroke: #A80036; stroke-width: 1.5;" x1="523" x2="658" y1="269.5" y2="269.5"/><line style="stroke: #A80036; stroke-width: 1.5;" x1="523" x2="658" y1="277.5" y2="277.5"/><ellipse cx="533" cy="288.5" fill="#84BE84" rx="3" ry="3" style="stroke: #038048; stroke-width: 1.0;"/><text fill="#000000" font-family="sans-serif" font-size="11" lengthAdjust="spacingAndGlyphs" textLength="107" x="542" y="291.7104">NYStyleClamPizza()</text><!--MD5=[a76d7a67a0c82c2545579483790fd264]
class NYStylePepperoniPizza--><rect fill="#FEFECE" filter="url(#f86h8ajuisnq9)" height="60.8047" id="NYStylePepperoniPizza" style="stroke: #A80036; stroke-width: 1.5;" width="171" x="694" y="237.5"/><ellipse cx="709" cy="253.5" fill="#ADD1B2" rx="11" ry="11" style="stroke: #A80036; stroke-width: 1.0;"/><path d="M711.9688,259.1406 Q711.3906,259.4375 710.75,259.5781 Q710.1094,259.7344 709.4063,259.7344 Q706.9063,259.7344 705.5781,258.0938 Q704.2656,256.4375 704.2656,253.3125 Q704.2656,250.1875 705.5781,248.5313 Q706.9063,246.875 709.4063,246.875 Q710.1094,246.875 710.75,247.0313 Q711.4063,247.1875 711.9688,247.4844 L711.9688,250.2031 Q711.3438,249.625 710.75,249.3594 Q710.1563,249.0781 709.5313,249.0781 Q708.1875,249.0781 707.5,250.1563 Q706.8125,251.2188 706.8125,253.3125 Q706.8125,255.4063 707.5,256.4844 Q708.1875,257.5469 709.5313,257.5469 Q710.1563,257.5469 710.75,257.2813 Q711.3438,257 711.9688,256.4219 L711.9688,259.1406 Z "/><text fill="#000000" font-family="sans-serif" font-size="12" lengthAdjust="spacingAndGlyphs" textLength="139" x="723" y="257.6543">NYStylePepperoniPizza</text><line style="stroke: #A80036; stroke-width: 1.5;" x1="695" x2="864" y1="269.5" y2="269.5"/><line style="stroke: #A80036; stroke-width: 1.5;" x1="695" x2="864" y1="277.5" y2="277.5"/><ellipse cx="705" cy="288.5" fill="#84BE84" rx="3" ry="3" style="stroke: #038048; stroke-width: 1.0;"/><text fill="#000000" font-family="sans-serif" font-size="11" lengthAdjust="spacingAndGlyphs" textLength="135" x="714" y="291.7104">NYStylePepperoniPizza()</text><!--MD5=[73957a9e78ae293c4461ec423c525419]
class NYStyleVeggiePizza--><rect fill="#FEFECE" filter="url(#f86h8ajuisnq9)" height="60.8047" id="NYStyleVeggiePizza" style="stroke: #A80036; stroke-width: 1.5;" width="150" x="900.5" y="237.5"/><ellipse cx="915.5" cy="253.5" fill="#ADD1B2" rx="11" ry="11" style="stroke: #A80036; stroke-width: 1.0;"/><path d="M918.4688,259.1406 Q917.8906,259.4375 917.25,259.5781 Q916.6094,259.7344 915.9063,259.7344 Q913.4063,259.7344 912.0781,258.0938 Q910.7656,256.4375 910.7656,253.3125 Q910.7656,250.1875 912.0781,248.5313 Q913.4063,246.875 915.9063,246.875 Q916.6094,246.875 917.25,247.0313 Q917.9063,247.1875 918.4688,247.4844 L918.4688,250.2031 Q917.8438,249.625 917.25,249.3594 Q916.6563,249.0781 916.0313,249.0781 Q914.6875,249.0781 914,250.1563 Q913.3125,251.2188 913.3125,253.3125 Q913.3125,255.4063 914,256.4844 Q914.6875,257.5469 916.0313,257.5469 Q916.6563,257.5469 917.25,257.2813 Q917.8438,257 918.4688,256.4219 L918.4688,259.1406 Z "/><text fill="#000000" font-family="sans-serif" font-size="12" lengthAdjust="spacingAndGlyphs" textLength="118" x="929.5" y="257.6543">NYStyleVeggiePizza</text><line style="stroke: #A80036; stroke-width: 1.5;" x1="901.5" x2="1049.5" y1="269.5" y2="269.5"/><line style="stroke: #A80036; stroke-width: 1.5;" x1="901.5" x2="1049.5" y1="277.5" y2="277.5"/><ellipse cx="911.5" cy="288.5" fill="#84BE84" rx="3" ry="3" style="stroke: #038048; stroke-width: 1.0;"/><text fill="#000000" font-family="sans-serif" font-size="11" lengthAdjust="spacingAndGlyphs" textLength="116" x="920.5" y="291.7104">NYStyleVeggiePizza()</text><!--MD5=[196bfe110504d7625f5213f09b3256f5]
class ChicagoStyleCheesePizza--><rect fill="#FEFECE" filter="url(#f86h8ajuisnq9)" height="73.6094" id="ChicagoStyleCheesePizza" style="stroke: #A80036; stroke-width: 1.5;" width="188" x="1085.5" y="231"/><ellipse cx="1100.5" cy="247" fill="#ADD1B2" rx="11" ry="11" style="stroke: #A80036; stroke-width: 1.0;"/><path d="M1103.4688,252.6406 Q1102.8906,252.9375 1102.25,253.0781 Q1101.6094,253.2344 1100.9063,253.2344 Q1098.4063,253.2344 1097.0781,251.5938 Q1095.7656,249.9375 1095.7656,246.8125 Q1095.7656,243.6875 1097.0781,242.0313 Q1098.4063,240.375 1100.9063,240.375 Q1101.6094,240.375 1102.25,240.5313 Q1102.9063,240.6875 1103.4688,240.9844 L1103.4688,243.7031 Q1102.8438,243.125 1102.25,242.8594 Q1101.6563,242.5781 1101.0313,242.5781 Q1099.6875,242.5781 1099,243.6563 Q1098.3125,244.7188 1098.3125,246.8125 Q1098.3125,248.9063 1099,249.9844 Q1099.6875,251.0469 1101.0313,251.0469 Q1101.6563,251.0469 1102.25,250.7813 Q1102.8438,250.5 1103.4688,249.9219 L1103.4688,252.6406 Z "/><text fill="#000000" font-family="sans-serif" font-size="12" lengthAdjust="spacingAndGlyphs" textLength="156" x="1114.5" y="251.1543">ChicagoStyleCheesePizza</text><line style="stroke: #A80036; stroke-width: 1.5;" x1="1086.5" x2="1272.5" y1="263" y2="263"/><line style="stroke: #A80036; stroke-width: 1.5;" x1="1086.5" x2="1272.5" y1="271" y2="271"/><ellipse cx="1096.5" cy="282" fill="#84BE84" rx="3" ry="3" style="stroke: #038048; stroke-width: 1.0;"/><text fill="#000000" font-family="sans-serif" font-size="11" lengthAdjust="spacingAndGlyphs" textLength="151" x="1105.5" y="285.2104">ChicagoStyleCheesePizza()</text><ellipse cx="1096.5" cy="294.8047" fill="#84BE84" rx="3" ry="3" style="stroke: #038048; stroke-width: 1.0;"/><text fill="#000000" font-family="sans-serif" font-size="11" lengthAdjust="spacingAndGlyphs" textLength="25" x="1105.5" y="298.0151">cut()</text><!--MD5=[e3e33bd8811654e2666d3e467e04487a]
class ChicagoStyleClamPizza--><rect fill="#FEFECE" filter="url(#f86h8ajuisnq9)" height="60.8047" id="ChicagoStyleClamPizza" style="stroke: #A80036; stroke-width: 1.5;" width="171" x="1309" y="237.5"/><ellipse cx="1324" cy="253.5" fill="#ADD1B2" rx="11" ry="11" style="stroke: #A80036; stroke-width: 1.0;"/><path d="M1326.9688,259.1406 Q1326.3906,259.4375 1325.75,259.5781 Q1325.1094,259.7344 1324.4063,259.7344 Q1321.9063,259.7344 1320.5781,258.0938 Q1319.2656,256.4375 1319.2656,253.3125 Q1319.2656,250.1875 1320.5781,248.5313 Q1321.9063,246.875 1324.4063,246.875 Q1325.1094,246.875 1325.75,247.0313 Q1326.4063,247.1875 1326.9688,247.4844 L1326.9688,250.2031 Q1326.3438,249.625 1325.75,249.3594 Q1325.1563,249.0781 1324.5313,249.0781 Q1323.1875,249.0781 1322.5,250.1563 Q1321.8125,251.2188 1321.8125,253.3125 Q1321.8125,255.4063 1322.5,256.4844 Q1323.1875,257.5469 1324.5313,257.5469 Q1325.1563,257.5469 1325.75,257.2813 Q1326.3438,257 1326.9688,256.4219 L1326.9688,259.1406 Z "/><text fill="#000000" font-family="sans-serif" font-size="12" lengthAdjust="spacingAndGlyphs" textLength="139" x="1338" y="257.6543">ChicagoStyleClamPizza</text><line style="stroke: #A80036; stroke-width: 1.5;" x1="1310" x2="1479" y1="269.5" y2="269.5"/><line style="stroke: #A80036; stroke-width: 1.5;" x1="1310" x2="1479" y1="277.5" y2="277.5"/><ellipse cx="1320" cy="288.5" fill="#84BE84" rx="3" ry="3" style="stroke: #038048; stroke-width: 1.0;"/><text fill="#000000" font-family="sans-serif" font-size="11" lengthAdjust="spacingAndGlyphs" textLength="137" x="1329" y="291.7104">ChicagoStyleClamPizza()</text><!--MD5=[956b8774d23b982f6fecf659c7199e41]
class ChicagoStylePepperoniPizza--><rect fill="#FEFECE" filter="url(#f86h8ajuisnq9)" height="73.6094" id="ChicagoStylePepperoniPizza" style="stroke: #A80036; stroke-width: 1.5;" width="205" x="1515" y="231"/><ellipse cx="1530" cy="247" fill="#ADD1B2" rx="11" ry="11" style="stroke: #A80036; stroke-width: 1.0;"/><path d="M1532.9688,252.6406 Q1532.3906,252.9375 1531.75,253.0781 Q1531.1094,253.2344 1530.4063,253.2344 Q1527.9063,253.2344 1526.5781,251.5938 Q1525.2656,249.9375 1525.2656,246.8125 Q1525.2656,243.6875 1526.5781,242.0313 Q1527.9063,240.375 1530.4063,240.375 Q1531.1094,240.375 1531.75,240.5313 Q1532.4063,240.6875 1532.9688,240.9844 L1532.9688,243.7031 Q1532.3438,243.125 1531.75,242.8594 Q1531.1563,242.5781 1530.5313,242.5781 Q1529.1875,242.5781 1528.5,243.6563 Q1527.8125,244.7188 1527.8125,246.8125 Q1527.8125,248.9063 1528.5,249.9844 Q1529.1875,251.0469 1530.5313,251.0469 Q1531.1563,251.0469 1531.75,250.7813 Q1532.3438,250.5 1532.9688,249.9219 L1532.9688,252.6406 Z "/><text fill="#000000" font-family="sans-serif" font-size="12" lengthAdjust="spacingAndGlyphs" textLength="173" x="1544" y="251.1543">ChicagoStylePepperoniPizza</text><line style="stroke: #A80036; stroke-width: 1.5;" x1="1516" x2="1719" y1="263" y2="263"/><line style="stroke: #A80036; stroke-width: 1.5;" x1="1516" x2="1719" y1="271" y2="271"/><ellipse cx="1526" cy="282" fill="#84BE84" rx="3" ry="3" style="stroke: #038048; stroke-width: 1.0;"/><text fill="#000000" font-family="sans-serif" font-size="11" lengthAdjust="spacingAndGlyphs" textLength="165" x="1535" y="285.2104">ChicagoStylePepperoniPizza()</text><ellipse cx="1526" cy="294.8047" fill="#84BE84" rx="3" ry="3" style="stroke: #038048; stroke-width: 1.0;"/><text fill="#000000" font-family="sans-serif" font-size="11" lengthAdjust="spacingAndGlyphs" textLength="25" x="1535" y="298.0151">cut()</text><!--MD5=[df9b188da0ac1e08e9bd094812d0dd4c]
class ChicagoStyleVeggiePizza--><rect fill="#FEFECE" filter="url(#f86h8ajuisnq9)" height="60.8047" id="ChicagoStyleVeggiePizza" style="stroke: #A80036; stroke-width: 1.5;" width="184" x="1755.5" y="237.5"/><ellipse cx="1770.5" cy="253.5" fill="#ADD1B2" rx="11" ry="11" style="stroke: #A80036; stroke-width: 1.0;"/><path d="M1773.4688,259.1406 Q1772.8906,259.4375 1772.25,259.5781 Q1771.6094,259.7344 1770.9063,259.7344 Q1768.4063,259.7344 1767.0781,258.0938 Q1765.7656,256.4375 1765.7656,253.3125 Q1765.7656,250.1875 1767.0781,248.5313 Q1768.4063,246.875 1770.9063,246.875 Q1771.6094,246.875 1772.25,247.0313 Q1772.9063,247.1875 1773.4688,247.4844 L1773.4688,250.2031 Q1772.8438,249.625 1772.25,249.3594 Q1771.6563,249.0781 1771.0313,249.0781 Q1769.6875,249.0781 1769,250.1563 Q1768.3125,251.2188 1768.3125,253.3125 Q1768.3125,255.4063 1769,256.4844 Q1769.6875,257.5469 1771.0313,257.5469 Q1771.6563,257.5469 1772.25,257.2813 Q1772.8438,257 1773.4688,256.4219 L1773.4688,259.1406 Z "/><text fill="#000000" font-family="sans-serif" font-size="12" lengthAdjust="spacingAndGlyphs" textLength="152" x="1784.5" y="257.6543">ChicagoStyleVeggiePizza</text><line style="stroke: #A80036; stroke-width: 1.5;" x1="1756.5" x2="1938.5" y1="269.5" y2="269.5"/><line style="stroke: #A80036; stroke-width: 1.5;" x1="1756.5" x2="1938.5" y1="277.5" y2="277.5"/><ellipse cx="1766.5" cy="288.5" fill="#84BE84" rx="3" ry="3" style="stroke: #038048; stroke-width: 1.0;"/><text fill="#000000" font-family="sans-serif" font-size="11" lengthAdjust="spacingAndGlyphs" textLength="146" x="1775.5" y="291.7104">ChicagoStyleVeggiePizza()</text><!--MD5=[3b945ed581789e1a054b639c7e4c6f90]
reverse link PizzaStore to NYPizzaStore--><path d="M118.14,145.08 C104.01,175.5 86.96,212.21 75.28,237.34 " fill="none" id="PizzaStore&lt;-NYPizzaStore" style="stroke: #A80036; stroke-width: 1.0;"/><polygon fill="none" points="111.93,141.83,126.71,126.64,124.63,147.73,111.93,141.83" style="stroke: #A80036; stroke-width: 1.0;"/><!--MD5=[85f8c6a5276f9ec62453b4c43cc67357]
reverse link PizzaStore to ChicagoPizzaStore--><path d="M168.55,145.08 C182.51,175.5 199.35,212.21 210.89,237.34 " fill="none" id="PizzaStore&lt;-ChicagoPizzaStore" style="stroke: #A80036; stroke-width: 1.0;"/><polygon fill="none" points="162.07,147.74,160.09,126.64,174.79,141.9,162.07,147.74" style="stroke: #A80036; stroke-width: 1.0;"/><!--MD5=[0efd7702098c42da1bce89da961e9029]
reverse link Pizza to NYStyleCheesePizza--><path d="M1015.37,103.13 C909.47,125.25 687.67,174.07 504.5,231 C498.1,232.99 491.51,235.18 484.92,237.47 " fill="none" id="Pizza&lt;-NYStyleCheesePizza" style="stroke: #A80036; stroke-width: 1.0;"/><polygon fill="none" points="1013.96,96.28,1034.96,99.07,1016.8,109.99,1013.96,96.28" style="stroke: #A80036; stroke-width: 1.0;"/><!--MD5=[03f019dfcaaa8508490ee741e3e3247a]
reverse link Pizza to NYStyleClamPizza--><path d="M1015.55,110.93 C936.41,137.32 795.44,185.32 676.5,231 C670.91,233.15 665.14,235.43 659.36,237.75 " fill="none" id="Pizza&lt;-NYStyleClamPizza" style="stroke: #A80036; stroke-width: 1.0;"/><polygon fill="none" points="1013.57,104.21,1034.76,104.55,1017.99,117.5,1013.57,104.21" style="stroke: #A80036; stroke-width: 1.0;"/><!--MD5=[fcda66341131a87a54095913d2a3a6bc]
reverse link Pizza to NYStylePepperoniPizza--><path d="M1017.48,126.05 C962.19,158.8 881.12,206.81 829.32,237.49 " fill="none" id="Pizza&lt;-NYStylePepperoniPizza" style="stroke: #A80036; stroke-width: 1.0;"/><polygon fill="none" points="1014.03,119.96,1034.8,115.79,1021.16,132,1014.03,119.96" style="stroke: #A80036; stroke-width: 1.0;"/><!--MD5=[2876ebdfbba06d55af9bfdea2bb9aa32]
reverse link Pizza to NYStyleVeggiePizza--><path d="M1024.96,181.41 C1013.26,201.66 1001.67,221.71 992.66,237.31 " fill="none" id="Pizza&lt;-NYStyleVeggiePizza" style="stroke: #A80036; stroke-width: 1.0;"/><polygon fill="none" points="1018.91,177.89,1034.98,164.07,1031.03,184.89,1018.91,177.89" style="stroke: #A80036; stroke-width: 1.0;"/><!--MD5=[d87649b01ab7b35444e71ab5454722f6]
reverse link Pizza to ChicagoStyleCheesePizza--><path d="M1130.11,181.54 C1140.24,199.06 1150.28,216.43 1158.63,230.89 " fill="none" id="Pizza&lt;-ChicagoStyleCheesePizza" style="stroke: #A80036; stroke-width: 1.0;"/><polygon fill="none" points="1123.97,184.89,1120.02,164.07,1136.09,177.89,1123.97,184.89" style="stroke: #A80036; stroke-width: 1.0;"/><!--MD5=[aa965f1fbad6674c5f5e2cab4ead1677]
reverse link Pizza to ChicagoStyleClamPizza--><path d="M1137.85,124.1 C1196.64,156.83 1285.14,206.11 1341.35,237.41 " fill="none" id="Pizza&lt;-ChicagoStyleClamPizza" style="stroke: #A80036; stroke-width: 1.0;"/><polygon fill="none" points="1134.32,130.15,1120.25,114.3,1141.13,117.92,1134.32,130.15" style="stroke: #A80036; stroke-width: 1.0;"/><!--MD5=[da921a65583c3b334e0d75ee7d1e2540]
reverse link Pizza to ChicagoStylePepperoniPizza--><path d="M1139.4,110.73 C1231.06,140.69 1403.97,197.21 1514.8,233.43 " fill="none" id="Pizza&lt;-ChicagoStylePepperoniPizza" style="stroke: #A80036; stroke-width: 1.0;"/><polygon fill="none" points="1137.16,117.36,1120.32,104.5,1141.51,104.06,1137.16,117.36" style="stroke: #A80036; stroke-width: 1.0;"/><!--MD5=[6ef183418e243ceae1838534a545e941]
reverse link Pizza to ChicagoStyleVeggiePizza--><path d="M1140.32,101.56 C1258.27,122.85 1520.56,172.59 1737.5,231 C1744.87,232.99 1752.48,235.17 1760.09,237.46 " fill="none" id="Pizza&lt;-ChicagoStyleVeggiePizza" style="stroke: #A80036; stroke-width: 1.0;"/><polygon fill="none" points="1138.79,108.4,1120.34,97.98,1141.26,94.62,1138.79,108.4" style="stroke: #A80036; stroke-width: 1.0;"/><!--MD5=[f7865abe8bb195b48ffcd27357d4cd5e]
@startuml factory-method


'Creator
abstract class PizzaStore{
    +orderPizza();
    +createPizza();
}

class NYPizzaStore{
    +createPizza();
}

class ChicagoPizzaStore{
    +createPizza();
}

PizzaStore <|- - NYPizzaStore
PizzaStore <|- - ChicagoPizzaStore


'Product
abstract class Pizza{
    #name_;
    #dough_;
    #sauce_;
    #toppings_;

    +prepare();
    +bake();
    +cut();
    +box();
    +getName()
}

class NYStyleCheesePizza{
    +NYStyleCheesePizza()

}

class NYStyleClamPizza{
    +NYStyleClamPizza()
}

class NYStylePepperoniPizza{
    +NYStylePepperoniPizza()
}

class NYStyleVeggiePizza{
    +NYStyleVeggiePizza()
}


class ChicagoStyleCheesePizza{
    +ChicagoStyleCheesePizza()
    +cut()
}

class ChicagoStyleClamPizza{
    +ChicagoStyleClamPizza()
}

class ChicagoStylePepperoniPizza{
    +ChicagoStylePepperoniPizza()
    +cut()
}

class ChicagoStyleVeggiePizza{
    +ChicagoStyleVeggiePizza()

}

Pizza <|- - NYStyleCheesePizza
Pizza <|- - NYStyleClamPizza
Pizza <|- - NYStylePepperoniPizza
Pizza <|- - NYStyleVeggiePizza

Pizza <|- - ChicagoStyleCheesePizza
Pizza <|- - ChicagoStyleClamPizza
Pizza <|- - ChicagoStylePepperoniPizza
Pizza <|- - ChicagoStyleVeggiePizza

@enduml

@startuml factory-method


abstract class PizzaStore{
    +orderPizza();
    +createPizza();
}

class NYPizzaStore{
    +createPizza();
}

class ChicagoPizzaStore{
    +createPizza();
}

PizzaStore <|- - NYPizzaStore
PizzaStore <|- - ChicagoPizzaStore


abstract class Pizza{
    #name_;
    #dough_;
    #sauce_;
    #toppings_;

    +prepare();
    +bake();
    +cut();
    +box();
    +getName()
}

class NYStyleCheesePizza{
    +NYStyleCheesePizza()

}

class NYStyleClamPizza{
    +NYStyleClamPizza()
}

class NYStylePepperoniPizza{
    +NYStylePepperoniPizza()
}

class NYStyleVeggiePizza{
    +NYStyleVeggiePizza()
}


class ChicagoStyleCheesePizza{
    +ChicagoStyleCheesePizza()
    +cut()
}

class ChicagoStyleClamPizza{
    +ChicagoStyleClamPizza()
}

class ChicagoStylePepperoniPizza{
    +ChicagoStylePepperoniPizza()
    +cut()
}

class ChicagoStyleVeggiePizza{
    +ChicagoStyleVeggiePizza()

}

Pizza <|- - NYStyleCheesePizza
Pizza <|- - NYStyleClamPizza
Pizza <|- - NYStylePepperoniPizza
Pizza <|- - NYStyleVeggiePizza

Pizza <|- - ChicagoStyleCheesePizza
Pizza <|- - ChicagoStyleClamPizza
Pizza <|- - ChicagoStylePepperoniPizza
Pizza <|- - ChicagoStyleVeggiePizza

@enduml

PlantUML version 1.2020.10(Sun May 17 11:35:57 CEST 2020)
(GPL source distribution)
Java Runtime: OpenJDK Runtime Environment
JVM: OpenJDK 64-Bit Server VM
Java Version: 14.0.1+7-Ubuntu-1ubuntu1
Operating System: Linux
Default Encoding: UTF-8
Language: en
Country: US
--></g></svg>