<?xml version="1.0" encoding="UTF-8" standalone="no"?><svg xmlns="http://www.w3.org/2000/svg" xmlns:xlink="http://www.w3.org/1999/xlink" contentScriptType="application/ecmascript" contentStyleType="text/css" height="372px" preserveAspectRatio="none" style="width:1038px;height:372px;" version="1.1" viewBox="0 0 1038 372" width="1038px" zoomAndPan="magnify"><defs><filter height="300%" id="f16etyeu3ae1z" width="300%" x="-1" y="-1"><feGaussianBlur result="blurOut" stdDeviation="2.0"/><feColorMatrix in="blurOut" result="blurOut2" type="matrix" values="0 0 0 0 0 0 0 0 0 0 0 0 0 0 0 0 0 0 .4 0"/><feOffset dx="4.0" dy="4.0" in="blurOut2" result="blurOut3"/><feBlend in="SourceGraphic" in2="blurOut3" mode="normal"/></filter></defs><g><!--MD5=[f45f2220b0b110c1551a8318691639c0]
class Beverage--><rect fill="#FEFECE" filter="url(#f16etyeu3ae1z)" height="86.4141" id="Beverage" style="stroke: #A80036; stroke-width: 1.5;" width="116" x="383" y="8"/><ellipse cx="409.25" cy="24" fill="#A9DCDF" rx="11" ry="11" style="stroke: #A80036; stroke-width: 1.0;"/><path d="M409.3594,19.3438 L408.2031,24.4219 L410.5313,24.4219 L409.3594,19.3438 Z M407.875,17.1094 L410.8594,17.1094 L414.2188,29.5 L411.7656,29.5 L411,26.4375 L407.7188,26.4375 L406.9688,29.5 L404.5313,29.5 L407.875,17.1094 Z "/><text fill="#000000" font-family="sans-serif" font-size="12" font-style="italic" lengthAdjust="spacingAndGlyphs" textLength="59" x="425.75" y="28.1543">Beverage</text><line style="stroke: #A80036; stroke-width: 1.5;" x1="384" x2="498" y1="40" y2="40"/><polygon fill="none" points="394,46,398,50,394,54,390,50" style="stroke: #B38D22; stroke-width: 1.0;"/><text fill="#000000" font-family="sans-serif" font-size="11" lengthAdjust="spacingAndGlyphs" textLength="73" x="403" y="54.2104">description_;</text><line style="stroke: #A80036; stroke-width: 1.5;" x1="384" x2="498" y1="60.8047" y2="60.8047"/><ellipse cx="394" cy="71.8047" fill="#84BE84" rx="3" ry="3" style="stroke: #038048; stroke-width: 1.0;"/><text fill="#000000" font-family="sans-serif" font-size="11" lengthAdjust="spacingAndGlyphs" textLength="90" x="403" y="75.0151">getDescription()</text><ellipse cx="394" cy="84.6094" fill="#84BE84" rx="3" ry="3" style="stroke: #038048; stroke-width: 1.0;"/><text fill="#000000" font-family="sans-serif" font-size="11" lengthAdjust="spacingAndGlyphs" textLength="32" x="403" y="87.8198">cost()</text><!--MD5=[ef2f5c504d6cfaf85f831bdc93bdfcbf]
class DarkRoast--><rect fill="#FEFECE" filter="url(#f16etyeu3ae1z)" height="73.6094" id="DarkRoast" style="stroke: #A80036; stroke-width: 1.5;" width="116" x="6" y="154"/><ellipse cx="29.55" cy="170" fill="#ADD1B2" rx="11" ry="11" style="stroke: #A80036; stroke-width: 1.0;"/><path d="M32.5188,175.6406 Q31.9406,175.9375 31.3,176.0781 Q30.6594,176.2344 29.9563,176.2344 Q27.4563,176.2344 26.1281,174.5938 Q24.8156,172.9375 24.8156,169.8125 Q24.8156,166.6875 26.1281,165.0313 Q27.4563,163.375 29.9563,163.375 Q30.6594,163.375 31.3,163.5313 Q31.9563,163.6875 32.5188,163.9844 L32.5188,166.7031 Q31.8938,166.125 31.3,165.8594 Q30.7063,165.5781 30.0813,165.5781 Q28.7375,165.5781 28.05,166.6563 Q27.3625,167.7188 27.3625,169.8125 Q27.3625,171.9063 28.05,172.9844 Q28.7375,174.0469 30.0813,174.0469 Q30.7063,174.0469 31.3,173.7813 Q31.8938,173.5 32.5188,172.9219 L32.5188,175.6406 Z "/><text fill="#000000" font-family="sans-serif" font-size="12" lengthAdjust="spacingAndGlyphs" textLength="65" x="45.45" y="174.1543">DarkRoast</text><line style="stroke: #A80036; stroke-width: 1.5;" x1="7" x2="121" y1="186" y2="186"/><line style="stroke: #A80036; stroke-width: 1.5;" x1="7" x2="121" y1="194" y2="194"/><ellipse cx="17" cy="205" fill="#84BE84" rx="3" ry="3" style="stroke: #038048; stroke-width: 1.0;"/><text fill="#000000" font-family="sans-serif" font-size="11" lengthAdjust="spacingAndGlyphs" textLength="90" x="26" y="208.2104">getDescription()</text><ellipse cx="17" cy="217.8047" fill="#84BE84" rx="3" ry="3" style="stroke: #038048; stroke-width: 1.0;"/><text fill="#000000" font-family="sans-serif" font-size="11" lengthAdjust="spacingAndGlyphs" textLength="32" x="26" y="221.0151">cost()</text><!--MD5=[4188fab1d5603701389174163c352652]
class Decaf--><rect fill="#FEFECE" filter="url(#f16etyeu3ae1z)" height="73.6094" id="Decaf" style="stroke: #A80036; stroke-width: 1.5;" width="116" x="157" y="154"/><ellipse cx="193.6" cy="170" fill="#ADD1B2" rx="11" ry="11" style="stroke: #A80036; stroke-width: 1.0;"/><path d="M196.5688,175.6406 Q195.9906,175.9375 195.35,176.0781 Q194.7094,176.2344 194.0063,176.2344 Q191.5063,176.2344 190.1781,174.5938 Q188.8656,172.9375 188.8656,169.8125 Q188.8656,166.6875 190.1781,165.0313 Q191.5063,163.375 194.0063,163.375 Q194.7094,163.375 195.35,163.5313 Q196.0063,163.6875 196.5688,163.9844 L196.5688,166.7031 Q195.9438,166.125 195.35,165.8594 Q194.7563,165.5781 194.1313,165.5781 Q192.7875,165.5781 192.1,166.6563 Q191.4125,167.7188 191.4125,169.8125 Q191.4125,171.9063 192.1,172.9844 Q192.7875,174.0469 194.1313,174.0469 Q194.7563,174.0469 195.35,173.7813 Q195.9438,173.5 196.5688,172.9219 L196.5688,175.6406 Z "/><text fill="#000000" font-family="sans-serif" font-size="12" lengthAdjust="spacingAndGlyphs" textLength="36" x="212.4" y="174.1543">Decaf</text><line style="stroke: #A80036; stroke-width: 1.5;" x1="158" x2="272" y1="186" y2="186"/><line style="stroke: #A80036; stroke-width: 1.5;" x1="158" x2="272" y1="194" y2="194"/><ellipse cx="168" cy="205" fill="#84BE84" rx="3" ry="3" style="stroke: #038048; stroke-width: 1.0;"/><text fill="#000000" font-family="sans-serif" font-size="11" lengthAdjust="spacingAndGlyphs" textLength="90" x="177" y="208.2104">getDescription()</text><ellipse cx="168" cy="217.8047" fill="#84BE84" rx="3" ry="3" style="stroke: #038048; stroke-width: 1.0;"/><text fill="#000000" font-family="sans-serif" font-size="11" lengthAdjust="spacingAndGlyphs" textLength="32" x="177" y="221.0151">cost()</text><!--MD5=[f5ea9ff06fc8109cace2c9440d07df67]
class Espresso--><rect fill="#FEFECE" filter="url(#f16etyeu3ae1z)" height="73.6094" id="Espresso" style="stroke: #A80036; stroke-width: 1.5;" width="116" x="308" y="154"/><ellipse cx="334.7" cy="170" fill="#ADD1B2" rx="11" ry="11" style="stroke: #A80036; stroke-width: 1.0;"/><path d="M337.6688,175.6406 Q337.0906,175.9375 336.45,176.0781 Q335.8094,176.2344 335.1063,176.2344 Q332.6063,176.2344 331.2781,174.5938 Q329.9656,172.9375 329.9656,169.8125 Q329.9656,166.6875 331.2781,165.0313 Q332.6063,163.375 335.1063,163.375 Q335.8094,163.375 336.45,163.5313 Q337.1063,163.6875 337.6688,163.9844 L337.6688,166.7031 Q337.0438,166.125 336.45,165.8594 Q335.8563,165.5781 335.2313,165.5781 Q333.8875,165.5781 333.2,166.6563 Q332.5125,167.7188 332.5125,169.8125 Q332.5125,171.9063 333.2,172.9844 Q333.8875,174.0469 335.2313,174.0469 Q335.8563,174.0469 336.45,173.7813 Q337.0438,173.5 337.6688,172.9219 L337.6688,175.6406 Z "/><text fill="#000000" font-family="sans-serif" font-size="12" lengthAdjust="spacingAndGlyphs" textLength="58" x="351.3" y="174.1543">Espresso</text><line style="stroke: #A80036; stroke-width: 1.5;" x1="309" x2="423" y1="186" y2="186"/><line style="stroke: #A80036; stroke-width: 1.5;" x1="309" x2="423" y1="194" y2="194"/><ellipse cx="319" cy="205" fill="#84BE84" rx="3" ry="3" style="stroke: #038048; stroke-width: 1.0;"/><text fill="#000000" font-family="sans-serif" font-size="11" lengthAdjust="spacingAndGlyphs" textLength="90" x="328" y="208.2104">getDescription()</text><ellipse cx="319" cy="217.8047" fill="#84BE84" rx="3" ry="3" style="stroke: #038048; stroke-width: 1.0;"/><text fill="#000000" font-family="sans-serif" font-size="11" lengthAdjust="spacingAndGlyphs" textLength="32" x="328" y="221.0151">cost()</text><!--MD5=[bd7e272a4a95bdce642fcc687eddedc1]
class HouseBlend--><rect fill="#FEFECE" filter="url(#f16etyeu3ae1z)" height="73.6094" id="HouseBlend" style="stroke: #A80036; stroke-width: 1.5;" width="116" x="459" y="154"/><ellipse cx="478.05" cy="170" fill="#ADD1B2" rx="11" ry="11" style="stroke: #A80036; stroke-width: 1.0;"/><path d="M481.0188,175.6406 Q480.4406,175.9375 479.8,176.0781 Q479.1594,176.2344 478.4563,176.2344 Q475.9563,176.2344 474.6281,174.5938 Q473.3156,172.9375 473.3156,169.8125 Q473.3156,166.6875 474.6281,165.0313 Q475.9563,163.375 478.4563,163.375 Q479.1594,163.375 479.8,163.5313 Q480.4563,163.6875 481.0188,163.9844 L481.0188,166.7031 Q480.3938,166.125 479.8,165.8594 Q479.2063,165.5781 478.5813,165.5781 Q477.2375,165.5781 476.55,166.6563 Q475.8625,167.7188 475.8625,169.8125 Q475.8625,171.9063 476.55,172.9844 Q477.2375,174.0469 478.5813,174.0469 Q479.2063,174.0469 479.8,173.7813 Q480.3938,173.5 481.0188,172.9219 L481.0188,175.6406 Z "/><text fill="#000000" font-family="sans-serif" font-size="12" lengthAdjust="spacingAndGlyphs" textLength="75" x="492.95" y="174.1543">HouseBlend</text><line style="stroke: #A80036; stroke-width: 1.5;" x1="460" x2="574" y1="186" y2="186"/><line style="stroke: #A80036; stroke-width: 1.5;" x1="460" x2="574" y1="194" y2="194"/><ellipse cx="470" cy="205" fill="#84BE84" rx="3" ry="3" style="stroke: #038048; stroke-width: 1.0;"/><text fill="#000000" font-family="sans-serif" font-size="11" lengthAdjust="spacingAndGlyphs" textLength="90" x="479" y="208.2104">getDescription()</text><ellipse cx="470" cy="217.8047" fill="#84BE84" rx="3" ry="3" style="stroke: #038048; stroke-width: 1.0;"/><text fill="#000000" font-family="sans-serif" font-size="11" lengthAdjust="spacingAndGlyphs" textLength="32" x="479" y="221.0151">cost()</text><!--MD5=[8db1e71afe3fc67a239e81af71b3e2c9]
class CondimentDecorator--><rect fill="#FEFECE" filter="url(#f16etyeu3ae1z)" height="73.6094" id="CondimentDecorator" style="stroke: #A80036; stroke-width: 1.5;" width="266" x="610" y="154"/><ellipse cx="673.75" cy="170" fill="#ADD1B2" rx="11" ry="11" style="stroke: #A80036; stroke-width: 1.0;"/><path d="M676.7188,175.6406 Q676.1406,175.9375 675.5,176.0781 Q674.8594,176.2344 674.1563,176.2344 Q671.6563,176.2344 670.3281,174.5938 Q669.0156,172.9375 669.0156,169.8125 Q669.0156,166.6875 670.3281,165.0313 Q671.6563,163.375 674.1563,163.375 Q674.8594,163.375 675.5,163.5313 Q676.1563,163.6875 676.7188,163.9844 L676.7188,166.7031 Q676.0938,166.125 675.5,165.8594 Q674.9063,165.5781 674.2813,165.5781 Q672.9375,165.5781 672.25,166.6563 Q671.5625,167.7188 671.5625,169.8125 Q671.5625,171.9063 672.25,172.9844 Q672.9375,174.0469 674.2813,174.0469 Q674.9063,174.0469 675.5,173.7813 Q676.0938,173.5 676.7188,172.9219 L676.7188,175.6406 Z "/><text fill="#000000" font-family="sans-serif" font-size="12" lengthAdjust="spacingAndGlyphs" textLength="130" x="694.25" y="174.1543">CondimentDecorator</text><line style="stroke: #A80036; stroke-width: 1.5;" x1="611" x2="875" y1="186" y2="186"/><polygon fill="none" points="621,192,625,196,621,200,617,196" style="stroke: #B38D22; stroke-width: 1.0;"/><text fill="#000000" font-family="sans-serif" font-size="11" lengthAdjust="spacingAndGlyphs" textLength="59" x="630" y="200.2104">beverage_</text><line style="stroke: #A80036; stroke-width: 1.5;" x1="611" x2="875" y1="206.8047" y2="206.8047"/><ellipse cx="621" cy="217.8047" fill="#84BE84" rx="3" ry="3" style="stroke: #038048; stroke-width: 1.0;"/><text fill="#000000" font-family="sans-serif" font-size="11" lengthAdjust="spacingAndGlyphs" textLength="240" x="630" y="221.0151">CondimentDecorator(beverage: Beverage)</text><!--MD5=[100525086f0e815ee31f4f59acfdddec]
class Milk--><rect fill="#FEFECE" filter="url(#f16etyeu3ae1z)" height="73.6094" id="Milk" style="stroke: #A80036; stroke-width: 1.5;" width="116" x="458" y="288"/><ellipse cx="500.45" cy="304" fill="#ADD1B2" rx="11" ry="11" style="stroke: #A80036; stroke-width: 1.0;"/><path d="M503.4188,309.6406 Q502.8406,309.9375 502.2,310.0781 Q501.5594,310.2344 500.8563,310.2344 Q498.3563,310.2344 497.0281,308.5938 Q495.7156,306.9375 495.7156,303.8125 Q495.7156,300.6875 497.0281,299.0313 Q498.3563,297.375 500.8563,297.375 Q501.5594,297.375 502.2,297.5313 Q502.8563,297.6875 503.4188,297.9844 L503.4188,300.7031 Q502.7938,300.125 502.2,299.8594 Q501.6063,299.5781 500.9813,299.5781 Q499.6375,299.5781 498.95,300.6563 Q498.2625,301.7188 498.2625,303.8125 Q498.2625,305.9063 498.95,306.9844 Q499.6375,308.0469 500.9813,308.0469 Q501.6063,308.0469 502.2,307.7813 Q502.7938,307.5 503.4188,306.9219 L503.4188,309.6406 Z "/><text fill="#000000" font-family="sans-serif" font-size="12" lengthAdjust="spacingAndGlyphs" textLength="23" x="520.55" y="308.1543">Milk</text><line style="stroke: #A80036; stroke-width: 1.5;" x1="459" x2="573" y1="320" y2="320"/><line style="stroke: #A80036; stroke-width: 1.5;" x1="459" x2="573" y1="328" y2="328"/><ellipse cx="469" cy="339" fill="#84BE84" rx="3" ry="3" style="stroke: #038048; stroke-width: 1.0;"/><text fill="#000000" font-family="sans-serif" font-size="11" lengthAdjust="spacingAndGlyphs" textLength="90" x="478" y="342.2104">getDescription()</text><ellipse cx="469" cy="351.8047" fill="#84BE84" rx="3" ry="3" style="stroke: #038048; stroke-width: 1.0;"/><text fill="#000000" font-family="sans-serif" font-size="11" lengthAdjust="spacingAndGlyphs" textLength="32" x="478" y="355.0151">cost()</text><!--MD5=[826a7f68534f7bc14c11c5eacbfd79df]
class Mocha--><rect fill="#FEFECE" filter="url(#f16etyeu3ae1z)" height="73.6094" id="Mocha" style="stroke: #A80036; stroke-width: 1.5;" width="116" x="609" y="288"/><ellipse cx="643.35" cy="304" fill="#ADD1B2" rx="11" ry="11" style="stroke: #A80036; stroke-width: 1.0;"/><path d="M646.3188,309.6406 Q645.7406,309.9375 645.1,310.0781 Q644.4594,310.2344 643.7563,310.2344 Q641.2563,310.2344 639.9281,308.5938 Q638.6156,306.9375 638.6156,303.8125 Q638.6156,300.6875 639.9281,299.0313 Q641.2563,297.375 643.7563,297.375 Q644.4594,297.375 645.1,297.5313 Q645.7563,297.6875 646.3188,297.9844 L646.3188,300.7031 Q645.6938,300.125 645.1,299.8594 Q644.5063,299.5781 643.8813,299.5781 Q642.5375,299.5781 641.85,300.6563 Q641.1625,301.7188 641.1625,303.8125 Q641.1625,305.9063 641.85,306.9844 Q642.5375,308.0469 643.8813,308.0469 Q644.5063,308.0469 645.1,307.7813 Q645.6938,307.5 646.3188,306.9219 L646.3188,309.6406 Z "/><text fill="#000000" font-family="sans-serif" font-size="12" lengthAdjust="spacingAndGlyphs" textLength="41" x="661.65" y="308.1543">Mocha</text><line style="stroke: #A80036; stroke-width: 1.5;" x1="610" x2="724" y1="320" y2="320"/><line style="stroke: #A80036; stroke-width: 1.5;" x1="610" x2="724" y1="328" y2="328"/><ellipse cx="620" cy="339" fill="#84BE84" rx="3" ry="3" style="stroke: #038048; stroke-width: 1.0;"/><text fill="#000000" font-family="sans-serif" font-size="11" lengthAdjust="spacingAndGlyphs" textLength="90" x="629" y="342.2104">getDescription()</text><ellipse cx="620" cy="351.8047" fill="#84BE84" rx="3" ry="3" style="stroke: #038048; stroke-width: 1.0;"/><text fill="#000000" font-family="sans-serif" font-size="11" lengthAdjust="spacingAndGlyphs" textLength="32" x="629" y="355.0151">cost()</text><!--MD5=[1d657684344ca27a012d5cb815ad43ed]
class Soy--><rect fill="#FEFECE" filter="url(#f16etyeu3ae1z)" height="73.6094" id="Soy" style="stroke: #A80036; stroke-width: 1.5;" width="116" x="760" y="288"/><ellipse cx="802.9" cy="304" fill="#ADD1B2" rx="11" ry="11" style="stroke: #A80036; stroke-width: 1.0;"/><path d="M805.8688,309.6406 Q805.2906,309.9375 804.65,310.0781 Q804.0094,310.2344 803.3063,310.2344 Q800.8063,310.2344 799.4781,308.5938 Q798.1656,306.9375 798.1656,303.8125 Q798.1656,300.6875 799.4781,299.0313 Q800.8063,297.375 803.3063,297.375 Q804.0094,297.375 804.65,297.5313 Q805.3063,297.6875 805.8688,297.9844 L805.8688,300.7031 Q805.2438,300.125 804.65,299.8594 Q804.0563,299.5781 803.4313,299.5781 Q802.0875,299.5781 801.4,300.6563 Q800.7125,301.7188 800.7125,303.8125 Q800.7125,305.9063 801.4,306.9844 Q802.0875,308.0469 803.4313,308.0469 Q804.0563,308.0469 804.65,307.7813 Q805.2438,307.5 805.8688,306.9219 L805.8688,309.6406 Z "/><text fill="#000000" font-family="sans-serif" font-size="12" lengthAdjust="spacingAndGlyphs" textLength="22" x="823.1" y="308.1543">Soy</text><line style="stroke: #A80036; stroke-width: 1.5;" x1="761" x2="875" y1="320" y2="320"/><line style="stroke: #A80036; stroke-width: 1.5;" x1="761" x2="875" y1="328" y2="328"/><ellipse cx="771" cy="339" fill="#84BE84" rx="3" ry="3" style="stroke: #038048; stroke-width: 1.0;"/><text fill="#000000" font-family="sans-serif" font-size="11" lengthAdjust="spacingAndGlyphs" textLength="90" x="780" y="342.2104">getDescription()</text><ellipse cx="771" cy="351.8047" fill="#84BE84" rx="3" ry="3" style="stroke: #038048; stroke-width: 1.0;"/><text fill="#000000" font-family="sans-serif" font-size="11" lengthAdjust="spacingAndGlyphs" textLength="32" x="780" y="355.0151">cost()</text><!--MD5=[855bfe7603ce1fa68f47ee6242167d19]
class Whip--><rect fill="#FEFECE" filter="url(#f16etyeu3ae1z)" height="73.6094" id="Whip" style="stroke: #A80036; stroke-width: 1.5;" width="116" x="911" y="288"/><ellipse cx="950.3" cy="304" fill="#ADD1B2" rx="11" ry="11" style="stroke: #A80036; stroke-width: 1.0;"/><path d="M953.2688,309.6406 Q952.6906,309.9375 952.05,310.0781 Q951.4094,310.2344 950.7063,310.2344 Q948.2063,310.2344 946.8781,308.5938 Q945.5656,306.9375 945.5656,303.8125 Q945.5656,300.6875 946.8781,299.0313 Q948.2063,297.375 950.7063,297.375 Q951.4094,297.375 952.05,297.5313 Q952.7063,297.6875 953.2688,297.9844 L953.2688,300.7031 Q952.6438,300.125 952.05,299.8594 Q951.4563,299.5781 950.8313,299.5781 Q949.4875,299.5781 948.8,300.6563 Q948.1125,301.7188 948.1125,303.8125 Q948.1125,305.9063 948.8,306.9844 Q949.4875,308.0469 950.8313,308.0469 Q951.4563,308.0469 952.05,307.7813 Q952.6438,307.5 953.2688,306.9219 L953.2688,309.6406 Z "/><text fill="#000000" font-family="sans-serif" font-size="12" lengthAdjust="spacingAndGlyphs" textLength="30" x="969.7" y="308.1543">Whip</text><line style="stroke: #A80036; stroke-width: 1.5;" x1="912" x2="1026" y1="320" y2="320"/><line style="stroke: #A80036; stroke-width: 1.5;" x1="912" x2="1026" y1="328" y2="328"/><ellipse cx="922" cy="339" fill="#84BE84" rx="3" ry="3" style="stroke: #038048; stroke-width: 1.0;"/><text fill="#000000" font-family="sans-serif" font-size="11" lengthAdjust="spacingAndGlyphs" textLength="90" x="931" y="342.2104">getDescription()</text><ellipse cx="922" cy="351.8047" fill="#84BE84" rx="3" ry="3" style="stroke: #038048; stroke-width: 1.0;"/><text fill="#000000" font-family="sans-serif" font-size="11" lengthAdjust="spacingAndGlyphs" textLength="32" x="931" y="355.0151">cost()</text><!--MD5=[520e3a59fb10c3c044ab0f1ed697dfb8]
reverse link Beverage to CondimentDecorator--><path d="M517.18,92.16 C558.39,111.68 609.43,134.95 652.63,153.9 " fill="none" id="Beverage&lt;-CondimentDecorator" style="stroke: #A80036; stroke-width: 1.0; stroke-dasharray: 7.0,7.0;"/><polygon fill="none" points="514.04,98.42,499.01,83.49,520.07,85.78,514.04,98.42" style="stroke: #A80036; stroke-width: 1.0;"/><!--MD5=[571487931be3c37ecc5360d601bedab1]
reverse link CondimentDecorator to Beverage--><path d="M664.41,148.37 C612.61,123.85 546.12,93.82 499.03,73.87 " fill="none" id="CondimentDecorator&lt;-Beverage" style="stroke: #A80036; stroke-width: 1.0;"/><polygon fill="#FFFFFF" points="676.23,153.99,672.5299,147.8005,665.3935,148.8354,669.0935,155.0249,676.23,153.99" style="stroke: #A80036; stroke-width: 1.0;"/><!--MD5=[07a2fcabb36df965a4c7bf35e4d074c0]
reverse link Beverage to DarkRoast--><path d="M363.51,75.54 C302.18,94.82 214.72,123.76 140,154 C134.18,156.36 128.17,158.93 122.2,161.6 " fill="none" id="Beverage&lt;-DarkRoast" style="stroke: #A80036; stroke-width: 1.0; stroke-dasharray: 7.0,7.0;"/><polygon fill="none" points="361.67,68.78,382.85,69.51,365.84,82.14,361.67,68.78" style="stroke: #A80036; stroke-width: 1.0;"/><!--MD5=[2043822e86ab2b7f3d53c168bf142118]
reverse link Beverage to Decaf--><path d="M365.57,98.06 C335.39,116.48 301.18,137.38 273,154.58 " fill="none" id="Beverage&lt;-Decaf" style="stroke: #A80036; stroke-width: 1.0; stroke-dasharray: 7.0,7.0;"/><polygon fill="none" points="362.08,91.99,382.8,87.54,369.38,103.94,362.08,91.99" style="stroke: #A80036; stroke-width: 1.0;"/><!--MD5=[9ab9d4bf547d7982b0339bff1cafba9c]
reverse link Beverage to Espresso--><path d="M408.52,111.76 C400.76,126.04 392.71,140.85 385.73,153.7 " fill="none" id="Beverage&lt;-Espresso" style="stroke: #A80036; stroke-width: 1.0; stroke-dasharray: 7.0,7.0;"/><polygon fill="none" points="402.39,108.38,418.09,94.15,414.69,115.07,402.39,108.38" style="stroke: #A80036; stroke-width: 1.0;"/><!--MD5=[45d306746d61aae6853d584fda6d9989]
reverse link Beverage to HouseBlend--><path d="M473.91,111.76 C481.77,126.04 489.93,140.85 497.01,153.7 " fill="none" id="Beverage&lt;-HouseBlend" style="stroke: #A80036; stroke-width: 1.0; stroke-dasharray: 7.0,7.0;"/><polygon fill="none" points="467.73,115.05,464.22,94.15,480,108.3,467.73,115.05" style="stroke: #A80036; stroke-width: 1.0;"/><!--MD5=[e0b40310d863662c60be0a585fc86e22]
reverse link CondimentDecorator to Milk--><path d="M663.61,238.17 C634.13,255.31 601.27,274.41 574.05,290.24 " fill="none" id="CondimentDecorator&lt;-Milk" style="stroke: #A80036; stroke-width: 1.0;"/><polygon fill="none" points="660.16,232.07,680.97,228.07,667.2,244.17,660.16,232.07" style="stroke: #A80036; stroke-width: 1.0;"/><!--MD5=[a8ddc1e494c296992a933b761d3c2a93]
reverse link CondimentDecorator to Mocha--><path d="M712.19,245.51 C703.97,259.79 695.28,274.88 687.74,287.97 " fill="none" id="CondimentDecorator&lt;-Mocha" style="stroke: #A80036; stroke-width: 1.0;"/><polygon fill="none" points="706.19,241.91,722.23,228.07,718.32,248.89,706.19,241.91" style="stroke: #A80036; stroke-width: 1.0;"/><!--MD5=[b2f35954bc03414be1fa3899b002b144]
reverse link CondimentDecorator to Soy--><path d="M773.41,245.51 C781.52,259.79 790.09,274.88 797.53,287.97 " fill="none" id="CondimentDecorator&lt;-Soy" style="stroke: #A80036; stroke-width: 1.0;"/><polygon fill="none" points="767.29,248.92,763.49,228.07,779.46,242,767.29,248.92" style="stroke: #A80036; stroke-width: 1.0;"/><!--MD5=[4f2329419c5f4da4a439c67d0b584d15]
reverse link CondimentDecorator to Whip--><path d="M822.38,238.37 C851.5,255.37 883.9,274.3 910.82,290.02 " fill="none" id="CondimentDecorator&lt;-Whip" style="stroke: #A80036; stroke-width: 1.0;"/><polygon fill="none" points="818.5,244.2,804.76,228.07,825.56,232.11,818.5,244.2" style="stroke: #A80036; stroke-width: 1.0;"/><!--MD5=[ded990edb18f6efb6be2e203065d105e]
@startuml decorator

abstract class Beverage{
    #description_;
    +getDescription()
    +cost()
}

class DarkRoast{
    +getDescription()
    +cost()
}

class Decaf{
    +getDescription()
    +cost()
}

class Espresso{
    +getDescription()
    +cost()
}

class HouseBlend{
    +getDescription()
    +cost()
}

class CondimentDecorator{
    +CondimentDecorator(beverage: Beverage)
    #beverage_

}

class Milk{
    +getDescription()
    +cost()
}

class Mocha{
    +getDescription()
    +cost()
}

class Soy{
    +getDescription()
    +cost()
}

class Whip{
    +getDescription()
    +cost()
}

Beverage <|.. CondimentDecorator

Beverage <|.. DarkRoast
Beverage <|.. Decaf
Beverage <|.. Espresso
Beverage <|.. HouseBlend

CondimentDecorator o- - Beverage

CondimentDecorator <|- - Milk
CondimentDecorator <|- - Mocha
CondimentDecorator <|- - Soy
CondimentDecorator <|- - Whip

@enduml

PlantUML version 1.2020.10(Sun May 17 11:35:57 CEST 2020)
(GPL source distribution)
Java Runtime: OpenJDK Runtime Environment
JVM: OpenJDK 64-Bit Server VM
Java Version: 14.0.1+7-Ubuntu-1ubuntu1
Operating System: Linux
Default Encoding: UTF-8
Language: en
Country: US
--></g></svg>