<?xml version="1.0" encoding="UTF-8" standalone="no"?><svg xmlns="http://www.w3.org/2000/svg" xmlns:xlink="http://www.w3.org/1999/xlink" contentScriptType="application/ecmascript" contentStyleType="text/css" height="232px" preserveAspectRatio="none" style="width:390px;height:232px;" version="1.1" viewBox="0 0 390 232" width="390px" zoomAndPan="magnify"><defs><filter height="300%" id="f1f489s6lheft1" width="300%" x="-1" y="-1"><feGaussianBlur result="blurOut" stdDeviation="2.0"/><feColorMatrix in="blurOut" result="blurOut2" type="matrix" values="0 0 0 0 0 0 0 0 0 0 0 0 0 0 0 0 0 0 .4 0"/><feOffset dx="4.0" dy="4.0" in="blurOut2" result="blurOut3"/><feBlend in="SourceGraphic" in2="blurOut3" mode="normal"/></filter></defs><g><!--MD5=[d01e39adb8cc3240d418de1aedb45e74]
class Invoker--><rect fill="#FEFECE" filter="url(#f1f489s6lheft1)" height="60.8047" id="Invoker" style="stroke: #A80036; stroke-width: 1.5;" width="96" x="123.5" y="17.5"/><ellipse cx="147.05" cy="33.5" fill="#ADD1B2" rx="11" ry="11" style="stroke: #A80036; stroke-width: 1.0;"/><path d="M150.0188,39.1406 Q149.4406,39.4375 148.8,39.5781 Q148.1594,39.7344 147.4563,39.7344 Q144.9563,39.7344 143.6281,38.0938 Q142.3156,36.4375 142.3156,33.3125 Q142.3156,30.1875 143.6281,28.5313 Q144.9563,26.875 147.4563,26.875 Q148.1594,26.875 148.8,27.0313 Q149.4563,27.1875 150.0188,27.4844 L150.0188,30.2031 Q149.3938,29.625 148.8,29.3594 Q148.2063,29.0781 147.5813,29.0781 Q146.2375,29.0781 145.55,30.1563 Q144.8625,31.2188 144.8625,33.3125 Q144.8625,35.4063 145.55,36.4844 Q146.2375,37.5469 147.5813,37.5469 Q148.2063,37.5469 148.8,37.2813 Q149.3938,37 150.0188,36.4219 L150.0188,39.1406 Z "/><text fill="#000000" font-family="sans-serif" font-size="12" lengthAdjust="spacingAndGlyphs" textLength="45" x="162.95" y="37.6543">Invoker</text><line style="stroke: #A80036; stroke-width: 1.5;" x1="124.5" x2="218.5" y1="49.5" y2="49.5"/><line style="stroke: #A80036; stroke-width: 1.5;" x1="124.5" x2="218.5" y1="57.5" y2="57.5"/><text fill="#000000" font-family="sans-serif" font-size="11" lengthAdjust="spacingAndGlyphs" textLength="84" x="129.5" y="71.7104">setCommand()</text><!--MD5=[ed6624c6556d5e7b1bd23032162d20b7]
class Client--><rect fill="#FEFECE" filter="url(#f1f489s6lheft1)" height="48" id="Client" style="stroke: #A80036; stroke-width: 1.5;" width="67" x="6" y="161"/><ellipse cx="21" cy="177" fill="#ADD1B2" rx="11" ry="11" style="stroke: #A80036; stroke-width: 1.0;"/><path d="M23.9688,182.6406 Q23.3906,182.9375 22.75,183.0781 Q22.1094,183.2344 21.4063,183.2344 Q18.9063,183.2344 17.5781,181.5938 Q16.2656,179.9375 16.2656,176.8125 Q16.2656,173.6875 17.5781,172.0313 Q18.9063,170.375 21.4063,170.375 Q22.1094,170.375 22.75,170.5313 Q23.4063,170.6875 23.9688,170.9844 L23.9688,173.7031 Q23.3438,173.125 22.75,172.8594 Q22.1563,172.5781 21.5313,172.5781 Q20.1875,172.5781 19.5,173.6563 Q18.8125,174.7188 18.8125,176.8125 Q18.8125,178.9063 19.5,179.9844 Q20.1875,181.0469 21.5313,181.0469 Q22.1563,181.0469 22.75,180.7813 Q23.3438,180.5 23.9688,179.9219 L23.9688,182.6406 Z "/><text fill="#000000" font-family="sans-serif" font-size="12" lengthAdjust="spacingAndGlyphs" textLength="35" x="35" y="181.1543">Client</text><line style="stroke: #A80036; stroke-width: 1.5;" x1="7" x2="72" y1="193" y2="193"/><line style="stroke: #A80036; stroke-width: 1.5;" x1="7" x2="72" y1="201" y2="201"/><!--MD5=[521817ab83e81da341a3f4b5e91bae41]
class Command--><rect fill="#FEFECE" filter="url(#f1f489s6lheft1)" height="79.5469" id="Command" style="stroke: #A80036; stroke-width: 1.5;" width="98" x="254.5" y="8"/><ellipse cx="269.5" cy="26.9688" fill="#A9DCDF" rx="11" ry="11" style="stroke: #A80036; stroke-width: 1.0;"/><path d="M269.6094,22.3125 L268.4531,27.3906 L270.7813,27.3906 L269.6094,22.3125 Z M268.125,20.0781 L271.1094,20.0781 L274.4688,32.4688 L272.0156,32.4688 L271.25,29.4063 L267.9688,29.4063 L267.2188,32.4688 L264.7813,32.4688 L268.125,20.0781 Z "/><text fill="#000000" font-family="sans-serif" font-size="12" font-style="italic" lengthAdjust="spacingAndGlyphs" textLength="70" x="281.5" y="24.1387">«Interface»</text><text fill="#000000" font-family="sans-serif" font-size="12" font-style="italic" lengthAdjust="spacingAndGlyphs" textLength="62" x="285.5" y="38.1074">Command</text><line style="stroke: #A80036; stroke-width: 1.5;" x1="255.5" x2="351.5" y1="45.9375" y2="45.9375"/><line style="stroke: #A80036; stroke-width: 1.5;" x1="255.5" x2="351.5" y1="53.9375" y2="53.9375"/><ellipse cx="265.5" cy="64.9375" fill="#84BE84" rx="3" ry="3" style="stroke: #038048; stroke-width: 1.0;"/><text fill="#000000" font-family="sans-serif" font-size="11" lengthAdjust="spacingAndGlyphs" textLength="52" x="274.5" y="68.1479">execute()</text><ellipse cx="265.5" cy="77.7422" fill="#84BE84" rx="3" ry="3" style="stroke: #038048; stroke-width: 1.0;"/><text fill="#000000" font-family="sans-serif" font-size="11" lengthAdjust="spacingAndGlyphs" textLength="36" x="274.5" y="80.9526">undo()</text><!--MD5=[6fb1311da0745c184c648aedb301439e]
class ConcreteCommand--><rect fill="#FEFECE" filter="url(#f1f489s6lheft1)" height="73.6094" id="ConcreteCommand" style="stroke: #A80036; stroke-width: 1.5;" width="151" x="228" y="148"/><ellipse cx="243" cy="164" fill="#ADD1B2" rx="11" ry="11" style="stroke: #A80036; stroke-width: 1.0;"/><path d="M245.9688,169.6406 Q245.3906,169.9375 244.75,170.0781 Q244.1094,170.2344 243.4063,170.2344 Q240.9063,170.2344 239.5781,168.5938 Q238.2656,166.9375 238.2656,163.8125 Q238.2656,160.6875 239.5781,159.0313 Q240.9063,157.375 243.4063,157.375 Q244.1094,157.375 244.75,157.5313 Q245.4063,157.6875 245.9688,157.9844 L245.9688,160.7031 Q245.3438,160.125 244.75,159.8594 Q244.1563,159.5781 243.5313,159.5781 Q242.1875,159.5781 241.5,160.6563 Q240.8125,161.7188 240.8125,163.8125 Q240.8125,165.9063 241.5,166.9844 Q242.1875,168.0469 243.5313,168.0469 Q244.1563,168.0469 244.75,167.7813 Q245.3438,167.5 245.9688,166.9219 L245.9688,169.6406 Z "/><text fill="#000000" font-family="sans-serif" font-size="12" lengthAdjust="spacingAndGlyphs" textLength="119" x="257" y="168.1543">ConcreteCommand</text><line style="stroke: #A80036; stroke-width: 1.5;" x1="229" x2="378" y1="180" y2="180"/><line style="stroke: #A80036; stroke-width: 1.5;" x1="229" x2="378" y1="188" y2="188"/><ellipse cx="239" cy="199" fill="#84BE84" rx="3" ry="3" style="stroke: #038048; stroke-width: 1.0;"/><text fill="#000000" font-family="sans-serif" font-size="11" lengthAdjust="spacingAndGlyphs" textLength="52" x="248" y="202.2104">execute()</text><ellipse cx="239" cy="211.8047" fill="#84BE84" rx="3" ry="3" style="stroke: #038048; stroke-width: 1.0;"/><text fill="#000000" font-family="sans-serif" font-size="11" lengthAdjust="spacingAndGlyphs" textLength="36" x="248" y="215.0151">undo()</text><!--MD5=[bcee973e2623bef0127252815a37a6e8]
class Receiver--><rect fill="#FEFECE" filter="url(#f1f489s6lheft1)" height="60.8047" id="Receiver" style="stroke: #A80036; stroke-width: 1.5;" width="85" x="108" y="154.5"/><ellipse cx="123" cy="170.5" fill="#ADD1B2" rx="11" ry="11" style="stroke: #A80036; stroke-width: 1.0;"/><path d="M125.9688,176.1406 Q125.3906,176.4375 124.75,176.5781 Q124.1094,176.7344 123.4063,176.7344 Q120.9063,176.7344 119.5781,175.0938 Q118.2656,173.4375 118.2656,170.3125 Q118.2656,167.1875 119.5781,165.5313 Q120.9063,163.875 123.4063,163.875 Q124.1094,163.875 124.75,164.0313 Q125.4063,164.1875 125.9688,164.4844 L125.9688,167.2031 Q125.3438,166.625 124.75,166.3594 Q124.1563,166.0781 123.5313,166.0781 Q122.1875,166.0781 121.5,167.1563 Q120.8125,168.2188 120.8125,170.3125 Q120.8125,172.4063 121.5,173.4844 Q122.1875,174.5469 123.5313,174.5469 Q124.1563,174.5469 124.75,174.2813 Q125.3438,174 125.9688,173.4219 L125.9688,176.1406 Z "/><text fill="#000000" font-family="sans-serif" font-size="12" lengthAdjust="spacingAndGlyphs" textLength="53" x="137" y="174.6543">Receiver</text><line style="stroke: #A80036; stroke-width: 1.5;" x1="109" x2="192" y1="186.5" y2="186.5"/><line style="stroke: #A80036; stroke-width: 1.5;" x1="109" x2="192" y1="194.5" y2="194.5"/><text fill="#000000" font-family="sans-serif" font-size="11" lengthAdjust="spacingAndGlyphs" textLength="42" x="114" y="208.7104">action()</text><!--MD5=[850bba5183eed445a2d5c636b3c3d656]
reverse link Invoker to Command--><path d="M232.72,48 C239.95,48 247.18,48 254.4,48 " fill="none" id="Invoker&lt;-Command" style="stroke: #A80036; stroke-width: 1.0;"/><polygon fill="#A80036" points="219.71,48,225.71,52,231.71,48,225.71,44,219.71,48" style="stroke: #A80036; stroke-width: 1.0;"/><!--MD5=[71d76317347f4c6586f3f69fe5800413]
reverse link Command to ConcreteCommand--><path d="M303.5,108.46 C303.5,121.86 303.5,135.7 303.5,147.81 " fill="none" id="Command&lt;-ConcreteCommand" style="stroke: #A80036; stroke-width: 1.0; stroke-dasharray: 7.0,7.0;"/><polygon fill="none" points="296.5,108.05,303.5,88.05,310.5,108.05,296.5,108.05" style="stroke: #A80036; stroke-width: 1.0;"/><!--MD5=[f7e875d6983f2c509130b9c33285be9e]
reverse link Receiver to ConcreteCommand--><path d="M198.35,185 C208.13,185 217.91,185 227.69,185 " fill="none" id="Receiver&lt;-ConcreteCommand" style="stroke: #A80036; stroke-width: 1.0;"/><polygon fill="#A80036" points="193.23,185,202.23,189,198.23,185,202.23,181,193.23,185" style="stroke: #A80036; stroke-width: 1.0;"/><!--MD5=[e02f0c38d8c32dd9900da956a7b9472a]
link Client to ConcreteCommand--><path d="M56.2,160.94 C68.5,145.46 86.74,126.67 108,118 C142.98,103.74 156.62,107.83 193,118 C213.22,123.65 233.42,134.12 250.91,145.13 " fill="none" id="Client-&gt;ConcreteCommand" style="stroke: #A80036; stroke-width: 1.0; stroke-dasharray: 7.0,7.0;"/><polygon fill="#A80036" points="255.3,147.94,249.8599,139.7299,251.0835,145.2528,245.5605,146.4764,255.3,147.94" style="stroke: #A80036; stroke-width: 1.0;"/><!--MD5=[f6648c1eba52664df97c67a3949cfb3d]
link Client to Receiver--><path d="M73.32,185 C83.16,185 93,185 102.84,185 " fill="none" id="Client-&gt;Receiver" style="stroke: #A80036; stroke-width: 1.0;"/><polygon fill="#A80036" points="107.99,185,98.99,181,102.99,185,98.99,189,107.99,185" style="stroke: #A80036; stroke-width: 1.0;"/><!--MD5=[a5b17771808278465ad45864df64f605]
@startuml command-schema


class Invoker{
    setCommand()
}

class Client {

}

abstract class Command <<Interface>>{
    +execute()
    +undo()
}

Invoker *- Command


class ConcreteCommand{
    +execute()
    +undo()
}

Command <|.. ConcreteCommand

class Receiver{
    action()
}

Receiver <- ConcreteCommand

Client .> ConcreteCommand
Client -> Receiver

@enduml

PlantUML version 1.2020.10(Sun May 17 11:35:57 CEST 2020)
(GPL source distribution)
Java Runtime: OpenJDK Runtime Environment
JVM: OpenJDK 64-Bit Server VM
Java Version: 14.0.1+7-Ubuntu-1ubuntu1
Operating System: Linux
Default Encoding: UTF-8
Language: en
Country: US
--></g></svg>