<?xml version="1.0" encoding="UTF-8" standalone="no"?><svg xmlns="http://www.w3.org/2000/svg" xmlns:xlink="http://www.w3.org/1999/xlink" contentScriptType="application/ecmascript" contentStyleType="text/css" height="902px" preserveAspectRatio="none" style="width:979px;height:902px;" version="1.1" viewBox="0 0 979 902" width="979px" zoomAndPan="magnify"><defs><filter height="300%" id="f43in2vtrninn" width="300%" x="-1" y="-1"><feGaussianBlur result="blurOut" stdDeviation="2.0"/><feColorMatrix in="blurOut" result="blurOut2" type="matrix" values="0 0 0 0 0 0 0 0 0 0 0 0 0 0 0 0 0 0 .4 0"/><feOffset dx="4.0" dy="4.0" in="blurOut2" result="blurOut3"/><feBlend in="SourceGraphic" in2="blurOut3" mode="normal"/></filter></defs><g><!--MD5=[4b365eefd6136c0ba6977c022cc52107]
class Amplifier--><rect fill="#FEFECE" filter="url(#f43in2vtrninn)" height="176.0469" id="Amplifier" style="stroke: #A80036; stroke-width: 1.5;" width="173" x="204.7" y="295"/><ellipse cx="260.45" cy="311" fill="#ADD1B2" rx="11" ry="11" style="stroke: #A80036; stroke-width: 1.0;"/><path d="M263.4188,316.6406 Q262.8406,316.9375 262.2,317.0781 Q261.5594,317.2344 260.8563,317.2344 Q258.3563,317.2344 257.0281,315.5938 Q255.7156,313.9375 255.7156,310.8125 Q255.7156,307.6875 257.0281,306.0313 Q258.3563,304.375 260.8563,304.375 Q261.5594,304.375 262.2,304.5313 Q262.8563,304.6875 263.4188,304.9844 L263.4188,307.7031 Q262.7938,307.125 262.2,306.8594 Q261.6063,306.5781 260.9813,306.5781 Q259.6375,306.5781 258.95,307.6563 Q258.2625,308.7188 258.2625,310.8125 Q258.2625,312.9063 258.95,313.9844 Q259.6375,315.0469 260.9813,315.0469 Q261.6063,315.0469 262.2,314.7813 Q262.7938,314.5 263.4188,313.9219 L263.4188,316.6406 Z "/><text fill="#000000" font-family="sans-serif" font-size="12" lengthAdjust="spacingAndGlyphs" textLength="53" x="280.95" y="315.1543">Amplifier</text><line style="stroke: #A80036; stroke-width: 1.5;" x1="205.7" x2="376.7" y1="327" y2="327"/><rect fill="none" height="6" style="stroke: #C82930; stroke-width: 1.0;" width="6" x="212.7" y="335"/><text fill="#000000" font-family="sans-serif" font-size="11" lengthAdjust="spacingAndGlyphs" textLength="69" x="224.7" y="341.2104">description_</text><rect fill="none" height="6" style="stroke: #C82930; stroke-width: 1.0;" width="6" x="212.7" y="347.8047"/><text fill="#000000" font-family="sans-serif" font-size="11" lengthAdjust="spacingAndGlyphs" textLength="81" x="224.7" y="354.0151">tuner_ : Tuner</text><rect fill="none" height="6" style="stroke: #C82930; stroke-width: 1.0;" width="6" x="212.7" y="360.6094"/><text fill="#000000" font-family="sans-serif" font-size="11" lengthAdjust="spacingAndGlyphs" textLength="147" x="224.7" y="366.8198">player_ : StreamingPlayer</text><line style="stroke: #A80036; stroke-width: 1.5;" x1="205.7" x2="376.7" y1="373.4141" y2="373.4141"/><ellipse cx="215.7" cy="384.4141" fill="#84BE84" rx="3" ry="3" style="stroke: #038048; stroke-width: 1.0;"/><text fill="#000000" font-family="sans-serif" font-size="11" lengthAdjust="spacingAndGlyphs" textLength="22" x="224.7" y="387.6245">on()</text><ellipse cx="215.7" cy="397.2188" fill="#84BE84" rx="3" ry="3" style="stroke: #038048; stroke-width: 1.0;"/><text fill="#000000" font-family="sans-serif" font-size="11" lengthAdjust="spacingAndGlyphs" textLength="23" x="224.7" y="400.4292">off()</text><ellipse cx="215.7" cy="410.0234" fill="#84BE84" rx="3" ry="3" style="stroke: #038048; stroke-width: 1.0;"/><text fill="#000000" font-family="sans-serif" font-size="11" lengthAdjust="spacingAndGlyphs" textLength="100" x="224.7" y="413.2339">setStereoSound()</text><ellipse cx="215.7" cy="422.8281" fill="#84BE84" rx="3" ry="3" style="stroke: #038048; stroke-width: 1.0;"/><text fill="#000000" font-family="sans-serif" font-size="11" lengthAdjust="spacingAndGlyphs" textLength="115" x="224.7" y="426.0386">setSurroundSound()</text><ellipse cx="215.7" cy="435.6328" fill="#84BE84" rx="3" ry="3" style="stroke: #038048; stroke-width: 1.0;"/><text fill="#000000" font-family="sans-serif" font-size="11" lengthAdjust="spacingAndGlyphs" textLength="68" x="224.7" y="438.8433">setVolume()</text><ellipse cx="215.7" cy="448.4375" fill="#84BE84" rx="3" ry="3" style="stroke: #038048; stroke-width: 1.0;"/><text fill="#000000" font-family="sans-serif" font-size="11" lengthAdjust="spacingAndGlyphs" textLength="59" x="224.7" y="451.6479">setTuner()</text><ellipse cx="215.7" cy="461.2422" fill="#84BE84" rx="3" ry="3" style="stroke: #038048; stroke-width: 1.0;"/><text fill="#000000" font-family="sans-serif" font-size="11" lengthAdjust="spacingAndGlyphs" textLength="120" x="224.7" y="464.4526">setStreamingPlayer()</text><!--MD5=[c00024173370836a0bce6d4e614d8074]
class CdPlayer--><rect fill="#FEFECE" filter="url(#f43in2vtrninn)" height="163.2422" id="CdPlayer" style="stroke: #A80036; stroke-width: 1.5;" width="144" x="68.2" y="537.5"/><ellipse cx="109.3" cy="553.5" fill="#ADD1B2" rx="11" ry="11" style="stroke: #A80036; stroke-width: 1.0;"/><path d="M112.2688,559.1406 Q111.6906,559.4375 111.05,559.5781 Q110.4094,559.7344 109.7063,559.7344 Q107.2063,559.7344 105.8781,558.0938 Q104.5656,556.4375 104.5656,553.3125 Q104.5656,550.1875 105.8781,548.5313 Q107.2063,546.875 109.7063,546.875 Q110.4094,546.875 111.05,547.0313 Q111.7063,547.1875 112.2688,547.4844 L112.2688,550.2031 Q111.6438,549.625 111.05,549.3594 Q110.4563,549.0781 109.8313,549.0781 Q108.4875,549.0781 107.8,550.1563 Q107.1125,551.2188 107.1125,553.3125 Q107.1125,555.4063 107.8,556.4844 Q108.4875,557.5469 109.8313,557.5469 Q110.4563,557.5469 111.05,557.2813 Q111.6438,557 112.2688,556.4219 L112.2688,559.1406 Z "/><text fill="#000000" font-family="sans-serif" font-size="12" lengthAdjust="spacingAndGlyphs" textLength="54" x="129.1" y="557.6543">CdPlayer</text><line style="stroke: #A80036; stroke-width: 1.5;" x1="69.2" x2="211.2" y1="569.5" y2="569.5"/><rect fill="none" height="6" style="stroke: #C82930; stroke-width: 1.0;" width="6" x="76.2" y="577.5"/><text fill="#000000" font-family="sans-serif" font-size="11" lengthAdjust="spacingAndGlyphs" textLength="69" x="88.2" y="583.7104">description_</text><rect fill="none" height="6" style="stroke: #C82930; stroke-width: 1.0;" width="6" x="76.2" y="590.3047"/><text fill="#000000" font-family="sans-serif" font-size="11" lengthAdjust="spacingAndGlyphs" textLength="118" x="88.2" y="596.5151">amplifier_ : Amplifier</text><rect fill="none" height="6" style="stroke: #C82930; stroke-width: 1.0;" width="6" x="76.2" y="603.1094"/><text fill="#000000" font-family="sans-serif" font-size="11" lengthAdjust="spacingAndGlyphs" textLength="27" x="88.2" y="609.3198">title_</text><line style="stroke: #A80036; stroke-width: 1.5;" x1="69.2" x2="211.2" y1="615.9141" y2="615.9141"/><ellipse cx="79.2" cy="626.9141" fill="#84BE84" rx="3" ry="3" style="stroke: #038048; stroke-width: 1.0;"/><text fill="#000000" font-family="sans-serif" font-size="11" lengthAdjust="spacingAndGlyphs" textLength="22" x="88.2" y="630.1245">on()</text><ellipse cx="79.2" cy="639.7188" fill="#84BE84" rx="3" ry="3" style="stroke: #038048; stroke-width: 1.0;"/><text fill="#000000" font-family="sans-serif" font-size="11" lengthAdjust="spacingAndGlyphs" textLength="23" x="88.2" y="642.9292">off()</text><ellipse cx="79.2" cy="652.5234" fill="#84BE84" rx="3" ry="3" style="stroke: #038048; stroke-width: 1.0;"/><text fill="#000000" font-family="sans-serif" font-size="11" lengthAdjust="spacingAndGlyphs" textLength="35" x="88.2" y="655.7339">eject()</text><ellipse cx="79.2" cy="665.3281" fill="#84BE84" rx="3" ry="3" style="stroke: #038048; stroke-width: 1.0;"/><text fill="#000000" font-family="sans-serif" font-size="11" lengthAdjust="spacingAndGlyphs" textLength="31" x="88.2" y="668.5386">play()</text><ellipse cx="79.2" cy="678.1328" fill="#84BE84" rx="3" ry="3" style="stroke: #038048; stroke-width: 1.0;"/><text fill="#000000" font-family="sans-serif" font-size="11" lengthAdjust="spacingAndGlyphs" textLength="33" x="88.2" y="681.3433">stop()</text><ellipse cx="79.2" cy="690.9375" fill="#84BE84" rx="3" ry="3" style="stroke: #038048; stroke-width: 1.0;"/><text fill="#000000" font-family="sans-serif" font-size="11" lengthAdjust="spacingAndGlyphs" textLength="43" x="88.2" y="694.1479">pause()</text><!--MD5=[0860f228cc7e40c21a211d41c77c15de]
class Projector--><rect fill="#FEFECE" filter="url(#f43in2vtrninn)" height="124.8281" id="Projector" style="stroke: #A80036; stroke-width: 1.5;" width="173" x="82.7" y="767"/><ellipse cx="136.45" cy="783" fill="#ADD1B2" rx="11" ry="11" style="stroke: #A80036; stroke-width: 1.0;"/><path d="M139.4188,788.6406 Q138.8406,788.9375 138.2,789.0781 Q137.5594,789.2344 136.8563,789.2344 Q134.3563,789.2344 133.0281,787.5938 Q131.7156,785.9375 131.7156,782.8125 Q131.7156,779.6875 133.0281,778.0313 Q134.3563,776.375 136.8563,776.375 Q137.5594,776.375 138.2,776.5313 Q138.8563,776.6875 139.4188,776.9844 L139.4188,779.7031 Q138.7938,779.125 138.2,778.8594 Q137.6063,778.5781 136.9813,778.5781 Q135.6375,778.5781 134.95,779.6563 Q134.2625,780.7188 134.2625,782.8125 Q134.2625,784.9063 134.95,785.9844 Q135.6375,787.0469 136.9813,787.0469 Q137.6063,787.0469 138.2,786.7813 Q138.7938,786.5 139.4188,785.9219 L139.4188,788.6406 Z "/><text fill="#000000" font-family="sans-serif" font-size="12" lengthAdjust="spacingAndGlyphs" textLength="57" x="156.95" y="787.1543">Projector</text><line style="stroke: #A80036; stroke-width: 1.5;" x1="83.7" x2="254.7" y1="799" y2="799"/><rect fill="none" height="6" style="stroke: #C82930; stroke-width: 1.0;" width="6" x="90.7" y="807"/><text fill="#000000" font-family="sans-serif" font-size="11" lengthAdjust="spacingAndGlyphs" textLength="69" x="102.7" y="813.2104">description_</text><rect fill="none" height="6" style="stroke: #C82930; stroke-width: 1.0;" width="6" x="90.7" y="819.8047"/><text fill="#000000" font-family="sans-serif" font-size="11" lengthAdjust="spacingAndGlyphs" textLength="147" x="102.7" y="826.0151">player_ : StreamingPlayer</text><line style="stroke: #A80036; stroke-width: 1.5;" x1="83.7" x2="254.7" y1="832.6094" y2="832.6094"/><ellipse cx="93.7" cy="843.6094" fill="#84BE84" rx="3" ry="3" style="stroke: #038048; stroke-width: 1.0;"/><text fill="#000000" font-family="sans-serif" font-size="11" lengthAdjust="spacingAndGlyphs" textLength="22" x="102.7" y="846.8198">on()</text><ellipse cx="93.7" cy="856.4141" fill="#84BE84" rx="3" ry="3" style="stroke: #038048; stroke-width: 1.0;"/><text fill="#000000" font-family="sans-serif" font-size="11" lengthAdjust="spacingAndGlyphs" textLength="23" x="102.7" y="859.6245">off()</text><ellipse cx="93.7" cy="869.2188" fill="#84BE84" rx="3" ry="3" style="stroke: #038048; stroke-width: 1.0;"/><text fill="#000000" font-family="sans-serif" font-size="11" lengthAdjust="spacingAndGlyphs" textLength="104" x="102.7" y="872.4292">wideScreenMode()</text><ellipse cx="93.7" cy="882.0234" fill="#84BE84" rx="3" ry="3" style="stroke: #038048; stroke-width: 1.0;"/><text fill="#000000" font-family="sans-serif" font-size="11" lengthAdjust="spacingAndGlyphs" textLength="48" x="102.7" y="885.2339">tvMode()</text><!--MD5=[5994966bbfabdde1b100305ed8cb8bd9]
class StreamingPlayer--><rect fill="#FEFECE" filter="url(#f43in2vtrninn)" height="176.0469" id="StreamingPlayer" style="stroke: #A80036; stroke-width: 1.5;" width="152" x="247.2" y="531"/><ellipse cx="270.3" cy="547" fill="#ADD1B2" rx="11" ry="11" style="stroke: #A80036; stroke-width: 1.0;"/><path d="M273.2687,552.6406 Q272.6906,552.9375 272.05,553.0781 Q271.4094,553.2344 270.7062,553.2344 Q268.2062,553.2344 266.8781,551.5938 Q265.5656,549.9375 265.5656,546.8125 Q265.5656,543.6875 266.8781,542.0313 Q268.2062,540.375 270.7062,540.375 Q271.4094,540.375 272.05,540.5313 Q272.7062,540.6875 273.2687,540.9844 L273.2687,543.7031 Q272.6437,543.125 272.05,542.8594 Q271.4562,542.5781 270.8312,542.5781 Q269.4875,542.5781 268.8,543.6563 Q268.1125,544.7188 268.1125,546.8125 Q268.1125,548.9063 268.8,549.9844 Q269.4875,551.0469 270.8312,551.0469 Q271.4562,551.0469 272.05,550.7813 Q272.6437,550.5 273.2687,549.9219 L273.2687,552.6406 Z "/><text fill="#000000" font-family="sans-serif" font-size="12" lengthAdjust="spacingAndGlyphs" textLength="102" x="286.1" y="551.1543">StreamingPlayer</text><line style="stroke: #A80036; stroke-width: 1.5;" x1="248.2" x2="398.2" y1="563" y2="563"/><rect fill="none" height="6" style="stroke: #C82930; stroke-width: 1.0;" width="6" x="255.2" y="571"/><text fill="#000000" font-family="sans-serif" font-size="11" lengthAdjust="spacingAndGlyphs" textLength="69" x="267.2" y="577.2104">description_</text><rect fill="none" height="6" style="stroke: #C82930; stroke-width: 1.0;" width="6" x="255.2" y="583.8047"/><text fill="#000000" font-family="sans-serif" font-size="11" lengthAdjust="spacingAndGlyphs" textLength="118" x="267.2" y="590.0151">amplifier_ : Amplifier</text><rect fill="none" height="6" style="stroke: #C82930; stroke-width: 1.0;" width="6" x="255.2" y="596.6094"/><text fill="#000000" font-family="sans-serif" font-size="11" lengthAdjust="spacingAndGlyphs" textLength="37" x="267.2" y="602.8198">move_</text><line style="stroke: #A80036; stroke-width: 1.5;" x1="248.2" x2="398.2" y1="609.4141" y2="609.4141"/><ellipse cx="258.2" cy="620.4141" fill="#84BE84" rx="3" ry="3" style="stroke: #038048; stroke-width: 1.0;"/><text fill="#000000" font-family="sans-serif" font-size="11" lengthAdjust="spacingAndGlyphs" textLength="22" x="267.2" y="623.6245">on()</text><ellipse cx="258.2" cy="633.2188" fill="#84BE84" rx="3" ry="3" style="stroke: #038048; stroke-width: 1.0;"/><text fill="#000000" font-family="sans-serif" font-size="11" lengthAdjust="spacingAndGlyphs" textLength="23" x="267.2" y="636.4292">off()</text><ellipse cx="258.2" cy="646.0234" fill="#84BE84" rx="3" ry="3" style="stroke: #038048; stroke-width: 1.0;"/><text fill="#000000" font-family="sans-serif" font-size="11" lengthAdjust="spacingAndGlyphs" textLength="31" x="267.2" y="649.2339">play()</text><ellipse cx="258.2" cy="658.8281" fill="#84BE84" rx="3" ry="3" style="stroke: #038048; stroke-width: 1.0;"/><text fill="#000000" font-family="sans-serif" font-size="11" lengthAdjust="spacingAndGlyphs" textLength="33" x="267.2" y="662.0386">stop()</text><ellipse cx="258.2" cy="671.6328" fill="#84BE84" rx="3" ry="3" style="stroke: #038048; stroke-width: 1.0;"/><text fill="#000000" font-family="sans-serif" font-size="11" lengthAdjust="spacingAndGlyphs" textLength="43" x="267.2" y="674.8433">pause()</text><ellipse cx="258.2" cy="684.4375" fill="#84BE84" rx="3" ry="3" style="stroke: #038048; stroke-width: 1.0;"/><text fill="#000000" font-family="sans-serif" font-size="11" lengthAdjust="spacingAndGlyphs" textLength="126" x="267.2" y="687.6479">setTwoChannelAudio()</text><ellipse cx="258.2" cy="697.2422" fill="#84BE84" rx="3" ry="3" style="stroke: #038048; stroke-width: 1.0;"/><text fill="#000000" font-family="sans-serif" font-size="11" lengthAdjust="spacingAndGlyphs" textLength="110" x="267.2" y="700.4526">setSurroundAudio()</text><!--MD5=[97253af9bf8bc5b1f7ac8059fe222644]
class Tuner--><rect fill="#FEFECE" filter="url(#f43in2vtrninn)" height="86.4141" id="Tuner" style="stroke: #A80036; stroke-width: 1.5;" width="144" x="434.2" y="576"/><ellipse cx="483.95" cy="592" fill="#ADD1B2" rx="11" ry="11" style="stroke: #A80036; stroke-width: 1.0;"/><path d="M486.9188,597.6406 Q486.3406,597.9375 485.7,598.0781 Q485.0594,598.2344 484.3563,598.2344 Q481.8563,598.2344 480.5281,596.5938 Q479.2156,594.9375 479.2156,591.8125 Q479.2156,588.6875 480.5281,587.0313 Q481.8563,585.375 484.3563,585.375 Q485.0594,585.375 485.7,585.5313 Q486.3563,585.6875 486.9188,585.9844 L486.9188,588.7031 Q486.2938,588.125 485.7,587.8594 Q485.1063,587.5781 484.4813,587.5781 Q483.1375,587.5781 482.45,588.6563 Q481.7625,589.7188 481.7625,591.8125 Q481.7625,593.9063 482.45,594.9844 Q483.1375,596.0469 484.4813,596.0469 Q485.1063,596.0469 485.7,595.7813 Q486.2938,595.5 486.9188,594.9219 L486.9188,597.6406 Z "/><text fill="#000000" font-family="sans-serif" font-size="12" lengthAdjust="spacingAndGlyphs" textLength="36" x="504.45" y="596.1543">Tuner</text><line style="stroke: #A80036; stroke-width: 1.5;" x1="435.2" x2="577.2" y1="608" y2="608"/><rect fill="none" height="6" style="stroke: #C82930; stroke-width: 1.0;" width="6" x="442.2" y="616"/><text fill="#000000" font-family="sans-serif" font-size="11" lengthAdjust="spacingAndGlyphs" textLength="69" x="454.2" y="622.2104">description_</text><rect fill="none" height="6" style="stroke: #C82930; stroke-width: 1.0;" width="6" x="442.2" y="628.8047"/><text fill="#000000" font-family="sans-serif" font-size="11" lengthAdjust="spacingAndGlyphs" textLength="118" x="454.2" y="635.0151">amplifier_ : Amplifier</text><rect fill="none" height="6" style="stroke: #C82930; stroke-width: 1.0;" width="6" x="442.2" y="641.6094"/><text fill="#000000" font-family="sans-serif" font-size="11" lengthAdjust="spacingAndGlyphs" textLength="62" x="454.2" y="647.8198">frequency_</text><line style="stroke: #A80036; stroke-width: 1.5;" x1="435.2" x2="577.2" y1="654.4141" y2="654.4141"/><!--MD5=[463c45b1df3dbfe1c2134e01e0a41cde]
class Screen--><rect fill="#FEFECE" filter="url(#f43in2vtrninn)" height="86.4141" id="Screen" style="stroke: #A80036; stroke-width: 1.5;" width="95" x="555.7" y="340"/><ellipse cx="579.25" cy="356" fill="#ADD1B2" rx="11" ry="11" style="stroke: #A80036; stroke-width: 1.0;"/><path d="M582.2188,361.6406 Q581.6406,361.9375 581,362.0781 Q580.3594,362.2344 579.6563,362.2344 Q577.1563,362.2344 575.8281,360.5938 Q574.5156,358.9375 574.5156,355.8125 Q574.5156,352.6875 575.8281,351.0313 Q577.1563,349.375 579.6563,349.375 Q580.3594,349.375 581,349.5313 Q581.6563,349.6875 582.2188,349.9844 L582.2188,352.7031 Q581.5938,352.125 581,351.8594 Q580.4063,351.5781 579.7813,351.5781 Q578.4375,351.5781 577.75,352.6563 Q577.0625,353.7188 577.0625,355.8125 Q577.0625,357.9063 577.75,358.9844 Q578.4375,360.0469 579.7813,360.0469 Q580.4063,360.0469 581,359.7813 Q581.5938,359.5 582.2188,358.9219 L582.2188,361.6406 Z "/><text fill="#000000" font-family="sans-serif" font-size="12" lengthAdjust="spacingAndGlyphs" textLength="44" x="595.15" y="360.1543">Screen</text><line style="stroke: #A80036; stroke-width: 1.5;" x1="556.7" x2="649.7" y1="372" y2="372"/><rect fill="none" height="6" style="stroke: #C82930; stroke-width: 1.0;" width="6" x="563.7" y="380"/><text fill="#000000" font-family="sans-serif" font-size="11" lengthAdjust="spacingAndGlyphs" textLength="69" x="575.7" y="386.2104">description_</text><line style="stroke: #A80036; stroke-width: 1.5;" x1="556.7" x2="649.7" y1="392.8047" y2="392.8047"/><ellipse cx="566.7" cy="403.8047" fill="#84BE84" rx="3" ry="3" style="stroke: #038048; stroke-width: 1.0;"/><text fill="#000000" font-family="sans-serif" font-size="11" lengthAdjust="spacingAndGlyphs" textLength="22" x="575.7" y="407.0151">up()</text><ellipse cx="566.7" cy="416.6094" fill="#84BE84" rx="3" ry="3" style="stroke: #038048; stroke-width: 1.0;"/><text fill="#000000" font-family="sans-serif" font-size="11" lengthAdjust="spacingAndGlyphs" textLength="38" x="575.7" y="419.8198">down()</text><!--MD5=[2a041ee18cd3ddb165701baeb90ac41b]
class TheaterLights--><rect fill="#FEFECE" filter="url(#f43in2vtrninn)" height="163.2422" id="TheaterLights" style="stroke: #A80036; stroke-width: 1.5;" width="118" x="686.2" y="301.5"/><ellipse cx="701.2" cy="317.5" fill="#ADD1B2" rx="11" ry="11" style="stroke: #A80036; stroke-width: 1.0;"/><path d="M704.1688,323.1406 Q703.5906,323.4375 702.95,323.5781 Q702.3094,323.7344 701.6063,323.7344 Q699.1063,323.7344 697.7781,322.0938 Q696.4656,320.4375 696.4656,317.3125 Q696.4656,314.1875 697.7781,312.5313 Q699.1063,310.875 701.6063,310.875 Q702.3094,310.875 702.95,311.0313 Q703.6063,311.1875 704.1688,311.4844 L704.1688,314.2031 Q703.5438,313.625 702.95,313.3594 Q702.3563,313.0781 701.7313,313.0781 Q700.3875,313.0781 699.7,314.1563 Q699.0125,315.2188 699.0125,317.3125 Q699.0125,319.4063 699.7,320.4844 Q700.3875,321.5469 701.7313,321.5469 Q702.3563,321.5469 702.95,321.2813 Q703.5438,321 704.1688,320.4219 L704.1688,323.1406 Z "/><text fill="#000000" font-family="sans-serif" font-size="12" lengthAdjust="spacingAndGlyphs" textLength="86" x="715.2" y="321.6543">TheaterLights</text><line style="stroke: #A80036; stroke-width: 1.5;" x1="687.2" x2="803.2" y1="333.5" y2="333.5"/><rect fill="none" height="6" style="stroke: #C82930; stroke-width: 1.0;" width="6" x="694.2" y="341.5"/><text fill="#000000" font-family="sans-serif" font-size="11" lengthAdjust="spacingAndGlyphs" textLength="69" x="706.2" y="347.7104">description_</text><line style="stroke: #A80036; stroke-width: 1.5;" x1="687.2" x2="803.2" y1="354.3047" y2="354.3047"/><ellipse cx="697.2" cy="365.3047" fill="#84BE84" rx="3" ry="3" style="stroke: #038048; stroke-width: 1.0;"/><text fill="#000000" font-family="sans-serif" font-size="11" lengthAdjust="spacingAndGlyphs" textLength="22" x="706.2" y="368.5151">on()</text><ellipse cx="697.2" cy="378.1094" fill="#84BE84" rx="3" ry="3" style="stroke: #038048; stroke-width: 1.0;"/><text fill="#000000" font-family="sans-serif" font-size="11" lengthAdjust="spacingAndGlyphs" textLength="23" x="706.2" y="381.3198">off()</text><ellipse cx="697.2" cy="390.9141" fill="#84BE84" rx="3" ry="3" style="stroke: #038048; stroke-width: 1.0;"/><text fill="#000000" font-family="sans-serif" font-size="11" lengthAdjust="spacingAndGlyphs" textLength="29" x="706.2" y="394.1245">dim()</text><ellipse cx="697.2" cy="403.7188" fill="#84BE84" rx="3" ry="3" style="stroke: #038048; stroke-width: 1.0;"/><text fill="#000000" font-family="sans-serif" font-size="11" lengthAdjust="spacingAndGlyphs" textLength="22" x="706.2" y="406.9292">on()</text><ellipse cx="697.2" cy="416.5234" fill="#84BE84" rx="3" ry="3" style="stroke: #038048; stroke-width: 1.0;"/><text fill="#000000" font-family="sans-serif" font-size="11" lengthAdjust="spacingAndGlyphs" textLength="23" x="706.2" y="419.7339">off()</text><ellipse cx="697.2" cy="429.3281" fill="#84BE84" rx="3" ry="3" style="stroke: #038048; stroke-width: 1.0;"/><text fill="#000000" font-family="sans-serif" font-size="11" lengthAdjust="spacingAndGlyphs" textLength="84" x="706.2" y="432.5386">setFrequency()</text><ellipse cx="697.2" cy="442.1328" fill="#84BE84" rx="3" ry="3" style="stroke: #038048; stroke-width: 1.0;"/><text fill="#000000" font-family="sans-serif" font-size="11" lengthAdjust="spacingAndGlyphs" textLength="44" x="706.2" y="445.3433">setAm()</text><ellipse cx="697.2" cy="454.9375" fill="#84BE84" rx="3" ry="3" style="stroke: #038048; stroke-width: 1.0;"/><text fill="#000000" font-family="sans-serif" font-size="11" lengthAdjust="spacingAndGlyphs" textLength="43" x="706.2" y="458.1479">setFm()</text><!--MD5=[fd3d3f15e13360ab496215d30b1c5333]
class PopcornPopper--><rect fill="#FEFECE" filter="url(#f43in2vtrninn)" height="99.2188" id="PopcornPopper" style="stroke: #A80036; stroke-width: 1.5;" width="129" x="839.7" y="333.5"/><ellipse cx="854.7" cy="349.5" fill="#ADD1B2" rx="11" ry="11" style="stroke: #A80036; stroke-width: 1.0;"/><path d="M857.6688,355.1406 Q857.0906,355.4375 856.45,355.5781 Q855.8094,355.7344 855.1063,355.7344 Q852.6063,355.7344 851.2781,354.0938 Q849.9656,352.4375 849.9656,349.3125 Q849.9656,346.1875 851.2781,344.5313 Q852.6063,342.875 855.1063,342.875 Q855.8094,342.875 856.45,343.0313 Q857.1063,343.1875 857.6688,343.4844 L857.6688,346.2031 Q857.0438,345.625 856.45,345.3594 Q855.8563,345.0781 855.2313,345.0781 Q853.8875,345.0781 853.2,346.1563 Q852.5125,347.2188 852.5125,349.3125 Q852.5125,351.4063 853.2,352.4844 Q853.8875,353.5469 855.2313,353.5469 Q855.8563,353.5469 856.45,353.2813 Q857.0438,353 857.6688,352.4219 L857.6688,355.1406 Z "/><text fill="#000000" font-family="sans-serif" font-size="12" lengthAdjust="spacingAndGlyphs" textLength="97" x="868.7" y="353.6543">PopcornPopper</text><line style="stroke: #A80036; stroke-width: 1.5;" x1="840.7" x2="967.7" y1="365.5" y2="365.5"/><rect fill="none" height="6" style="stroke: #C82930; stroke-width: 1.0;" width="6" x="847.7" y="373.5"/><text fill="#000000" font-family="sans-serif" font-size="11" lengthAdjust="spacingAndGlyphs" textLength="69" x="859.7" y="379.7104">description_</text><line style="stroke: #A80036; stroke-width: 1.5;" x1="840.7" x2="967.7" y1="386.3047" y2="386.3047"/><ellipse cx="850.7" cy="397.3047" fill="#84BE84" rx="3" ry="3" style="stroke: #038048; stroke-width: 1.0;"/><text fill="#000000" font-family="sans-serif" font-size="11" lengthAdjust="spacingAndGlyphs" textLength="22" x="859.7" y="400.5151">on()</text><ellipse cx="850.7" cy="410.1094" fill="#84BE84" rx="3" ry="3" style="stroke: #038048; stroke-width: 1.0;"/><text fill="#000000" font-family="sans-serif" font-size="11" lengthAdjust="spacingAndGlyphs" textLength="23" x="859.7" y="413.3198">off()</text><ellipse cx="850.7" cy="422.9141" fill="#84BE84" rx="3" ry="3" style="stroke: #038048; stroke-width: 1.0;"/><text fill="#000000" font-family="sans-serif" font-size="11" lengthAdjust="spacingAndGlyphs" textLength="29" x="859.7" y="426.1245">pop()</text><!--MD5=[ad4d642fbb663befd9f8d398b33ec014]
class HomeTheaterFacade--><rect fill="#FEFECE" filter="url(#f43in2vtrninn)" height="227.2656" id="HomeTheaterFacade" style="stroke: #A80036; stroke-width: 1.5;" width="176" x="378.2" y="8"/><ellipse cx="399.05" cy="24" fill="#ADD1B2" rx="11" ry="11" style="stroke: #A80036; stroke-width: 1.0;"/><path d="M402.0188,29.6406 Q401.4406,29.9375 400.8,30.0781 Q400.1594,30.2344 399.4563,30.2344 Q396.9563,30.2344 395.6281,28.5938 Q394.3156,26.9375 394.3156,23.8125 Q394.3156,20.6875 395.6281,19.0313 Q396.9563,17.375 399.4563,17.375 Q400.1594,17.375 400.8,17.5313 Q401.4563,17.6875 402.0188,17.9844 L402.0188,20.7031 Q401.3938,20.125 400.8,19.8594 Q400.2063,19.5781 399.5813,19.5781 Q398.2375,19.5781 397.55,20.6563 Q396.8625,21.7188 396.8625,23.8125 Q396.8625,25.9063 397.55,26.9844 Q398.2375,28.0469 399.5813,28.0469 Q400.2063,28.0469 400.8,27.7813 Q401.3938,27.5 402.0188,26.9219 L402.0188,29.6406 Z "/><text fill="#000000" font-family="sans-serif" font-size="12" lengthAdjust="spacingAndGlyphs" textLength="131" x="414.35" y="28.1543">HomeTheaterFacade</text><line style="stroke: #A80036; stroke-width: 1.5;" x1="379.2" x2="553.2" y1="40" y2="40"/><rect fill="none" height="6" style="stroke: #C82930; stroke-width: 1.0;" width="6" x="386.2" y="48"/><text fill="#000000" font-family="sans-serif" font-size="11" lengthAdjust="spacingAndGlyphs" textLength="93" x="398.2" y="54.2104">amp_ : Amplifier</text><rect fill="none" height="6" style="stroke: #C82930; stroke-width: 1.0;" width="6" x="386.2" y="60.8047"/><text fill="#000000" font-family="sans-serif" font-size="11" lengthAdjust="spacingAndGlyphs" textLength="81" x="398.2" y="67.0151">tuner_ : Tuner</text><rect fill="none" height="6" style="stroke: #C82930; stroke-width: 1.0;" width="6" x="386.2" y="73.6094"/><text fill="#000000" font-family="sans-serif" font-size="11" lengthAdjust="spacingAndGlyphs" textLength="147" x="398.2" y="79.8198">player_ : StreamingPlayer</text><rect fill="none" height="6" style="stroke: #C82930; stroke-width: 1.0;" width="6" x="386.2" y="86.4141"/><text fill="#000000" font-family="sans-serif" font-size="11" lengthAdjust="spacingAndGlyphs" textLength="81" x="398.2" y="92.6245">cd_ : CdPlayer</text><rect fill="none" height="6" style="stroke: #C82930; stroke-width: 1.0;" width="6" x="386.2" y="99.2188"/><text fill="#000000" font-family="sans-serif" font-size="11" lengthAdjust="spacingAndGlyphs" textLength="120" x="398.2" y="105.4292">projector_ : Projector</text><rect fill="none" height="6" style="stroke: #C82930; stroke-width: 1.0;" width="6" x="386.2" y="112.0234"/><text fill="#000000" font-family="sans-serif" font-size="11" lengthAdjust="spacingAndGlyphs" textLength="127" x="398.2" y="118.2339">lights_ : TheaterLights</text><rect fill="none" height="6" style="stroke: #C82930; stroke-width: 1.0;" width="6" x="386.2" y="124.8281"/><text fill="#000000" font-family="sans-serif" font-size="11" lengthAdjust="spacingAndGlyphs" textLength="97" x="398.2" y="131.0386">screen_ : Screen</text><rect fill="none" height="6" style="stroke: #C82930; stroke-width: 1.0;" width="6" x="386.2" y="137.6328"/><text fill="#000000" font-family="sans-serif" font-size="11" lengthAdjust="spacingAndGlyphs" textLength="150" x="398.2" y="143.8433">popcorn_ : PopcornPopper</text><line style="stroke: #A80036; stroke-width: 1.5;" x1="379.2" x2="553.2" y1="150.4375" y2="150.4375"/><ellipse cx="389.2" cy="161.4375" fill="#84BE84" rx="3" ry="3" style="stroke: #038048; stroke-width: 1.0;"/><text fill="#000000" font-family="sans-serif" font-size="11" lengthAdjust="spacingAndGlyphs" textLength="73" x="398.2" y="164.6479">watchMovie()</text><ellipse cx="389.2" cy="174.2422" fill="#84BE84" rx="3" ry="3" style="stroke: #038048; stroke-width: 1.0;"/><text fill="#000000" font-family="sans-serif" font-size="11" lengthAdjust="spacingAndGlyphs" textLength="61" x="398.2" y="177.4526">endMovie()</text><ellipse cx="389.2" cy="187.0469" fill="#84BE84" rx="3" ry="3" style="stroke: #038048; stroke-width: 1.0;"/><text fill="#000000" font-family="sans-serif" font-size="11" lengthAdjust="spacingAndGlyphs" textLength="68" x="398.2" y="190.2573">listenToCd()</text><ellipse cx="389.2" cy="199.8516" fill="#84BE84" rx="3" ry="3" style="stroke: #038048; stroke-width: 1.0;"/><text fill="#000000" font-family="sans-serif" font-size="11" lengthAdjust="spacingAndGlyphs" textLength="44" x="398.2" y="203.062">endCd()</text><ellipse cx="389.2" cy="212.6563" fill="#84BE84" rx="3" ry="3" style="stroke: #038048; stroke-width: 1.0;"/><text fill="#000000" font-family="sans-serif" font-size="11" lengthAdjust="spacingAndGlyphs" textLength="84" x="398.2" y="215.8667">listenToRadio()</text><ellipse cx="389.2" cy="225.4609" fill="#84BE84" rx="3" ry="3" style="stroke: #038048; stroke-width: 1.0;"/><text fill="#000000" font-family="sans-serif" font-size="11" lengthAdjust="spacingAndGlyphs" textLength="60" x="398.2" y="228.6714">endRadio()</text><!--MD5=[ed6624c6556d5e7b1bd23032162d20b7]
class Client--><rect fill="#FEFECE" filter="url(#f43in2vtrninn)" height="48" id="Client" style="stroke: #A80036; stroke-width: 1.5;" width="67" x="275.7" y="97.5"/><ellipse cx="290.7" cy="113.5" fill="#ADD1B2" rx="11" ry="11" style="stroke: #A80036; stroke-width: 1.0;"/><path d="M293.6688,119.1406 Q293.0906,119.4375 292.45,119.5781 Q291.8094,119.7344 291.1063,119.7344 Q288.6063,119.7344 287.2781,118.0938 Q285.9656,116.4375 285.9656,113.3125 Q285.9656,110.1875 287.2781,108.5313 Q288.6063,106.875 291.1063,106.875 Q291.8094,106.875 292.45,107.0313 Q293.1063,107.1875 293.6688,107.4844 L293.6688,110.2031 Q293.0438,109.625 292.45,109.3594 Q291.8563,109.0781 291.2313,109.0781 Q289.8875,109.0781 289.2,110.1563 Q288.5125,111.2188 288.5125,113.3125 Q288.5125,115.4063 289.2,116.4844 Q289.8875,117.5469 291.2313,117.5469 Q291.8563,117.5469 292.45,117.2813 Q293.0438,117 293.6688,116.4219 L293.6688,119.1406 Z "/><text fill="#000000" font-family="sans-serif" font-size="12" lengthAdjust="spacingAndGlyphs" textLength="35" x="304.7" y="117.6543">Client</text><line style="stroke: #A80036; stroke-width: 1.5;" x1="276.7" x2="341.7" y1="129.5" y2="129.5"/><line style="stroke: #A80036; stroke-width: 1.5;" x1="276.7" x2="341.7" y1="137.5" y2="137.5"/><!--MD5=[6acf2ef33d0beda76b35211a5c4924e7]
reverse link Amplifier to Tuner--><path d="M362.27,474.92 C393.41,509.65 429.08,547.61 457.25,575.7 " fill="none" id="Amplifier&lt;-Tuner" style="stroke: #A80036; stroke-width: 1.0;"/><polygon fill="#A80036" points="358.89,471.13,361.9196,480.5013,362.2277,474.8528,367.8762,475.1609,358.89,471.13" style="stroke: #A80036; stroke-width: 1.0;"/><!--MD5=[f430524a153e0687a9755e1dd8efa940]
link Amplifier to Tuner--><path d="M377.78,464.2 C411.93,500.03 448.94,540.99 474.62,571.63 " fill="none" id="Amplifier-&gt;Tuner" style="stroke: #A80036; stroke-width: 1.0;"/><polygon fill="#A80036" points="478,575.69,475.3147,566.2143,474.8005,571.8477,469.167,571.3335,478,575.69" style="stroke: #A80036; stroke-width: 1.0;"/><!--MD5=[1083ddc060c20106854007021f003306]
reverse link Amplifier to StreamingPlayer--><path d="M291.32,476.18 C293.4,494.17 296.01,512.98 298.9,530.79 " fill="none" id="Amplifier&lt;-StreamingPlayer" style="stroke: #A80036; stroke-width: 1.0;"/><polygon fill="#A80036" points="290.75,471.13,287.8039,480.5279,291.321,476.0973,295.7516,479.6144,290.75,471.13" style="stroke: #A80036; stroke-width: 1.0;"/><!--MD5=[6006e6eb061e9c67b10a84605b9ed549]
link Amplifier to StreamingPlayer--><path d="M316.22,471.13 C319.14,488.95 321.76,507.76 323.81,525.74 " fill="none" id="Amplifier-&gt;StreamingPlayer" style="stroke: #A80036; stroke-width: 1.0;"/><polygon fill="#A80036" points="324.38,530.79,327.3528,521.4005,323.8231,525.8211,319.4025,522.2915,324.38,530.79" style="stroke: #A80036; stroke-width: 1.0;"/><!--MD5=[2ab569878246b1c8f70f74bffc26987f]
reverse link Amplifier to CdPlayer--><path d="M219.7,475.47 C206.07,495.9 192.28,517.42 180.05,537.37 " fill="none" id="Amplifier&lt;-CdPlayer" style="stroke: #A80036; stroke-width: 1.0;"/><polygon fill="#A80036" points="222.6,471.13,214.2795,476.3997,219.8265,475.2903,220.9359,480.8373,222.6,471.13" style="stroke: #A80036; stroke-width: 1.0;"/><!--MD5=[128ceec568d8efe6aba78b1edcf1a97c]
link Amplifier to CdPlayer--><path d="M248.08,471.13 C235.56,491.39 221.64,512.93 208.03,533.09 " fill="none" id="Amplifier-&gt;CdPlayer" style="stroke: #A80036; stroke-width: 1.0;"/><polygon fill="#A80036" points="205.13,537.37,213.4837,532.1532,207.9298,533.2274,206.8556,527.6735,205.13,537.37" style="stroke: #A80036; stroke-width: 1.0;"/><!--MD5=[c14a2dc7fa5d0796727717aba773bc2e]
reverse link StreamingPlayer to Projector--><path d="M255.65,711.46 C241.78,730.24 227.5,749.57 214.64,766.98 " fill="none" id="StreamingPlayer&lt;-Projector" style="stroke: #A80036; stroke-width: 1.0;"/><polygon fill="#A80036" points="258.79,707.21,250.2204,712.064,255.8152,711.2288,256.6505,716.8237,258.79,707.21" style="stroke: #A80036; stroke-width: 1.0;"/><!--MD5=[ce20647374190c943cac39c8ad3e646e]
reverse link HomeTheaterFacade to Amplifier--><path d="M382.92,246 C371.8,262.49 360.59,279.11 350,294.81 " fill="none" id="HomeTheaterFacade&lt;-Amplifier" style="stroke: #A80036; stroke-width: 1.0;"/><polygon fill="#A80036" points="390.21,235.19,383.5376,237.9249,383.4959,245.1359,390.1682,242.401,390.21,235.19" style="stroke: #A80036; stroke-width: 1.0;"/><!--MD5=[5ce130b048b843036f85cb8d7661632a]
reverse link HomeTheaterFacade to Tuner--><path d="M476.37,248.48 C485.05,355.98 497.02,504.2 502.8,575.85 " fill="none" id="HomeTheaterFacade&lt;-Tuner" style="stroke: #A80036; stroke-width: 1.0;"/><polygon fill="#A80036" points="475.3,235.25,471.7942,241.5516,476.2627,247.2113,479.7685,240.9098,475.3,235.25" style="stroke: #A80036; stroke-width: 1.0;"/><!--MD5=[1afbd4541041c41b54c72a69f4f9111b]
reverse link HomeTheaterFacade to StreamingPlayer--><path d="M448.53,248.28 C437.11,315.47 419.74,398.94 395.2,471 C388.42,490.91 379.55,511.59 370.35,530.93 " fill="none" id="HomeTheaterFacade&lt;-StreamingPlayer" style="stroke: #A80036; stroke-width: 1.0;"/><polygon fill="#A80036" points="450.73,235.07,445.7961,240.329,448.7529,246.906,453.6868,241.647,450.73,235.07" style="stroke: #A80036; stroke-width: 1.0;"/><!--MD5=[6eca45ddc75ca783081458f918d4954e]
reverse link HomeTheaterFacade to CdPlayer--><path d="M367.56,230 C365.13,231.73 362.67,233.4 360.2,235 C291.89,279.22 239.05,232.27 187.2,295 C131.51,362.37 125.87,465.82 130.18,537.41 " fill="none" id="HomeTheaterFacade&lt;-CdPlayer" style="stroke: #A80036; stroke-width: 1.0;"/><polygon fill="#A80036" points="378.09,222.06,370.891,222.4774,368.5074,229.2832,375.7064,228.8658,378.09,222.06" style="stroke: #A80036; stroke-width: 1.0;"/><!--MD5=[aa40595c264b3664f9a1506cd295eaa6]
reverse link HomeTheaterFacade to Projector--><path d="M367.33,230.58 C364.97,232.12 362.6,233.59 360.2,235 C266.14,290.25 201.21,219.78 122.2,295 C-12.43,423.17 -20.04,534.9 50.2,707 C59.24,729.14 74.47,749.44 91.07,766.84 " fill="none" id="HomeTheaterFacade&lt;-Projector" style="stroke: #A80036; stroke-width: 1.0;"/><polygon fill="#A80036" points="378.16,222.95,370.9513,223.1346,368.3491,229.8598,375.5578,229.6752,378.16,222.95" style="stroke: #A80036; stroke-width: 1.0;"/><!--MD5=[5c22d1d4e5af99a8ecfba560c70b9e2e]
reverse link HomeTheaterFacade to TheaterLights--><path d="M564.65,201.84 C598.39,230.25 635.78,263.15 668.2,295 C674.1,300.8 680.09,306.97 685.98,313.24 " fill="none" id="HomeTheaterFacade&lt;-TheaterLights" style="stroke: #A80036; stroke-width: 1.0;"/><polygon fill="#A80036" points="554.31,193.17,556.3401,200.0894,563.5081,200.8768,561.478,193.9574,554.31,193.17" style="stroke: #A80036; stroke-width: 1.0;"/><!--MD5=[fa1efdd3f38d6370dd53f2d4e4148730]
reverse link HomeTheaterFacade to Screen--><path d="M531.94,247.01 C549.63,280.52 567.57,314.51 581.02,339.99 " fill="none" id="HomeTheaterFacade&lt;-Screen" style="stroke: #A80036; stroke-width: 1.0;"/><polygon fill="#A80036" points="525.7,235.19,524.964,242.3634,531.3025,245.8019,532.0386,238.6284,525.7,235.19" style="stroke: #A80036; stroke-width: 1.0;"/><!--MD5=[d0d31c9402a123d403ca7b32d6211c21]
reverse link HomeTheaterFacade to PopcornPopper--><path d="M566.72,159.67 C641.17,189.85 743,236.88 822.2,295 C837.1,305.93 851.54,319.77 864.06,333.19 " fill="none" id="HomeTheaterFacade&lt;-PopcornPopper" style="stroke: #A80036; stroke-width: 1.0;"/><polygon fill="#A80036" points="554.55,154.79,558.6268,160.7381,565.6853,159.2626,561.6085,153.3145,554.55,154.79" style="stroke: #A80036; stroke-width: 1.0;"/><!--MD5=[0b2f5f64415f5cd1396de7217c2d7280]
link Client to HomeTheaterFacade--><path d="M342.93,121.5 C352.91,121.5 362.89,121.5 372.87,121.5 " fill="none" id="Client-&gt;HomeTheaterFacade" style="stroke: #A80036; stroke-width: 1.0;"/><polygon fill="#A80036" points="378.08,121.5,369.08,117.5,373.08,121.5,369.08,125.5,378.08,121.5" style="stroke: #A80036; stroke-width: 1.0;"/><!--MD5=[acdcbc9af736ea9bea3ca3ec4d6fd4d0]
@startuml facade

class Amplifier{
    -description_
    -tuner_ : Tuner
    -player_ : StreamingPlayer
    +on()
    +off()
    +setStereoSound()
    +setSurroundSound()
    +setVolume()
    +setTuner()
    +setStreamingPlayer()
}

class CdPlayer{
    -description_
    -amplifier_ : Amplifier
    -title_
    +on()
    +off()
    +eject()
    +play()
    +stop()
    +pause()
}

class Projector{
    -description_
    -player_ : StreamingPlayer
    +on()
    +off()
    +wideScreenMode()
    +tvMode()
}

class StreamingPlayer{
    -description_
    -amplifier_ : Amplifier
    -move_
    +on()
    +off()
    +play()
    +stop()
    +pause()
    +setTwoChannelAudio()
    +setSurroundAudio()
}

class Tuner{
    -description_
    -amplifier_ : Amplifier
    -frequency_

}

Amplifier <-up- Tuner
Amplifier <-up- StreamingPlayer
Amplifier <-up- CdPlayer

Amplifier -down-> Tuner
Amplifier -down-> StreamingPlayer
Amplifier -down-> CdPlayer

StreamingPlayer <-up- Projector

class Screen{
    -description_
    +up()
    +down()
}

class TheaterLights{
    -description_
    +on()
    +off()
    +dim()
    +on()
    +off()
    +setFrequency()
    +setAm()
    +setFm()
}

class PopcornPopper{
    -description_
    +on()
    +off()
    +pop()
}

class HomeTheaterFacade{
    -amp_ : Amplifier
    -tuner_ : Tuner
    -player_ : StreamingPlayer
    -cd_ : CdPlayer
    -projector_ : Projector
    -lights_ : TheaterLights
    -screen_ : Screen
    -popcorn_ : PopcornPopper
    +watchMovie()
    +endMovie()
    +listenToCd()
    +endCd()
    +listenToRadio()
    +endRadio()
}

class Client{
}

HomeTheaterFacade *-down- Amplifier
HomeTheaterFacade *-down- Tuner
HomeTheaterFacade *-down- StreamingPlayer
HomeTheaterFacade *-down- CdPlayer
HomeTheaterFacade *-down- Projector
HomeTheaterFacade *-down- TheaterLights
HomeTheaterFacade *-down- Screen
HomeTheaterFacade *-down- PopcornPopper


Client -> HomeTheaterFacade

@enduml

PlantUML version 1.2020.10(Sun May 17 11:35:57 CEST 2020)
(GPL source distribution)
Java Runtime: OpenJDK Runtime Environment
JVM: OpenJDK 64-Bit Server VM
Java Version: 14.0.1+7-Ubuntu-1ubuntu1
Operating System: Linux
Default Encoding: UTF-8
Language: en
Country: US
--></g></svg>