<?xml version="1.0" encoding="UTF-8" standalone="no"?><svg xmlns="http://www.w3.org/2000/svg" xmlns:xlink="http://www.w3.org/1999/xlink" contentScriptType="application/ecmascript" contentStyleType="text/css" height="287px" preserveAspectRatio="none" style="width:439px;height:287px;" version="1.1" viewBox="0 0 439 287" width="439px" zoomAndPan="magnify"><defs><filter height="300%" id="f1o1xzrd4hslev" width="300%" x="-1" y="-1"><feGaussianBlur result="blurOut" stdDeviation="2.0"/><feColorMatrix in="blurOut" result="blurOut2" type="matrix" values="0 0 0 0 0 0 0 0 0 0 0 0 0 0 0 0 0 0 .4 0"/><feOffset dx="4.0" dy="4.0" in="blurOut2" result="blurOut3"/><feBlend in="SourceGraphic" in2="blurOut3" mode="normal"/></filter></defs><g><!--MD5=[cabec23ee4b92b9689b5cdadd8472b1d]
cluster subsystem--><path d="M41.6537,154.5223 C47.2782,142.2733 57.1987,141.1201 64.271,153.1751 C73.6273,137.393 82.3064,138.0807 92.9658,151.9123 C102.9201,141.7643 111.531,140.6816 118.0303,155.3954 C124.0573,140.9537 137.0169,141.0816 144.0208,154.4835 C151.2604,139.1023 159.5936,139.1826 170.2563,151.2066 C178.3554,139.4775 185.9909,139.8222 194.8155,150.4081 C202.831,136.9391 213.4154,140.091 220.5254,151.3495 C229.0912,139.5963 239.4937,139.5287 246.6811,152.7908 C255.0717,139.7759 263.9924,141.1229 272.8578,152.2765 C279.9194,141.1373 292.3512,142.3483 298.6741,153.1459 C303.8888,142.274 314.5528,143.2455 320.2668,152.6132 C328.0333,136.8617 341.7641,136.3096 350.0983,152.0759 C358.7414,141.2246 367.8648,139.5741 374.9261,153.6512 C386.4121,141.5279 398.8916,142.9173 404,160 C405.9002,160.4133 405.9706,161.7541 404.8393,163.0121 C422.2986,171.7703 427.5665,188.174 409.2795,201.0995 C425.0277,222.5095 427.3205,239.3999 397,249 C398.8127,248.2435 399.6137,249.0689 399.5584,250.8692 C391.963,263.0726 383.2507,264.2831 373.1076,253.8456 C365.4189,265.4398 355.1756,265.6562 347.3846,253.9585 C342.0964,269.3071 328.5358,269.9359 319.8686,257.2783 C313.5461,267.6467 305.0552,265.6987 299.0047,256.981 C292.1926,270.834 277.946,272.1894 270.0739,258.0776 C262.9407,273.0442 254.7631,271.4012 244.1382,261.7573 C236.5742,271.9792 228.698,274.2263 220.4037,262.5488 C213.7637,275.5016 201.3776,273.7817 195.2837,261.9943 C188.5675,275.7132 176.6499,272.9095 170.2066,261.7195 C161.3131,273.5363 147.6779,273.7266 141.3957,258.8962 C133.5446,270.717 124.9189,268.1865 117.62,258.2916 C108.3532,266.8596 97.3158,264.698 92.6286,252.7208 C84.9669,267.1588 71.4893,266.8612 64.105,252.4467 C50.8119,263.434 33.3997,263.3112 30,242 C31.3103,240.8568 32.5815,241.3387 32.9401,242.9982 C8.5311,231.8921 10.9139,217.9252 27.1519,201.1914 C9.4163,181.7984 11.095,163.4748 37,153 C39.0055,151.2414 41.0518,151.9903 41.6537,154.5223 " fill="#FFFFFF" style="stroke: #000000; stroke-width: 1.5;"/><text fill="#000000" font-family="sans-serif" font-size="14" font-weight="bold" lengthAdjust="spacingAndGlyphs" textLength="86" x="174" y="170.9951">subsystem</text><!--MD5=[a46ee5ce0ceb0380cf446a08a056dce4]
class A--><rect fill="#FEFECE" filter="url(#f1o1xzrd4hslev)" height="60.8047" id="A" style="stroke: #A80036; stroke-width: 1.5;" width="95" x="300.5" y="180"/><ellipse cx="340.25" cy="196" fill="#ADD1B2" rx="11" ry="11" style="stroke: #A80036; stroke-width: 1.0;"/><path d="M343.2188,201.6406 Q342.6406,201.9375 342,202.0781 Q341.3594,202.2344 340.6563,202.2344 Q338.1563,202.2344 336.8281,200.5938 Q335.5156,198.9375 335.5156,195.8125 Q335.5156,192.6875 336.8281,191.0313 Q338.1563,189.375 340.6563,189.375 Q341.3594,189.375 342,189.5313 Q342.6563,189.6875 343.2188,189.9844 L343.2188,192.7031 Q342.5938,192.125 342,191.8594 Q341.4063,191.5781 340.7813,191.5781 Q339.4375,191.5781 338.75,192.6563 Q338.0625,193.7188 338.0625,195.8125 Q338.0625,197.9063 338.75,198.9844 Q339.4375,200.0469 340.7813,200.0469 Q341.4063,200.0469 342,199.7813 Q342.5938,199.5 343.2188,198.9219 L343.2188,201.6406 Z "/><text fill="#000000" font-family="sans-serif" font-size="12" lengthAdjust="spacingAndGlyphs" textLength="8" x="359.75" y="200.1543">A</text><line style="stroke: #A80036; stroke-width: 1.5;" x1="301.5" x2="394.5" y1="212" y2="212"/><line style="stroke: #A80036; stroke-width: 1.5;" x1="301.5" x2="394.5" y1="220" y2="220"/><ellipse cx="311.5" cy="231" fill="#84BE84" rx="3" ry="3" style="stroke: #038048; stroke-width: 1.0;"/><text fill="#000000" font-family="sans-serif" font-size="11" lengthAdjust="spacingAndGlyphs" textLength="69" x="320.5" y="234.2104">operationA()</text><!--MD5=[69c451c751c414e37549b782190fef46]
class B--><rect fill="#FEFECE" filter="url(#f1o1xzrd4hslev)" height="60.8047" id="B" style="stroke: #A80036; stroke-width: 1.5;" width="96" x="169" y="180"/><ellipse cx="209.2" cy="196" fill="#ADD1B2" rx="11" ry="11" style="stroke: #A80036; stroke-width: 1.0;"/><path d="M212.1688,201.6406 Q211.5906,201.9375 210.95,202.0781 Q210.3094,202.2344 209.6063,202.2344 Q207.1063,202.2344 205.7781,200.5938 Q204.4656,198.9375 204.4656,195.8125 Q204.4656,192.6875 205.7781,191.0313 Q207.1063,189.375 209.6063,189.375 Q210.3094,189.375 210.95,189.5313 Q211.6063,189.6875 212.1688,189.9844 L212.1688,192.7031 Q211.5438,192.125 210.95,191.8594 Q210.3563,191.5781 209.7313,191.5781 Q208.3875,191.5781 207.7,192.6563 Q207.0125,193.7188 207.0125,195.8125 Q207.0125,197.9063 207.7,198.9844 Q208.3875,200.0469 209.7313,200.0469 Q210.3563,200.0469 210.95,199.7813 Q211.5438,199.5 212.1688,198.9219 L212.1688,201.6406 Z "/><text fill="#000000" font-family="sans-serif" font-size="12" lengthAdjust="spacingAndGlyphs" textLength="8" x="228.8" y="200.1543">B</text><line style="stroke: #A80036; stroke-width: 1.5;" x1="170" x2="264" y1="212" y2="212"/><line style="stroke: #A80036; stroke-width: 1.5;" x1="170" x2="264" y1="220" y2="220"/><ellipse cx="180" cy="231" fill="#84BE84" rx="3" ry="3" style="stroke: #038048; stroke-width: 1.0;"/><text fill="#000000" font-family="sans-serif" font-size="11" lengthAdjust="spacingAndGlyphs" textLength="70" x="189" y="234.2104">operationB()</text><!--MD5=[378b18254a1b2429f435e93f5e5cc50c]
class C--><rect fill="#FEFECE" filter="url(#f1o1xzrd4hslev)" height="60.8047" id="C" style="stroke: #A80036; stroke-width: 1.5;" width="96" x="38" y="180"/><ellipse cx="78.2" cy="196" fill="#ADD1B2" rx="11" ry="11" style="stroke: #A80036; stroke-width: 1.0;"/><path d="M81.1688,201.6406 Q80.5906,201.9375 79.95,202.0781 Q79.3094,202.2344 78.6063,202.2344 Q76.1063,202.2344 74.7781,200.5938 Q73.4656,198.9375 73.4656,195.8125 Q73.4656,192.6875 74.7781,191.0313 Q76.1063,189.375 78.6063,189.375 Q79.3094,189.375 79.95,189.5313 Q80.6063,189.6875 81.1688,189.9844 L81.1688,192.7031 Q80.5438,192.125 79.95,191.8594 Q79.3563,191.5781 78.7313,191.5781 Q77.3875,191.5781 76.7,192.6563 Q76.0125,193.7188 76.0125,195.8125 Q76.0125,197.9063 76.7,198.9844 Q77.3875,200.0469 78.7313,200.0469 Q79.3563,200.0469 79.95,199.7813 Q80.5438,199.5 81.1688,198.9219 L81.1688,201.6406 Z "/><text fill="#000000" font-family="sans-serif" font-size="12" lengthAdjust="spacingAndGlyphs" textLength="8" x="97.8" y="200.1543">C</text><line style="stroke: #A80036; stroke-width: 1.5;" x1="39" x2="133" y1="212" y2="212"/><line style="stroke: #A80036; stroke-width: 1.5;" x1="39" x2="133" y1="220" y2="220"/><ellipse cx="49" cy="231" fill="#84BE84" rx="3" ry="3" style="stroke: #038048; stroke-width: 1.0;"/><text fill="#000000" font-family="sans-serif" font-size="11" lengthAdjust="spacingAndGlyphs" textLength="70" x="58" y="234.2104">operationC()</text><!--MD5=[790e9955d9690e5344ead96b2c38e22e]
class Facade--><rect fill="#FEFECE" filter="url(#f1o1xzrd4hslev)" height="112.0234" id="Facade" style="stroke: #A80036; stroke-width: 1.5;" width="197" x="118.5" y="8"/><ellipse cx="189.75" cy="24" fill="#ADD1B2" rx="11" ry="11" style="stroke: #A80036; stroke-width: 1.0;"/><path d="M192.7188,29.6406 Q192.1406,29.9375 191.5,30.0781 Q190.8594,30.2344 190.1563,30.2344 Q187.6563,30.2344 186.3281,28.5938 Q185.0156,26.9375 185.0156,23.8125 Q185.0156,20.6875 186.3281,19.0313 Q187.6563,17.375 190.1563,17.375 Q190.8594,17.375 191.5,17.5313 Q192.1563,17.6875 192.7188,17.9844 L192.7188,20.7031 Q192.0938,20.125 191.5,19.8594 Q190.9063,19.5781 190.2813,19.5781 Q188.9375,19.5781 188.25,20.6563 Q187.5625,21.7188 187.5625,23.8125 Q187.5625,25.9063 188.25,26.9844 Q188.9375,28.0469 190.2813,28.0469 Q190.9063,28.0469 191.5,27.7813 Q192.0938,27.5 192.7188,26.9219 L192.7188,29.6406 Z "/><text fill="#000000" font-family="sans-serif" font-size="12" lengthAdjust="spacingAndGlyphs" textLength="46" x="210.25" y="28.1543">Facade</text><line style="stroke: #A80036; stroke-width: 1.5;" x1="119.5" x2="314.5" y1="40" y2="40"/><rect fill="none" height="6" style="stroke: #C82930; stroke-width: 1.0;" width="6" x="126.5" y="48"/><text fill="#000000" font-family="sans-serif" font-size="11" lengthAdjust="spacingAndGlyphs" textLength="37" x="138.5" y="54.2104">classA</text><rect fill="none" height="6" style="stroke: #C82930; stroke-width: 1.0;" width="6" x="126.5" y="60.8047"/><text fill="#000000" font-family="sans-serif" font-size="11" lengthAdjust="spacingAndGlyphs" textLength="38" x="138.5" y="67.0151">classB</text><rect fill="none" height="6" style="stroke: #C82930; stroke-width: 1.0;" width="6" x="126.5" y="73.6094"/><text fill="#000000" font-family="sans-serif" font-size="11" lengthAdjust="spacingAndGlyphs" textLength="38" x="138.5" y="79.8198">classC</text><line style="stroke: #A80036; stroke-width: 1.5;" x1="119.5" x2="314.5" y1="86.4141" y2="86.4141"/><ellipse cx="129.5" cy="97.4141" fill="#84BE84" rx="3" ry="3" style="stroke: #038048; stroke-width: 1.0;"/><text fill="#000000" font-family="sans-serif" font-size="11" lengthAdjust="spacingAndGlyphs" textLength="127" x="138.5" y="100.6245">subsystemOperation()</text><ellipse cx="129.5" cy="110.2188" fill="#84BE84" rx="3" ry="3" style="stroke: #038048; stroke-width: 1.0;"/><text fill="#000000" font-family="sans-serif" font-size="11" lengthAdjust="spacingAndGlyphs" textLength="171" x="138.5" y="113.4292">subsystemAnotherOperation()</text><!--MD5=[ed6624c6556d5e7b1bd23032162d20b7]
class Client--><rect fill="#FEFECE" filter="url(#f1o1xzrd4hslev)" height="48" id="Client" style="stroke: #A80036; stroke-width: 1.5;" width="67" x="16.5" y="40"/><ellipse cx="31.5" cy="56" fill="#ADD1B2" rx="11" ry="11" style="stroke: #A80036; stroke-width: 1.0;"/><path d="M34.4688,61.6406 Q33.8906,61.9375 33.25,62.0781 Q32.6094,62.2344 31.9063,62.2344 Q29.4063,62.2344 28.0781,60.5938 Q26.7656,58.9375 26.7656,55.8125 Q26.7656,52.6875 28.0781,51.0313 Q29.4063,49.375 31.9063,49.375 Q32.6094,49.375 33.25,49.5313 Q33.9063,49.6875 34.4688,49.9844 L34.4688,52.7031 Q33.8438,52.125 33.25,51.8594 Q32.6563,51.5781 32.0313,51.5781 Q30.6875,51.5781 30,52.6563 Q29.3125,53.7188 29.3125,55.8125 Q29.3125,57.9063 30,58.9844 Q30.6875,60.0469 32.0313,60.0469 Q32.6563,60.0469 33.25,59.7813 Q33.8438,59.5 34.4688,58.9219 L34.4688,61.6406 Z "/><text fill="#000000" font-family="sans-serif" font-size="12" lengthAdjust="spacingAndGlyphs" textLength="35" x="45.5" y="60.1543">Client</text><line style="stroke: #A80036; stroke-width: 1.5;" x1="17.5" x2="82.5" y1="72" y2="72"/><line style="stroke: #A80036; stroke-width: 1.5;" x1="17.5" x2="82.5" y1="80" y2="80"/><!--MD5=[aeae3e3566358eadf81c07db47ffdacd]
reverse link Facade to A--><path d="M276.7,130.06 C278.83,132.4 280.93,134.72 283,137 C295.72,151.03 309.75,166.66 321.51,179.8 " fill="none" id="Facade&lt;-A" style="stroke: #A80036; stroke-width: 1.0;"/><polygon fill="#A80036" points="267.87,120.37,268.9531,127.4993,275.9506,129.2415,274.8675,122.1122,267.87,120.37" style="stroke: #A80036; stroke-width: 1.0;"/><!--MD5=[6238a33ef88ec8be3970b9e55b00a24c]
reverse link Facade to B--><path d="M217,133.05 C217,149.43 217,166.1 217,179.68 " fill="none" id="Facade&lt;-B" style="stroke: #A80036; stroke-width: 1.0;"/><polygon fill="#A80036" points="217,120.04,213,126.04,217,132.04,221,126.04,217,120.04" style="stroke: #A80036; stroke-width: 1.0;"/><!--MD5=[2a17a046ee01c965026d9a1c9cee0476]
reverse link Facade to C--><path d="M157.95,130.14 C142.26,147.44 126.07,165.3 113.04,179.68 " fill="none" id="Facade&lt;-C" style="stroke: #A80036; stroke-width: 1.0;"/><polygon fill="#A80036" points="167.1,120.04,160.1067,121.7988,159.0404,128.9306,166.0337,127.1718,167.1,120.04" style="stroke: #A80036; stroke-width: 1.0;"/><!--MD5=[b443b131f9e558b5ae61c4966c336f30]
link Client to Facade--><path d="M83.6,64 C93.43,64 103.27,64 113.11,64 " fill="none" id="Client-&gt;Facade" style="stroke: #A80036; stroke-width: 1.0;"/><polygon fill="#A80036" points="118.25,64,109.25,60,113.25,64,109.25,68,118.25,64" style="stroke: #A80036; stroke-width: 1.0;"/><!--MD5=[30ce0b3f8ec4114139104dd40c50eb42]
@startuml facade-schema
cloud subsystem{
    class A{
        +operationA()
    }
    class B{
        +operationB()
    }
    class C{
        +operationC()
    }
}

class Facade{
    -classA
    -classB
    -classC
    +subsystemOperation()
    +subsystemAnotherOperation()

}

Facade *-down- A
Facade *-down- B
Facade *-down- C

class Client{
}

Client -> Facade
@enduml

PlantUML version 1.2020.10(Sun May 17 11:35:57 CEST 2020)
(GPL source distribution)
Java Runtime: OpenJDK Runtime Environment
JVM: OpenJDK 64-Bit Server VM
Java Version: 14.0.1+7-Ubuntu-1ubuntu1
Operating System: Linux
Default Encoding: UTF-8
Language: en
Country: US
--></g></svg>