<?xml version="1.0" encoding="UTF-8" standalone="no"?><svg xmlns="http://www.w3.org/2000/svg" xmlns:xlink="http://www.w3.org/1999/xlink" contentScriptType="application/ecmascript" contentStyleType="text/css" height="264px" preserveAspectRatio="none" style="width:479px;height:264px;" version="1.1" viewBox="0 0 479 264" width="479px" zoomAndPan="magnify"><defs><filter height="300%" id="fx8pi20i9cbda" width="300%" x="-1" y="-1"><feGaussianBlur result="blurOut" stdDeviation="2.0"/><feColorMatrix in="blurOut" result="blurOut2" type="matrix" values="0 0 0 0 0 0 0 0 0 0 0 0 0 0 0 0 0 0 .4 0"/><feOffset dx="4.0" dy="4.0" in="blurOut2" result="blurOut3"/><feBlend in="SourceGraphic" in2="blurOut3" mode="normal"/></filter></defs><g><!--MD5=[fb3a36e6acd69457a12dcaa984c78192]
class AbstractClass--><rect fill="#FEFECE" filter="url(#fx8pi20i9cbda)" height="99.2188" id="AbstractClass" style="stroke: #A80036; stroke-width: 1.5;" width="146" x="108.5" y="8"/><ellipse cx="136.1" cy="24" fill="#ADD1B2" rx="11" ry="11" style="stroke: #A80036; stroke-width: 1.0;"/><path d="M139.0688,29.6406 Q138.4906,29.9375 137.85,30.0781 Q137.2094,30.2344 136.5063,30.2344 Q134.0063,30.2344 132.6781,28.5938 Q131.3656,26.9375 131.3656,23.8125 Q131.3656,20.6875 132.6781,19.0313 Q134.0063,17.375 136.5063,17.375 Q137.2094,17.375 137.85,17.5313 Q138.5063,17.6875 139.0688,17.9844 L139.0688,20.7031 Q138.4438,20.125 137.85,19.8594 Q137.2563,19.5781 136.6313,19.5781 Q135.2875,19.5781 134.6,20.6563 Q133.9125,21.7188 133.9125,23.8125 Q133.9125,25.9063 134.6,26.9844 Q135.2875,28.0469 136.6313,28.0469 Q137.2563,28.0469 137.85,27.7813 Q138.4438,27.5 139.0688,26.9219 L139.0688,29.6406 Z "/><text fill="#000000" font-family="sans-serif" font-size="12" lengthAdjust="spacingAndGlyphs" textLength="86" x="152.9" y="28.1543">AbstractClass</text><line style="stroke: #A80036; stroke-width: 1.5;" x1="109.5" x2="253.5" y1="40" y2="40"/><line style="stroke: #A80036; stroke-width: 1.5;" x1="109.5" x2="253.5" y1="48" y2="48"/><ellipse cx="119.5" cy="59" fill="#84BE84" rx="3" ry="3" style="stroke: #038048; stroke-width: 1.0;"/><text fill="#000000" font-family="sans-serif" font-size="11" lengthAdjust="spacingAndGlyphs" textLength="99" x="128.5" y="62.2104">templateMethod()</text><polygon fill="#FFFF44" points="119.5,66.8047,123.5,70.8047,119.5,74.8047,115.5,70.8047" style="stroke: #B38D22; stroke-width: 1.0;"/><text fill="#000000" font-family="sans-serif" font-size="11" font-style="italic" lengthAdjust="spacingAndGlyphs" textLength="120" x="128.5" y="75.0151">primitiveOperation1()</text><polygon fill="#FFFF44" points="119.5,79.6094,123.5,83.6094,119.5,87.6094,115.5,83.6094" style="stroke: #B38D22; stroke-width: 1.0;"/><text fill="#000000" font-family="sans-serif" font-size="11" font-style="italic" lengthAdjust="spacingAndGlyphs" textLength="120" x="128.5" y="87.8198">primitiveOperation2()</text><polygon fill="#FFFF44" points="119.5,92.4141,123.5,96.4141,119.5,100.4141,115.5,96.4141" style="stroke: #B38D22; stroke-width: 1.0;"/><text fill="#000000" font-family="sans-serif" font-size="11" font-style="italic" lengthAdjust="spacingAndGlyphs" textLength="120" x="128.5" y="100.6245">primitiveOperation3()</text><path d="M290,14.5 L290,53.5 L254.61,57.5 L290,61.5 L290,100.1641 A0,0 0 0 0 290,100.1641 L467,100.1641 A0,0 0 0 0 467,100.1641 L467,24.5 L457,14.5 L290,14.5 A0,0 0 0 0 290,14.5 " fill="#FBFB77" filter="url(#fx8pi20i9cbda)" style="stroke: #A80036; stroke-width: 1.0;"/><path d="M457,14.5 L457,24.5 L467,24.5 L457,14.5 " fill="#FBFB77" style="stroke: #A80036; stroke-width: 1.0;"/><text fill="#000000" font-family="sans-serif" font-size="13" lengthAdjust="spacingAndGlyphs" textLength="124" x="296" y="31.5669">templateMethod(){</text><text fill="#000000" font-family="sans-serif" font-size="13" lengthAdjust="spacingAndGlyphs" textLength="140" x="312" y="46.6997">primitiveOperation1();</text><text fill="#000000" font-family="sans-serif" font-size="13" lengthAdjust="spacingAndGlyphs" textLength="140" x="312" y="61.8325">primitiveOperation2();</text><text fill="#000000" font-family="sans-serif" font-size="13" lengthAdjust="spacingAndGlyphs" textLength="140" x="312" y="76.9653">primitiveOperation3();</text><text fill="#000000" font-family="sans-serif" font-size="13" lengthAdjust="spacingAndGlyphs" textLength="8" x="296" y="92.0981">}</text><!--MD5=[3acdbb6b621347a1367a6882bd361a70]
class ConcreteClassA--><rect fill="#FEFECE" filter="url(#fx8pi20i9cbda)" height="86.4141" id="ConcreteClassA" style="stroke: #A80036; stroke-width: 1.5;" width="146" x="17.5" y="167"/><ellipse cx="39.7" cy="183" fill="#ADD1B2" rx="11" ry="11" style="stroke: #A80036; stroke-width: 1.0;"/><path d="M42.6688,188.6406 Q42.0906,188.9375 41.45,189.0781 Q40.8094,189.2344 40.1063,189.2344 Q37.6063,189.2344 36.2781,187.5938 Q34.9656,185.9375 34.9656,182.8125 Q34.9656,179.6875 36.2781,178.0313 Q37.6063,176.375 40.1063,176.375 Q40.8094,176.375 41.45,176.5313 Q42.1063,176.6875 42.6688,176.9844 L42.6688,179.7031 Q42.0438,179.125 41.45,178.8594 Q40.8563,178.5781 40.2313,178.5781 Q38.8875,178.5781 38.2,179.6563 Q37.5125,180.7188 37.5125,182.8125 Q37.5125,184.9063 38.2,185.9844 Q38.8875,187.0469 40.2313,187.0469 Q40.8563,187.0469 41.45,186.7813 Q42.0438,186.5 42.6688,185.9219 L42.6688,188.6406 Z "/><text fill="#000000" font-family="sans-serif" font-size="12" lengthAdjust="spacingAndGlyphs" textLength="98" x="55.3" y="187.1543">ConcreteClassA</text><line style="stroke: #A80036; stroke-width: 1.5;" x1="18.5" x2="162.5" y1="199" y2="199"/><line style="stroke: #A80036; stroke-width: 1.5;" x1="18.5" x2="162.5" y1="207" y2="207"/><polygon fill="#FFFF44" points="28.5,213,32.5,217,28.5,221,24.5,217" style="stroke: #B38D22; stroke-width: 1.0;"/><text fill="#000000" font-family="sans-serif" font-size="11" lengthAdjust="spacingAndGlyphs" textLength="120" x="37.5" y="221.2104">primitiveOperation1()</text><polygon fill="#FFFF44" points="28.5,225.8047,32.5,229.8047,28.5,233.8047,24.5,229.8047" style="stroke: #B38D22; stroke-width: 1.0;"/><text fill="#000000" font-family="sans-serif" font-size="11" lengthAdjust="spacingAndGlyphs" textLength="120" x="37.5" y="234.0151">primitiveOperation2()</text><polygon fill="#FFFF44" points="28.5,238.6094,32.5,242.6094,28.5,246.6094,24.5,242.6094" style="stroke: #B38D22; stroke-width: 1.0;"/><text fill="#000000" font-family="sans-serif" font-size="11" lengthAdjust="spacingAndGlyphs" textLength="120" x="37.5" y="246.8198">primitiveOperation3()</text><!--MD5=[3a6f73ba76ea2ccb5e206c87b3d126ec]
class ConcreteClassB--><rect fill="#FEFECE" filter="url(#fx8pi20i9cbda)" height="86.4141" id="ConcreteClassB" style="stroke: #A80036; stroke-width: 1.5;" width="146" x="198.5" y="167"/><ellipse cx="220.7" cy="183" fill="#ADD1B2" rx="11" ry="11" style="stroke: #A80036; stroke-width: 1.0;"/><path d="M223.6688,188.6406 Q223.0906,188.9375 222.45,189.0781 Q221.8094,189.2344 221.1063,189.2344 Q218.6063,189.2344 217.2781,187.5938 Q215.9656,185.9375 215.9656,182.8125 Q215.9656,179.6875 217.2781,178.0313 Q218.6063,176.375 221.1063,176.375 Q221.8094,176.375 222.45,176.5313 Q223.1063,176.6875 223.6688,176.9844 L223.6688,179.7031 Q223.0438,179.125 222.45,178.8594 Q221.8563,178.5781 221.2313,178.5781 Q219.8875,178.5781 219.2,179.6563 Q218.5125,180.7188 218.5125,182.8125 Q218.5125,184.9063 219.2,185.9844 Q219.8875,187.0469 221.2313,187.0469 Q221.8563,187.0469 222.45,186.7813 Q223.0438,186.5 223.6688,185.9219 L223.6688,188.6406 Z "/><text fill="#000000" font-family="sans-serif" font-size="12" lengthAdjust="spacingAndGlyphs" textLength="98" x="236.3" y="187.1543">ConcreteClassB</text><line style="stroke: #A80036; stroke-width: 1.5;" x1="199.5" x2="343.5" y1="199" y2="199"/><line style="stroke: #A80036; stroke-width: 1.5;" x1="199.5" x2="343.5" y1="207" y2="207"/><polygon fill="#FFFF44" points="209.5,213,213.5,217,209.5,221,205.5,217" style="stroke: #B38D22; stroke-width: 1.0;"/><text fill="#000000" font-family="sans-serif" font-size="11" lengthAdjust="spacingAndGlyphs" textLength="120" x="218.5" y="221.2104">primitiveOperation1()</text><polygon fill="#FFFF44" points="209.5,225.8047,213.5,229.8047,209.5,233.8047,205.5,229.8047" style="stroke: #B38D22; stroke-width: 1.0;"/><text fill="#000000" font-family="sans-serif" font-size="11" lengthAdjust="spacingAndGlyphs" textLength="120" x="218.5" y="234.0151">primitiveOperation2()</text><polygon fill="#FFFF44" points="209.5,238.6094,213.5,242.6094,209.5,246.6094,205.5,242.6094" style="stroke: #B38D22; stroke-width: 1.0;"/><text fill="#000000" font-family="sans-serif" font-size="11" lengthAdjust="spacingAndGlyphs" textLength="120" x="218.5" y="246.8198">primitiveOperation3()</text><!--MD5=[ed6624c6556d5e7b1bd23032162d20b7]
class Client--><rect fill="#FEFECE" filter="url(#fx8pi20i9cbda)" height="48" id="Client" style="stroke: #A80036; stroke-width: 1.5;" width="67" x="6" y="33.5"/><ellipse cx="21" cy="49.5" fill="#ADD1B2" rx="11" ry="11" style="stroke: #A80036; stroke-width: 1.0;"/><path d="M23.9688,55.1406 Q23.3906,55.4375 22.75,55.5781 Q22.1094,55.7344 21.4063,55.7344 Q18.9063,55.7344 17.5781,54.0938 Q16.2656,52.4375 16.2656,49.3125 Q16.2656,46.1875 17.5781,44.5313 Q18.9063,42.875 21.4063,42.875 Q22.1094,42.875 22.75,43.0313 Q23.4063,43.1875 23.9688,43.4844 L23.9688,46.2031 Q23.3438,45.625 22.75,45.3594 Q22.1563,45.0781 21.5313,45.0781 Q20.1875,45.0781 19.5,46.1563 Q18.8125,47.2188 18.8125,49.3125 Q18.8125,51.4063 19.5,52.4844 Q20.1875,53.5469 21.5313,53.5469 Q22.1563,53.5469 22.75,53.2813 Q23.3438,53 23.9688,52.4219 L23.9688,55.1406 Z "/><text fill="#000000" font-family="sans-serif" font-size="12" lengthAdjust="spacingAndGlyphs" textLength="35" x="35" y="53.6543">Client</text><line style="stroke: #A80036; stroke-width: 1.5;" x1="7" x2="72" y1="65.5" y2="65.5"/><line style="stroke: #A80036; stroke-width: 1.5;" x1="7" x2="72" y1="73.5" y2="73.5"/><!--MD5=[9b7c9913e3d232164375e58cb5fd816d]
reverse link AbstractClass to ConcreteClassA--><path d="M141.56,124.55 C132.86,138.95 123.88,153.8 115.92,166.95 " fill="none" id="AbstractClass&lt;-ConcreteClassA" style="stroke: #A80036; stroke-width: 1.0;"/><polygon fill="none" points="135.62,120.86,151.95,107.36,147.6,128.1,135.62,120.86" style="stroke: #A80036; stroke-width: 1.0;"/><!--MD5=[d1d739f5d087c3263cf7663616b63789]
reverse link AbstractClass to ConcreteClassB--><path d="M221,124.55 C229.61,138.95 238.49,153.8 246.36,166.95 " fill="none" id="AbstractClass&lt;-ConcreteClassB" style="stroke: #A80036; stroke-width: 1.0;"/><polygon fill="none" points="214.98,128.12,210.72,107.36,226.99,120.94,214.98,128.12" style="stroke: #A80036; stroke-width: 1.0;"/><!--MD5=[b7357b456d99675fa8293a5ec1fce5bb]
link Client to AbstractClass--><path d="M73.06,57.5 C83.04,57.5 93.02,57.5 103,57.5 " fill="none" id="Client-&gt;AbstractClass" style="stroke: #A80036; stroke-width: 1.0;"/><polygon fill="#A80036" points="108.22,57.5,99.22,53.5,103.22,57.5,99.22,61.5,108.22,57.5" style="stroke: #A80036; stroke-width: 1.0;"/><!--MD5=[88b1fd1a7f5e253f97ce383e41417dde]
@startuml template-method-schema
class AbstractClass{
    +templateMethod()
    {abstract}#primitiveOperation1()
    {abstract}#primitiveOperation2()
    {abstract}#primitiveOperation3()
}

note right of AbstractClass
  templateMethod(){
      primitiveOperation1();
      primitiveOperation2();
      primitiveOperation3();
  }
end note

class ConcreteClassA{
    #primitiveOperation1()
    #primitiveOperation2()
    #primitiveOperation3()
}

class ConcreteClassB{
    #primitiveOperation1()
    #primitiveOperation2()
    #primitiveOperation3()
}

AbstractClass <|-down- ConcreteClassA
AbstractClass <|-down- ConcreteClassB

class Client

Client -right-> AbstractClass
@enduml

PlantUML version 1.2020.10(Sun May 17 11:35:57 CEST 2020)
(GPL source distribution)
Java Runtime: OpenJDK Runtime Environment
JVM: OpenJDK 64-Bit Server VM
Java Version: 14.0.1+7-Ubuntu-1ubuntu1
Operating System: Linux
Default Encoding: UTF-8
Language: en
Country: US
--></g></svg>