<?xml version="1.0" encoding="UTF-8" standalone="no"?><svg xmlns="http://www.w3.org/2000/svg" xmlns:xlink="http://www.w3.org/1999/xlink" contentScriptType="application/ecmascript" contentStyleType="text/css" height="303px" preserveAspectRatio="none" style="width:432px;height:303px;" version="1.1" viewBox="0 0 432 303" width="432px" zoomAndPan="magnify"><defs><filter height="300%" id="f2ki8nlap6j5u" width="300%" x="-1" y="-1"><feGaussianBlur result="blurOut" stdDeviation="2.0"/><feColorMatrix in="blurOut" result="blurOut2" type="matrix" values="0 0 0 0 0 0 0 0 0 0 0 0 0 0 0 0 0 0 .4 0"/><feOffset dx="4.0" dy="4.0" in="blurOut2" result="blurOut3"/><feBlend in="SourceGraphic" in2="blurOut3" mode="normal"/></filter></defs><g><!--MD5=[54a91fb0c559b46a6e5f61b29a0567b3]
class CaffeineBeverageWithHook--><rect fill="#FEFECE" filter="url(#f2ki8nlap6j5u)" height="124.8281" id="CaffeineBeverageWithHook" style="stroke: #A80036; stroke-width: 1.5;" width="201" x="113.5" y="8"/><ellipse cx="128.5" cy="24" fill="#ADD1B2" rx="11" ry="11" style="stroke: #A80036; stroke-width: 1.0;"/><path d="M131.4688,29.6406 Q130.8906,29.9375 130.25,30.0781 Q129.6094,30.2344 128.9063,30.2344 Q126.4063,30.2344 125.0781,28.5938 Q123.7656,26.9375 123.7656,23.8125 Q123.7656,20.6875 125.0781,19.0313 Q126.4063,17.375 128.9063,17.375 Q129.6094,17.375 130.25,17.5313 Q130.9063,17.6875 131.4688,17.9844 L131.4688,20.7031 Q130.8438,20.125 130.25,19.8594 Q129.6563,19.5781 129.0313,19.5781 Q127.6875,19.5781 127,20.6563 Q126.3125,21.7188 126.3125,23.8125 Q126.3125,25.9063 127,26.9844 Q127.6875,28.0469 129.0313,28.0469 Q129.6563,28.0469 130.25,27.7813 Q130.8438,27.5 131.4688,26.9219 L131.4688,29.6406 Z "/><text fill="#000000" font-family="sans-serif" font-size="12" lengthAdjust="spacingAndGlyphs" textLength="169" x="142.5" y="28.1543">CaffeineBeverageWithHook</text><line style="stroke: #A80036; stroke-width: 1.5;" x1="114.5" x2="313.5" y1="40" y2="40"/><line style="stroke: #A80036; stroke-width: 1.5;" x1="114.5" x2="313.5" y1="48" y2="48"/><ellipse cx="124.5" cy="59" fill="#84BE84" rx="3" ry="3" style="stroke: #038048; stroke-width: 1.0;"/><text fill="#000000" font-family="sans-serif" font-size="11" lengthAdjust="spacingAndGlyphs" textLength="97" x="133.5" y="62.2104">prepareReceipe()</text><ellipse cx="124.5" cy="71.8047" fill="#84BE84" rx="3" ry="3" style="stroke: #038048; stroke-width: 1.0;"/><text fill="#000000" font-family="sans-serif" font-size="11" font-style="italic" lengthAdjust="spacingAndGlyphs" textLength="36" x="133.5" y="75.0151">brew()</text><ellipse cx="124.5" cy="84.6094" fill="#84BE84" rx="3" ry="3" style="stroke: #038048; stroke-width: 1.0;"/><text fill="#000000" font-family="sans-serif" font-size="11" font-style="italic" lengthAdjust="spacingAndGlyphs" textLength="97" x="133.5" y="87.8198">addCondiments()</text><ellipse cx="124.5" cy="97.4141" fill="#84BE84" rx="3" ry="3" style="stroke: #038048; stroke-width: 1.0;"/><text fill="#000000" font-family="sans-serif" font-size="11" lengthAdjust="spacingAndGlyphs" textLength="60" x="133.5" y="100.6245">boilWater()</text><ellipse cx="124.5" cy="110.2188" fill="#84BE84" rx="3" ry="3" style="stroke: #038048; stroke-width: 1.0;"/><text fill="#000000" font-family="sans-serif" font-size="11" lengthAdjust="spacingAndGlyphs" textLength="66" x="133.5" y="113.4292">pourInCup()</text><ellipse cx="124.5" cy="123.0234" fill="#84BE84" rx="3" ry="3" style="stroke: #038048; stroke-width: 1.0;"/><text fill="#000000" font-family="sans-serif" font-size="11" lengthAdjust="spacingAndGlyphs" textLength="164" x="133.5" y="126.2339">customerWantsCondiments()</text><!--MD5=[8c318fb78e2bac03b9e0a9e864591e98]
class CoffeeWithHook--><rect fill="#FEFECE" filter="url(#f2ki8nlap6j5u)" height="99.2188" id="CoffeeWithHook" style="stroke: #A80036; stroke-width: 1.5;" width="190" x="6" y="193"/><ellipse cx="47.55" cy="209" fill="#ADD1B2" rx="11" ry="11" style="stroke: #A80036; stroke-width: 1.0;"/><path d="M50.5188,214.6406 Q49.9406,214.9375 49.3,215.0781 Q48.6594,215.2344 47.9563,215.2344 Q45.4563,215.2344 44.1281,213.5938 Q42.8156,211.9375 42.8156,208.8125 Q42.8156,205.6875 44.1281,204.0313 Q45.4563,202.375 47.9563,202.375 Q48.6594,202.375 49.3,202.5313 Q49.9563,202.6875 50.5188,202.9844 L50.5188,205.7031 Q49.8938,205.125 49.3,204.8594 Q48.7063,204.5781 48.0813,204.5781 Q46.7375,204.5781 46.05,205.6563 Q45.3625,206.7188 45.3625,208.8125 Q45.3625,210.9063 46.05,211.9844 Q46.7375,213.0469 48.0813,213.0469 Q48.7063,213.0469 49.3,212.7813 Q49.8938,212.5 50.5188,211.9219 L50.5188,214.6406 Z "/><text fill="#000000" font-family="sans-serif" font-size="12" lengthAdjust="spacingAndGlyphs" textLength="99" x="67.45" y="213.1543">CoffeeWithHook</text><line style="stroke: #A80036; stroke-width: 1.5;" x1="7" x2="195" y1="225" y2="225"/><line style="stroke: #A80036; stroke-width: 1.5;" x1="7" x2="195" y1="233" y2="233"/><ellipse cx="17" cy="244" fill="#84BE84" rx="3" ry="3" style="stroke: #038048; stroke-width: 1.0;"/><text fill="#000000" font-family="sans-serif" font-size="11" lengthAdjust="spacingAndGlyphs" textLength="36" x="26" y="247.2104">brew()</text><ellipse cx="17" cy="256.8047" fill="#84BE84" rx="3" ry="3" style="stroke: #038048; stroke-width: 1.0;"/><text fill="#000000" font-family="sans-serif" font-size="11" lengthAdjust="spacingAndGlyphs" textLength="97" x="26" y="260.0151">addCondiments()</text><ellipse cx="17" cy="269.6094" fill="#84BE84" rx="3" ry="3" style="stroke: #038048; stroke-width: 1.0;"/><text fill="#000000" font-family="sans-serif" font-size="11" lengthAdjust="spacingAndGlyphs" textLength="164" x="26" y="272.8198">customerWantsCondiments()</text><ellipse cx="17" cy="282.4141" fill="#84BE84" rx="3" ry="3" style="stroke: #038048; stroke-width: 1.0;"/><text fill="#000000" font-family="sans-serif" font-size="11" lengthAdjust="spacingAndGlyphs" textLength="81" x="26" y="285.6245">getUserInput()</text><!--MD5=[c8b03b0ba95c78abe0aef4f8fd70f534]
class TeaWithHook--><rect fill="#FEFECE" filter="url(#f2ki8nlap6j5u)" height="99.2188" id="TeaWithHook" style="stroke: #A80036; stroke-width: 1.5;" width="190" x="231" y="193"/><ellipse cx="280.75" cy="209" fill="#ADD1B2" rx="11" ry="11" style="stroke: #A80036; stroke-width: 1.0;"/><path d="M283.7188,214.6406 Q283.1406,214.9375 282.5,215.0781 Q281.8594,215.2344 281.1563,215.2344 Q278.6563,215.2344 277.3281,213.5938 Q276.0156,211.9375 276.0156,208.8125 Q276.0156,205.6875 277.3281,204.0313 Q278.6563,202.375 281.1563,202.375 Q281.8594,202.375 282.5,202.5313 Q283.1563,202.6875 283.7188,202.9844 L283.7188,205.7031 Q283.0938,205.125 282.5,204.8594 Q281.9063,204.5781 281.2813,204.5781 Q279.9375,204.5781 279.25,205.6563 Q278.5625,206.7188 278.5625,208.8125 Q278.5625,210.9063 279.25,211.9844 Q279.9375,213.0469 281.2813,213.0469 Q281.9063,213.0469 282.5,212.7813 Q283.0938,212.5 283.7188,211.9219 L283.7188,214.6406 Z "/><text fill="#000000" font-family="sans-serif" font-size="12" lengthAdjust="spacingAndGlyphs" textLength="82" x="301.25" y="213.1543">TeaWithHook</text><line style="stroke: #A80036; stroke-width: 1.5;" x1="232" x2="420" y1="225" y2="225"/><line style="stroke: #A80036; stroke-width: 1.5;" x1="232" x2="420" y1="233" y2="233"/><ellipse cx="242" cy="244" fill="#84BE84" rx="3" ry="3" style="stroke: #038048; stroke-width: 1.0;"/><text fill="#000000" font-family="sans-serif" font-size="11" lengthAdjust="spacingAndGlyphs" textLength="36" x="251" y="247.2104">brew()</text><ellipse cx="242" cy="256.8047" fill="#84BE84" rx="3" ry="3" style="stroke: #038048; stroke-width: 1.0;"/><text fill="#000000" font-family="sans-serif" font-size="11" lengthAdjust="spacingAndGlyphs" textLength="97" x="251" y="260.0151">addCondiments()</text><ellipse cx="242" cy="269.6094" fill="#84BE84" rx="3" ry="3" style="stroke: #038048; stroke-width: 1.0;"/><text fill="#000000" font-family="sans-serif" font-size="11" lengthAdjust="spacingAndGlyphs" textLength="164" x="251" y="272.8198">customerWantsCondiments()</text><ellipse cx="242" cy="282.4141" fill="#84BE84" rx="3" ry="3" style="stroke: #038048; stroke-width: 1.0;"/><text fill="#000000" font-family="sans-serif" font-size="11" lengthAdjust="spacingAndGlyphs" textLength="81" x="251" y="285.6245">getUserInput()</text><!--MD5=[ed6624c6556d5e7b1bd23032162d20b7]
class Client--><rect fill="#FEFECE" filter="url(#f2ki8nlap6j5u)" height="48" id="Client" style="stroke: #A80036; stroke-width: 1.5;" width="67" x="11.5" y="46.5"/><ellipse cx="26.5" cy="62.5" fill="#ADD1B2" rx="11" ry="11" style="stroke: #A80036; stroke-width: 1.0;"/><path d="M29.4688,68.1406 Q28.8906,68.4375 28.25,68.5781 Q27.6094,68.7344 26.9063,68.7344 Q24.4063,68.7344 23.0781,67.0938 Q21.7656,65.4375 21.7656,62.3125 Q21.7656,59.1875 23.0781,57.5313 Q24.4063,55.875 26.9063,55.875 Q27.6094,55.875 28.25,56.0313 Q28.9063,56.1875 29.4688,56.4844 L29.4688,59.2031 Q28.8438,58.625 28.25,58.3594 Q27.6563,58.0781 27.0313,58.0781 Q25.6875,58.0781 25,59.1563 Q24.3125,60.2188 24.3125,62.3125 Q24.3125,64.4063 25,65.4844 Q25.6875,66.5469 27.0313,66.5469 Q27.6563,66.5469 28.25,66.2813 Q28.8438,66 29.4688,65.4219 L29.4688,68.1406 Z "/><text fill="#000000" font-family="sans-serif" font-size="12" lengthAdjust="spacingAndGlyphs" textLength="35" x="40.5" y="66.6543">Client</text><line style="stroke: #A80036; stroke-width: 1.5;" x1="12.5" x2="77.5" y1="78.5" y2="78.5"/><line style="stroke: #A80036; stroke-width: 1.5;" x1="12.5" x2="77.5" y1="86.5" y2="86.5"/><!--MD5=[f1616297bb4850f1a449e00998b1f2a3]
reverse link CaffeineBeverageWithHook to CoffeeWithHook--><path d="M161.71,150.17 C152.06,164.68 142.25,179.44 133.41,192.74 " fill="none" id="CaffeineBeverageWithHook&lt;-CoffeeWithHook" style="stroke: #A80036; stroke-width: 1.0;"/><polygon fill="none" points="155.98,146.14,172.88,133.35,167.64,153.89,155.98,146.14" style="stroke: #A80036; stroke-width: 1.0;"/><!--MD5=[127f2611c43cdc06961a23092aa82db0]
reverse link CaffeineBeverageWithHook to TeaWithHook--><path d="M265.83,150.17 C275.39,164.68 285.12,179.44 293.88,192.74 " fill="none" id="CaffeineBeverageWithHook&lt;-TeaWithHook" style="stroke: #A80036; stroke-width: 1.0;"/><polygon fill="none" points="259.91,153.91,254.75,133.35,271.6,146.2,259.91,153.91" style="stroke: #A80036; stroke-width: 1.0;"/><!--MD5=[10ac18217f750197738b9c87545a4bb0]
link Client to CaffeineBeverageWithHook--><path d="M78.67,70.5 C88.5,70.5 98.33,70.5 108.15,70.5 " fill="none" id="Client-&gt;CaffeineBeverageWithHook" style="stroke: #A80036; stroke-width: 1.0;"/><polygon fill="#A80036" points="113.29,70.5,104.29,66.5,108.29,70.5,104.29,74.5,113.29,70.5" style="stroke: #A80036; stroke-width: 1.0;"/><!--MD5=[a5b44c617522bcbfb354dabef222c64a]
@startuml template-method

class CaffeineBeverageWithHook{
    +prepareReceipe()
    {abstract}+brew()
    {abstract}+addCondiments()
    +boilWater()
    +pourInCup()
    +customerWantsCondiments()

}

class CoffeeWithHook{
    +brew()
    +addCondiments()
    +customerWantsCondiments()
    +getUserInput()

}

class TeaWithHook{
    +brew()
    +addCondiments()
    +customerWantsCondiments()
    +getUserInput()
}

CaffeineBeverageWithHook <|-down- CoffeeWithHook
CaffeineBeverageWithHook <|-down- TeaWithHook

class Client

Client -right-> CaffeineBeverageWithHook
@enduml

PlantUML version 1.2020.10(Sun May 17 11:35:57 CEST 2020)
(GPL source distribution)
Java Runtime: OpenJDK Runtime Environment
JVM: OpenJDK 64-Bit Server VM
Java Version: 14.0.1+7-Ubuntu-1ubuntu1
Operating System: Linux
Default Encoding: UTF-8
Language: en
Country: US
--></g></svg>