<?xml version="1.0" encoding="UTF-8" standalone="no"?><svg xmlns="http://www.w3.org/2000/svg" xmlns:xlink="http://www.w3.org/1999/xlink" contentScriptType="application/ecmascript" contentStyleType="text/css" height="336px" preserveAspectRatio="none" style="width:1070px;height:336px;" version="1.1" viewBox="0 0 1070 336" width="1070px" zoomAndPan="magnify"><defs><filter height="300%" id="f10zubta0o523k" width="300%" x="-1" y="-1"><feGaussianBlur result="blurOut" stdDeviation="2.0"/><feColorMatrix in="blurOut" result="blurOut2" type="matrix" values="0 0 0 0 0 0 0 0 0 0 0 0 0 0 0 0 0 0 .4 0"/><feOffset dx="4.0" dy="4.0" in="blurOut2" result="blurOut3"/><feBlend in="SourceGraphic" in2="blurOut3" mode="normal"/></filter></defs><g><!--MD5=[af677bcdc2bb09b4f404821b519a80a1]
class FlyBehavior--><rect fill="#FEFECE" filter="url(#f10zubta0o523k)" height="60.8047" id="FlyBehavior" style="stroke: #A80036; stroke-width: 1.5;" width="102" x="690" y="99.5"/><ellipse cx="705" cy="115.5" fill="#A9DCDF" rx="11" ry="11" style="stroke: #A80036; stroke-width: 1.0;"/><path d="M705.1094,110.8438 L703.9531,115.9219 L706.2813,115.9219 L705.1094,110.8438 Z M703.625,108.6094 L706.6094,108.6094 L709.9688,121 L707.5156,121 L706.75,117.9375 L703.4688,117.9375 L702.7188,121 L700.2813,121 L703.625,108.6094 Z "/><text fill="#000000" font-family="sans-serif" font-size="12" font-style="italic" lengthAdjust="spacingAndGlyphs" textLength="70" x="719" y="119.6543">FlyBehavior</text><line style="stroke: #A80036; stroke-width: 1.5;" x1="691" x2="791" y1="131.5" y2="131.5"/><line style="stroke: #A80036; stroke-width: 1.5;" x1="691" x2="791" y1="139.5" y2="139.5"/><text fill="#000000" font-family="sans-serif" font-size="11" lengthAdjust="spacingAndGlyphs" textLength="21" x="696" y="153.7104">fly()</text><!--MD5=[4b23d2805c144888dfba661554d654ab]
class FlyWithWings--><rect fill="#FEFECE" filter="url(#f10zubta0o523k)" height="60.8047" id="FlyWithWings" style="stroke: #A80036; stroke-width: 1.5;" width="112" x="822" y="265"/><ellipse cx="837" cy="281" fill="#ADD1B2" rx="11" ry="11" style="stroke: #A80036; stroke-width: 1.0;"/><path d="M839.9688,286.6406 Q839.3906,286.9375 838.75,287.0781 Q838.1094,287.2344 837.4063,287.2344 Q834.9063,287.2344 833.5781,285.5938 Q832.2656,283.9375 832.2656,280.8125 Q832.2656,277.6875 833.5781,276.0313 Q834.9063,274.375 837.4063,274.375 Q838.1094,274.375 838.75,274.5313 Q839.4063,274.6875 839.9688,274.9844 L839.9688,277.7031 Q839.3438,277.125 838.75,276.8594 Q838.1563,276.5781 837.5313,276.5781 Q836.1875,276.5781 835.5,277.6563 Q834.8125,278.7188 834.8125,280.8125 Q834.8125,282.9063 835.5,283.9844 Q836.1875,285.0469 837.5313,285.0469 Q838.1563,285.0469 838.75,284.7813 Q839.3438,284.5 839.9688,283.9219 L839.9688,286.6406 Z "/><text fill="#000000" font-family="sans-serif" font-size="12" lengthAdjust="spacingAndGlyphs" textLength="80" x="851" y="285.1543">FlyWithWings</text><line style="stroke: #A80036; stroke-width: 1.5;" x1="823" x2="933" y1="297" y2="297"/><line style="stroke: #A80036; stroke-width: 1.5;" x1="823" x2="933" y1="305" y2="305"/><text fill="#000000" font-family="sans-serif" font-size="11" lengthAdjust="spacingAndGlyphs" textLength="21" x="828" y="319.2104">fly()</text><!--MD5=[6410b8339a4cc9c91c8268e1c245baa7]
class FlyNoWay--><rect fill="#FEFECE" filter="url(#f10zubta0o523k)" height="60.8047" id="FlyNoWay" style="stroke: #A80036; stroke-width: 1.5;" width="90" x="969" y="265"/><ellipse cx="984" cy="281" fill="#ADD1B2" rx="11" ry="11" style="stroke: #A80036; stroke-width: 1.0;"/><path d="M986.9688,286.6406 Q986.3906,286.9375 985.75,287.0781 Q985.1094,287.2344 984.4063,287.2344 Q981.9063,287.2344 980.5781,285.5938 Q979.2656,283.9375 979.2656,280.8125 Q979.2656,277.6875 980.5781,276.0313 Q981.9063,274.375 984.4063,274.375 Q985.1094,274.375 985.75,274.5313 Q986.4063,274.6875 986.9688,274.9844 L986.9688,277.7031 Q986.3438,277.125 985.75,276.8594 Q985.1563,276.5781 984.5313,276.5781 Q983.1875,276.5781 982.5,277.6563 Q981.8125,278.7188 981.8125,280.8125 Q981.8125,282.9063 982.5,283.9844 Q983.1875,285.0469 984.5313,285.0469 Q985.1563,285.0469 985.75,284.7813 Q986.3438,284.5 986.9688,283.9219 L986.9688,286.6406 Z "/><text fill="#000000" font-family="sans-serif" font-size="12" lengthAdjust="spacingAndGlyphs" textLength="58" x="998" y="285.1543">FlyNoWay</text><line style="stroke: #A80036; stroke-width: 1.5;" x1="970" x2="1058" y1="297" y2="297"/><line style="stroke: #A80036; stroke-width: 1.5;" x1="970" x2="1058" y1="305" y2="305"/><text fill="#000000" font-family="sans-serif" font-size="11" lengthAdjust="spacingAndGlyphs" textLength="21" x="975" y="319.2104">fly()</text><!--MD5=[b4e54c51452771cc7b1b3b91129a78cc]
class FlyRocketPowered--><rect fill="#FEFECE" filter="url(#f10zubta0o523k)" height="60.8047" id="FlyRocketPowered" style="stroke: #A80036; stroke-width: 1.5;" width="145" x="641.5" y="265"/><ellipse cx="656.5" cy="281" fill="#ADD1B2" rx="11" ry="11" style="stroke: #A80036; stroke-width: 1.0;"/><path d="M659.4688,286.6406 Q658.8906,286.9375 658.25,287.0781 Q657.6094,287.2344 656.9063,287.2344 Q654.4063,287.2344 653.0781,285.5938 Q651.7656,283.9375 651.7656,280.8125 Q651.7656,277.6875 653.0781,276.0313 Q654.4063,274.375 656.9063,274.375 Q657.6094,274.375 658.25,274.5313 Q658.9063,274.6875 659.4688,274.9844 L659.4688,277.7031 Q658.8438,277.125 658.25,276.8594 Q657.6563,276.5781 657.0313,276.5781 Q655.6875,276.5781 655,277.6563 Q654.3125,278.7188 654.3125,280.8125 Q654.3125,282.9063 655,283.9844 Q655.6875,285.0469 657.0313,285.0469 Q657.6563,285.0469 658.25,284.7813 Q658.8438,284.5 659.4688,283.9219 L659.4688,286.6406 Z "/><text fill="#000000" font-family="sans-serif" font-size="12" lengthAdjust="spacingAndGlyphs" textLength="113" x="670.5" y="285.1543">FlyRocketPowered</text><line style="stroke: #A80036; stroke-width: 1.5;" x1="642.5" x2="785.5" y1="297" y2="297"/><line style="stroke: #A80036; stroke-width: 1.5;" x1="642.5" x2="785.5" y1="305" y2="305"/><text fill="#000000" font-family="sans-serif" font-size="11" lengthAdjust="spacingAndGlyphs" textLength="21" x="647.5" y="319.2104">fly()</text><!--MD5=[bfa3cda608d0a5fb34213275021c73a4]
class QuackBehavior--><rect fill="#FEFECE" filter="url(#f10zubta0o523k)" height="60.8047" id="QuackBehavior" style="stroke: #A80036; stroke-width: 1.5;" width="125" x="367.5" y="99.5"/><ellipse cx="382.5" cy="115.5" fill="#A9DCDF" rx="11" ry="11" style="stroke: #A80036; stroke-width: 1.0;"/><path d="M382.6094,110.8438 L381.4531,115.9219 L383.7813,115.9219 L382.6094,110.8438 Z M381.125,108.6094 L384.1094,108.6094 L387.4688,121 L385.0156,121 L384.25,117.9375 L380.9688,117.9375 L380.2188,121 L377.7813,121 L381.125,108.6094 Z "/><text fill="#000000" font-family="sans-serif" font-size="12" font-style="italic" lengthAdjust="spacingAndGlyphs" textLength="93" x="396.5" y="119.6543">QuackBehavior</text><line style="stroke: #A80036; stroke-width: 1.5;" x1="368.5" x2="491.5" y1="131.5" y2="131.5"/><line style="stroke: #A80036; stroke-width: 1.5;" x1="368.5" x2="491.5" y1="139.5" y2="139.5"/><text fill="#000000" font-family="sans-serif" font-size="11" lengthAdjust="spacingAndGlyphs" textLength="41" x="373.5" y="153.7104">quack()</text><!--MD5=[12f74b7f21fbdaaa4e00aa09d95ebc8d]
class Quack--><rect fill="#FEFECE" filter="url(#f10zubta0o523k)" height="60.8047" id="Quack" style="stroke: #A80036; stroke-width: 1.5;" width="71" x="421.5" y="265"/><ellipse cx="436.5" cy="281" fill="#ADD1B2" rx="11" ry="11" style="stroke: #A80036; stroke-width: 1.0;"/><path d="M439.4688,286.6406 Q438.8906,286.9375 438.25,287.0781 Q437.6094,287.2344 436.9063,287.2344 Q434.4063,287.2344 433.0781,285.5938 Q431.7656,283.9375 431.7656,280.8125 Q431.7656,277.6875 433.0781,276.0313 Q434.4063,274.375 436.9063,274.375 Q437.6094,274.375 438.25,274.5313 Q438.9063,274.6875 439.4688,274.9844 L439.4688,277.7031 Q438.8438,277.125 438.25,276.8594 Q437.6563,276.5781 437.0313,276.5781 Q435.6875,276.5781 435,277.6563 Q434.3125,278.7188 434.3125,280.8125 Q434.3125,282.9063 435,283.9844 Q435.6875,285.0469 437.0313,285.0469 Q437.6563,285.0469 438.25,284.7813 Q438.8438,284.5 439.4688,283.9219 L439.4688,286.6406 Z "/><text fill="#000000" font-family="sans-serif" font-size="12" lengthAdjust="spacingAndGlyphs" textLength="39" x="450.5" y="285.1543">Quack</text><line style="stroke: #A80036; stroke-width: 1.5;" x1="422.5" x2="491.5" y1="297" y2="297"/><line style="stroke: #A80036; stroke-width: 1.5;" x1="422.5" x2="491.5" y1="305" y2="305"/><text fill="#000000" font-family="sans-serif" font-size="11" lengthAdjust="spacingAndGlyphs" textLength="41" x="427.5" y="319.2104">quack()</text><!--MD5=[68875e4d113dd0341b461c1461159522]
class Squeak--><rect fill="#FEFECE" filter="url(#f10zubta0o523k)" height="60.8047" id="Squeak" style="stroke: #A80036; stroke-width: 1.5;" width="79" x="527.5" y="265"/><ellipse cx="542.5" cy="281" fill="#ADD1B2" rx="11" ry="11" style="stroke: #A80036; stroke-width: 1.0;"/><path d="M545.4688,286.6406 Q544.8906,286.9375 544.25,287.0781 Q543.6094,287.2344 542.9063,287.2344 Q540.4063,287.2344 539.0781,285.5938 Q537.7656,283.9375 537.7656,280.8125 Q537.7656,277.6875 539.0781,276.0313 Q540.4063,274.375 542.9063,274.375 Q543.6094,274.375 544.25,274.5313 Q544.9063,274.6875 545.4688,274.9844 L545.4688,277.7031 Q544.8438,277.125 544.25,276.8594 Q543.6563,276.5781 543.0313,276.5781 Q541.6875,276.5781 541,277.6563 Q540.3125,278.7188 540.3125,280.8125 Q540.3125,282.9063 541,283.9844 Q541.6875,285.0469 543.0313,285.0469 Q543.6563,285.0469 544.25,284.7813 Q544.8438,284.5 545.4688,283.9219 L545.4688,286.6406 Z "/><text fill="#000000" font-family="sans-serif" font-size="12" lengthAdjust="spacingAndGlyphs" textLength="47" x="556.5" y="285.1543">Squeak</text><line style="stroke: #A80036; stroke-width: 1.5;" x1="528.5" x2="605.5" y1="297" y2="297"/><line style="stroke: #A80036; stroke-width: 1.5;" x1="528.5" x2="605.5" y1="305" y2="305"/><text fill="#000000" font-family="sans-serif" font-size="11" lengthAdjust="spacingAndGlyphs" textLength="41" x="533.5" y="319.2104">quack()</text><!--MD5=[432568b0773d3e78a5ae34e34696d249]
class MuteQuack--><rect fill="#FEFECE" filter="url(#f10zubta0o523k)" height="60.8047" id="MuteQuack" style="stroke: #A80036; stroke-width: 1.5;" width="102" x="284" y="265"/><ellipse cx="299" cy="281" fill="#ADD1B2" rx="11" ry="11" style="stroke: #A80036; stroke-width: 1.0;"/><path d="M301.9688,286.6406 Q301.3906,286.9375 300.75,287.0781 Q300.1094,287.2344 299.4063,287.2344 Q296.9063,287.2344 295.5781,285.5938 Q294.2656,283.9375 294.2656,280.8125 Q294.2656,277.6875 295.5781,276.0313 Q296.9063,274.375 299.4063,274.375 Q300.1094,274.375 300.75,274.5313 Q301.4063,274.6875 301.9688,274.9844 L301.9688,277.7031 Q301.3438,277.125 300.75,276.8594 Q300.1563,276.5781 299.5313,276.5781 Q298.1875,276.5781 297.5,277.6563 Q296.8125,278.7188 296.8125,280.8125 Q296.8125,282.9063 297.5,283.9844 Q298.1875,285.0469 299.5313,285.0469 Q300.1563,285.0469 300.75,284.7813 Q301.3438,284.5 301.9688,283.9219 L301.9688,286.6406 Z "/><text fill="#000000" font-family="sans-serif" font-size="12" lengthAdjust="spacingAndGlyphs" textLength="70" x="313" y="285.1543">MuteQuack</text><line style="stroke: #A80036; stroke-width: 1.5;" x1="285" x2="385" y1="297" y2="297"/><line style="stroke: #A80036; stroke-width: 1.5;" x1="285" x2="385" y1="305" y2="305"/><text fill="#000000" font-family="sans-serif" font-size="11" lengthAdjust="spacingAndGlyphs" textLength="41" x="290" y="319.2104">quack()</text><!--MD5=[ee80f128756adf0e95ba2af8ad3ecb8c]
class Duck--><rect fill="#FEFECE" filter="url(#f10zubta0o523k)" height="150.4375" id="Duck" style="stroke: #A80036; stroke-width: 1.5;" width="137" x="170.5" y="55"/><ellipse cx="219.25" cy="71" fill="#A9DCDF" rx="11" ry="11" style="stroke: #A80036; stroke-width: 1.0;"/><path d="M219.3594,66.3438 L218.2031,71.4219 L220.5313,71.4219 L219.3594,66.3438 Z M217.875,64.1094 L220.8594,64.1094 L224.2188,76.5 L221.7656,76.5 L221,73.4375 L217.7188,73.4375 L216.9688,76.5 L214.5313,76.5 L217.875,64.1094 Z "/><text fill="#000000" font-family="sans-serif" font-size="12" font-style="italic" lengthAdjust="spacingAndGlyphs" textLength="31" x="239.75" y="75.1543">Duck</text><line style="stroke: #A80036; stroke-width: 1.5;" x1="171.5" x2="306.5" y1="87" y2="87"/><rect fill="none" height="6" style="stroke: #C82930; stroke-width: 1.0;" width="6" x="178.5" y="95"/><text fill="#000000" font-family="sans-serif" font-size="11" lengthAdjust="spacingAndGlyphs" textLength="89" x="190.5" y="101.2104">quackBehavior_</text><rect fill="none" height="6" style="stroke: #C82930; stroke-width: 1.0;" width="6" x="178.5" y="107.8047"/><text fill="#000000" font-family="sans-serif" font-size="11" lengthAdjust="spacingAndGlyphs" textLength="69" x="190.5" y="114.0151">flyBehavior_</text><line style="stroke: #A80036; stroke-width: 1.5;" x1="171.5" x2="306.5" y1="120.6094" y2="120.6094"/><ellipse cx="181.5" cy="131.6094" fill="#84BE84" rx="3" ry="3" style="stroke: #038048; stroke-width: 1.0;"/><text fill="#000000" font-family="sans-serif" font-size="11" lengthAdjust="spacingAndGlyphs" textLength="38" x="190.5" y="134.8198">swim()</text><ellipse cx="181.5" cy="144.4141" fill="#84BE84" rx="3" ry="3" style="stroke: #038048; stroke-width: 1.0;"/><text fill="#000000" font-family="sans-serif" font-size="11" lengthAdjust="spacingAndGlyphs" textLength="48" x="190.5" y="147.6245">display()</text><ellipse cx="181.5" cy="157.2188" fill="#84BE84" rx="3" ry="3" style="stroke: #038048; stroke-width: 1.0;"/><text fill="#000000" font-family="sans-serif" font-size="11" lengthAdjust="spacingAndGlyphs" textLength="89" x="190.5" y="160.4292">performQuack()</text><ellipse cx="181.5" cy="170.0234" fill="#84BE84" rx="3" ry="3" style="stroke: #038048; stroke-width: 1.0;"/><text fill="#000000" font-family="sans-serif" font-size="11" lengthAdjust="spacingAndGlyphs" textLength="69" x="190.5" y="173.2339">performFly()</text><ellipse cx="181.5" cy="182.8281" fill="#84BE84" rx="3" ry="3" style="stroke: #038048; stroke-width: 1.0;"/><text fill="#000000" font-family="sans-serif" font-size="11" lengthAdjust="spacingAndGlyphs" textLength="111" x="190.5" y="186.0386">setQuackBehavior()</text><ellipse cx="181.5" cy="195.6328" fill="#84BE84" rx="3" ry="3" style="stroke: #038048; stroke-width: 1.0;"/><text fill="#000000" font-family="sans-serif" font-size="11" lengthAdjust="spacingAndGlyphs" textLength="91" x="190.5" y="198.8433">setFlyBehavior()</text><!--MD5=[3514eda1f9578311a848538d86a3af13]
class MallardDuck--><rect fill="#FEFECE" filter="url(#f10zubta0o523k)" height="60.8047" id="MallardDuck" style="stroke: #A80036; stroke-width: 1.5;" width="108" x="6" y="265"/><ellipse cx="21" cy="281" fill="#ADD1B2" rx="11" ry="11" style="stroke: #A80036; stroke-width: 1.0;"/><path d="M23.9688,286.6406 Q23.3906,286.9375 22.75,287.0781 Q22.1094,287.2344 21.4063,287.2344 Q18.9063,287.2344 17.5781,285.5938 Q16.2656,283.9375 16.2656,280.8125 Q16.2656,277.6875 17.5781,276.0313 Q18.9063,274.375 21.4063,274.375 Q22.1094,274.375 22.75,274.5313 Q23.4063,274.6875 23.9688,274.9844 L23.9688,277.7031 Q23.3438,277.125 22.75,276.8594 Q22.1563,276.5781 21.5313,276.5781 Q20.1875,276.5781 19.5,277.6563 Q18.8125,278.7188 18.8125,280.8125 Q18.8125,282.9063 19.5,283.9844 Q20.1875,285.0469 21.5313,285.0469 Q22.1563,285.0469 22.75,284.7813 Q23.3438,284.5 23.9688,283.9219 L23.9688,286.6406 Z "/><text fill="#000000" font-family="sans-serif" font-size="12" lengthAdjust="spacingAndGlyphs" textLength="76" x="35" y="285.1543">MallardDuck</text><line style="stroke: #A80036; stroke-width: 1.5;" x1="7" x2="113" y1="297" y2="297"/><line style="stroke: #A80036; stroke-width: 1.5;" x1="7" x2="113" y1="305" y2="305"/><ellipse cx="17" cy="316" fill="#84BE84" rx="3" ry="3" style="stroke: #038048; stroke-width: 1.0;"/><text fill="#000000" font-family="sans-serif" font-size="11" lengthAdjust="spacingAndGlyphs" textLength="48" x="26" y="319.2104">display()</text><!--MD5=[d26504b880a8d6928f5f5ecaacc23f32]
class ModelDuck--><rect fill="#FEFECE" filter="url(#f10zubta0o523k)" height="60.8047" id="ModelDuck" style="stroke: #A80036; stroke-width: 1.5;" width="100" x="149" y="265"/><ellipse cx="164" cy="281" fill="#ADD1B2" rx="11" ry="11" style="stroke: #A80036; stroke-width: 1.0;"/><path d="M166.9688,286.6406 Q166.3906,286.9375 165.75,287.0781 Q165.1094,287.2344 164.4063,287.2344 Q161.9063,287.2344 160.5781,285.5938 Q159.2656,283.9375 159.2656,280.8125 Q159.2656,277.6875 160.5781,276.0313 Q161.9063,274.375 164.4063,274.375 Q165.1094,274.375 165.75,274.5313 Q166.4063,274.6875 166.9688,274.9844 L166.9688,277.7031 Q166.3438,277.125 165.75,276.8594 Q165.1563,276.5781 164.5313,276.5781 Q163.1875,276.5781 162.5,277.6563 Q161.8125,278.7188 161.8125,280.8125 Q161.8125,282.9063 162.5,283.9844 Q163.1875,285.0469 164.5313,285.0469 Q165.1563,285.0469 165.75,284.7813 Q166.3438,284.5 166.9688,283.9219 L166.9688,286.6406 Z "/><text fill="#000000" font-family="sans-serif" font-size="12" lengthAdjust="spacingAndGlyphs" textLength="68" x="178" y="285.1543">ModelDuck</text><line style="stroke: #A80036; stroke-width: 1.5;" x1="150" x2="248" y1="297" y2="297"/><line style="stroke: #A80036; stroke-width: 1.5;" x1="150" x2="248" y1="305" y2="305"/><ellipse cx="160" cy="316" fill="#84BE84" rx="3" ry="3" style="stroke: #038048; stroke-width: 1.0;"/><text fill="#000000" font-family="sans-serif" font-size="11" lengthAdjust="spacingAndGlyphs" textLength="48" x="169" y="319.2104">display()</text><!--MD5=[691bb5ffc514708e8a0800ab5862511f]
class DuckCall--><rect fill="#FEFECE" filter="url(#f10zubta0o523k)" height="73.6094" id="DuckCall" style="stroke: #A80036; stroke-width: 1.5;" width="115" x="527.5" y="93"/><ellipse cx="556" cy="109" fill="#ADD1B2" rx="11" ry="11" style="stroke: #A80036; stroke-width: 1.0;"/><path d="M558.9688,114.6406 Q558.3906,114.9375 557.75,115.0781 Q557.1094,115.2344 556.4063,115.2344 Q553.9063,115.2344 552.5781,113.5938 Q551.2656,111.9375 551.2656,108.8125 Q551.2656,105.6875 552.5781,104.0313 Q553.9063,102.375 556.4063,102.375 Q557.1094,102.375 557.75,102.5313 Q558.4063,102.6875 558.9688,102.9844 L558.9688,105.7031 Q558.3438,105.125 557.75,104.8594 Q557.1563,104.5781 556.5313,104.5781 Q555.1875,104.5781 554.5,105.6563 Q553.8125,106.7188 553.8125,108.8125 Q553.8125,110.9063 554.5,111.9844 Q555.1875,113.0469 556.5313,113.0469 Q557.1563,113.0469 557.75,112.7813 Q558.3438,112.5 558.9688,111.9219 L558.9688,114.6406 Z "/><text fill="#000000" font-family="sans-serif" font-size="12" lengthAdjust="spacingAndGlyphs" textLength="53" x="573" y="113.1543">DuckCall</text><line style="stroke: #A80036; stroke-width: 1.5;" x1="528.5" x2="641.5" y1="125" y2="125"/><rect fill="none" height="6" style="stroke: #C82930; stroke-width: 1.0;" width="6" x="535.5" y="133"/><text fill="#000000" font-family="sans-serif" font-size="11" lengthAdjust="spacingAndGlyphs" textLength="89" x="547.5" y="139.2104">quackBehavior_</text><line style="stroke: #A80036; stroke-width: 1.5;" x1="528.5" x2="641.5" y1="145.8047" y2="145.8047"/><ellipse cx="538.5" cy="156.8047" fill="#84BE84" rx="3" ry="3" style="stroke: #038048; stroke-width: 1.0;"/><text fill="#000000" font-family="sans-serif" font-size="11" lengthAdjust="spacingAndGlyphs" textLength="89" x="547.5" y="160.0151">performQuack()</text><!--MD5=[7b9ca3f548166b0df550cb500f51b1ea]
reverse link FlyBehavior to FlyWithWings--><path d="M778.93,176.27 C802.62,204.54 832.44,240.13 853.14,264.84 " fill="none" id="FlyBehavior&lt;-FlyWithWings" style="stroke: #A80036; stroke-width: 1.0; stroke-dasharray: 7.0,7.0;"/><polygon fill="none" points="773.29,180.43,765.81,160.61,784.02,171.44,773.29,180.43" style="stroke: #A80036; stroke-width: 1.0;"/><!--MD5=[53e7f5881092792bc8176dd5d8b30cdf]
reverse link FlyBehavior to FlyNoWay--><path d="M807.66,170.92 C857.61,200.84 924.64,240.98 968.56,267.28 " fill="none" id="FlyBehavior&lt;-FlyNoWay" style="stroke: #A80036; stroke-width: 1.0; stroke-dasharray: 7.0,7.0;"/><polygon fill="none" points="804,176.89,790.44,160.61,811.19,164.88,804,176.89" style="stroke: #A80036; stroke-width: 1.0;"/><!--MD5=[0de652ba12782e0de024071d6cad59c3]
reverse link FlyBehavior to FlyRocketPowered--><path d="M732.8,180.68 C728.26,208.17 722.77,241.4 718.9,264.84 " fill="none" id="FlyBehavior&lt;-FlyRocketPowered" style="stroke: #A80036; stroke-width: 1.0; stroke-dasharray: 7.0,7.0;"/><polygon fill="none" points="725.95,179.2,736.11,160.61,739.76,181.48,725.95,179.2" style="stroke: #A80036; stroke-width: 1.0;"/><!--MD5=[01c90da2bc64604ecacbeeddf2144a3c]
reverse link QuackBehavior to Quack--><path d="M438.2,180.68 C442.74,208.17 448.23,241.4 452.1,264.84 " fill="none" id="QuackBehavior&lt;-Quack" style="stroke: #A80036; stroke-width: 1.0; stroke-dasharray: 7.0,7.0;"/><polygon fill="none" points="431.24,181.48,434.89,160.61,445.05,179.2,431.24,181.48" style="stroke: #A80036; stroke-width: 1.0;"/><!--MD5=[18a62fce590314fe2943d358430f6ee1]
reverse link QuackBehavior to Squeak--><path d="M467.93,176.27 C491.62,204.54 521.44,240.13 542.14,264.84 " fill="none" id="QuackBehavior&lt;-Squeak" style="stroke: #A80036; stroke-width: 1.0; stroke-dasharray: 7.0,7.0;"/><polygon fill="none" points="462.29,180.43,454.81,160.61,473.02,171.44,462.29,180.43" style="stroke: #A80036; stroke-width: 1.0;"/><!--MD5=[23f42304ecdb2b0cc8730a9be7f75a88]
reverse link QuackBehavior to MuteQuack--><path d="M402.54,178.26 C386.31,206.19 366.26,240.7 352.24,264.84 " fill="none" id="QuackBehavior&lt;-MuteQuack" style="stroke: #A80036; stroke-width: 1.0; stroke-dasharray: 7.0,7.0;"/><polygon fill="none" points="396.7,174.38,412.8,160.61,408.8,181.42,396.7,174.38" style="stroke: #A80036; stroke-width: 1.0;"/><!--MD5=[3c43aaba1bcb709f21d901b643211f5f]
reverse link Duck to FlyBehavior--><path d="M317.98,51.95 C333.32,40.91 350.08,31.21 367.5,25 C425.06,4.47 586.42,0.72 642.5,25 C677.25,40.05 705.37,74.06 722.53,99.32 " fill="none" id="Duck&lt;-FlyBehavior" style="stroke: #A80036; stroke-width: 1.0;"/><polygon fill="#A80036" points="307.6,59.79,314.7984,59.3615,317.1714,52.5521,309.9731,52.9806,307.6,59.79" style="stroke: #A80036; stroke-width: 1.0;"/><!--MD5=[92a3da5dc87232bb0d9775481720701e]
reverse link Duck to QuackBehavior--><path d="M320.71,130 C336.27,130 351.83,130 367.39,130 " fill="none" id="Duck&lt;-QuackBehavior" style="stroke: #A80036; stroke-width: 1.0;"/><polygon fill="#A80036" points="307.64,130,313.64,134,319.64,130,313.64,126,307.64,130" style="stroke: #A80036; stroke-width: 1.0;"/><!--MD5=[159436838e19738a864c00c1f703c8cc]
link QuackBehavior to DuckCall--><path d="M492.67,130 C499.79,130 506.91,130 514.04,130 " fill="none" id="QuackBehavior-&gt;DuckCall" style="stroke: #A80036; stroke-width: 1.0;"/><polygon fill="#A80036" points="527.29,130,521.29,126,515.29,130,521.29,134,527.29,130" style="stroke: #A80036; stroke-width: 1.0;"/><!--MD5=[9e6b36c82301a4b445229ba9614207d2]
reverse link Duck to MallardDuck--><path d="M155.33,207.42 C132.93,227.88 110.05,248.79 92.31,264.99 " fill="none" id="Duck&lt;-MallardDuck" style="stroke: #A80036; stroke-width: 1.0;"/><polygon fill="none" points="150.82,202.07,170.31,193.75,160.26,212.4,150.82,202.07" style="stroke: #A80036; stroke-width: 1.0;"/><!--MD5=[ff2a2495914964b27e156fcb9f792188]
reverse link Duck to ModelDuck--><path d="M216.02,224.93 C212.49,239.36 209.09,253.28 206.26,264.82 " fill="none" id="Duck&lt;-ModelDuck" style="stroke: #A80036; stroke-width: 1.0;"/><polygon fill="none" points="209.32,222.86,220.87,205.1,222.92,226.19,209.32,222.86" style="stroke: #A80036; stroke-width: 1.0;"/><!--MD5=[399adb8f908394b84ddab3248e7f6731]
@startuml strategy

abstract class FlyBehavior{
    fly()
}

class FlyWithWings{
    fly()
}

class FlyNoWay{
    fly()
}

class FlyRocketPowered{
    fly()
}


abstract class QuackBehavior{
    quack()
}

class Quack{
    quack()
}

class Squeak{
    quack()
}

class MuteQuack{
    quack()
}


abstract class Duck{
    -quackBehavior_
    -flyBehavior_
    +swim()
    +display()
    +performQuack()
    +performFly()
    +setQuackBehavior()
    +setFlyBehavior()
}

class MallardDuck{
    +display()
}

class ModelDuck{
    +display()
}

class DuckCall{
    -quackBehavior_
    +performQuack()

}

FlyBehavior <|.. FlyWithWings
FlyBehavior <|.. FlyNoWay
FlyBehavior <|.. FlyRocketPowered

QuackBehavior <|.. Quack
QuackBehavior <|.. Squeak
QuackBehavior <|.. MuteQuack

Duck *- FlyBehavior
Duck *- QuackBehavior

QuackBehavior -* DuckCall

Duck <|- - MallardDuck
Duck <|- - ModelDuck

@enduml strategy

PlantUML version 1.2020.10(Sun May 17 11:35:57 CEST 2020)
(GPL source distribution)
Java Runtime: OpenJDK Runtime Environment
JVM: OpenJDK 64-Bit Server VM
Java Version: 1.8.0_252-8u252-b09-1ubuntu1-b09
Operating System: Linux
Default Encoding: UTF-8
Language: en
Country: US
--></g></svg>