<?xml version="1.0" encoding="UTF-8" standalone="no"?><svg xmlns="http://www.w3.org/2000/svg" xmlns:xlink="http://www.w3.org/1999/xlink" contentScriptType="application/ecmascript" contentStyleType="text/css" height="482px" preserveAspectRatio="none" style="width:795px;height:482px;" version="1.1" viewBox="0 0 795 482" width="795px" zoomAndPan="magnify"><defs><filter height="300%" id="f17i4bm7wiz38f" width="300%" x="-1" y="-1"><feGaussianBlur result="blurOut" stdDeviation="2.0"/><feColorMatrix in="blurOut" result="blurOut2" type="matrix" values="0 0 0 0 0 0 0 0 0 0 0 0 0 0 0 0 0 0 .4 0"/><feOffset dx="4.0" dy="4.0" in="blurOut2" result="blurOut3"/><feBlend in="SourceGraphic" in2="blurOut3" mode="normal"/></filter></defs><g><!--MD5=[60d6b92408f98aed8df94d5c6e04aa63]
class State--><rect fill="#FEFECE" filter="url(#f17i4bm7wiz38f)" height="99.2188" id="State" style="stroke: #A80036; stroke-width: 1.5;" width="111" x="351.5" y="104"/><ellipse cx="386.75" cy="120" fill="#A9DCDF" rx="11" ry="11" style="stroke: #A80036; stroke-width: 1.0;"/><path d="M386.8594,115.3438 L385.7031,120.4219 L388.0313,120.4219 L386.8594,115.3438 Z M385.375,113.1094 L388.3594,113.1094 L391.7188,125.5 L389.2656,125.5 L388.5,122.4375 L385.2188,122.4375 L384.4688,125.5 L382.0313,125.5 L385.375,113.1094 Z "/><text fill="#000000" font-family="sans-serif" font-size="12" font-style="italic" lengthAdjust="spacingAndGlyphs" textLength="34" x="405.25" y="124.1543">State</text><line style="stroke: #A80036; stroke-width: 1.5;" x1="352.5" x2="461.5" y1="136" y2="136"/><line style="stroke: #A80036; stroke-width: 1.5;" x1="352.5" x2="461.5" y1="144" y2="144"/><ellipse cx="362.5" cy="155" fill="#84BE84" rx="3" ry="3" style="stroke: #038048; stroke-width: 1.0;"/><text fill="#000000" font-family="sans-serif" font-size="11" lengthAdjust="spacingAndGlyphs" textLength="85" x="371.5" y="158.2104">insertQuarter()</text><ellipse cx="362.5" cy="167.8047" fill="#84BE84" rx="3" ry="3" style="stroke: #038048; stroke-width: 1.0;"/><text fill="#000000" font-family="sans-serif" font-size="11" lengthAdjust="spacingAndGlyphs" textLength="79" x="371.5" y="171.0151">ejectQuarter()</text><ellipse cx="362.5" cy="180.6094" fill="#84BE84" rx="3" ry="3" style="stroke: #038048; stroke-width: 1.0;"/><text fill="#000000" font-family="sans-serif" font-size="11" lengthAdjust="spacingAndGlyphs" textLength="64" x="371.5" y="183.8198">turnCrank()</text><ellipse cx="362.5" cy="193.4141" fill="#84BE84" rx="3" ry="3" style="stroke: #038048; stroke-width: 1.0;"/><text fill="#000000" font-family="sans-serif" font-size="11" lengthAdjust="spacingAndGlyphs" textLength="60" x="371.5" y="196.6245">dispense()</text><!--MD5=[691f7e336be6026150b6e8c40dd13855]
class GumballMachine--><rect fill="#FEFECE" filter="url(#f17i4bm7wiz38f)" height="291.2891" id="GumballMachine" style="stroke: #A80036; stroke-width: 1.5;" width="155" x="161.5" y="8"/><ellipse cx="185.95" cy="24" fill="#ADD1B2" rx="11" ry="11" style="stroke: #A80036; stroke-width: 1.0;"/><path d="M188.9188,29.6406 Q188.3406,29.9375 187.7,30.0781 Q187.0594,30.2344 186.3563,30.2344 Q183.8563,30.2344 182.5281,28.5938 Q181.2156,26.9375 181.2156,23.8125 Q181.2156,20.6875 182.5281,19.0313 Q183.8563,17.375 186.3563,17.375 Q187.0594,17.375 187.7,17.5313 Q188.3563,17.6875 188.9188,17.9844 L188.9188,20.7031 Q188.2938,20.125 187.7,19.8594 Q187.1063,19.5781 186.4813,19.5781 Q185.1375,19.5781 184.45,20.6563 Q183.7625,21.7188 183.7625,23.8125 Q183.7625,25.9063 184.45,26.9844 Q185.1375,28.0469 186.4813,28.0469 Q187.1063,28.0469 187.7,27.7813 Q188.2938,27.5 188.9188,26.9219 L188.9188,29.6406 Z "/><text fill="#000000" font-family="sans-serif" font-size="12" lengthAdjust="spacingAndGlyphs" textLength="102" x="202.05" y="28.1543">GumballMachine</text><line style="stroke: #A80036; stroke-width: 1.5;" x1="162.5" x2="315.5" y1="40" y2="40"/><rect fill="none" height="6" style="stroke: #C82930; stroke-width: 1.0;" width="6" x="169.5" y="48"/><text fill="#000000" font-family="sans-serif" font-size="11" lengthAdjust="spacingAndGlyphs" textLength="80" x="181.5" y="54.2104">soldOutState_</text><rect fill="none" height="6" style="stroke: #C82930; stroke-width: 1.0;" width="6" x="169.5" y="60.8047"/><text fill="#000000" font-family="sans-serif" font-size="11" lengthAdjust="spacingAndGlyphs" textLength="94" x="181.5" y="67.0151">noQuarterState_</text><rect fill="none" height="6" style="stroke: #C82930; stroke-width: 1.0;" width="6" x="169.5" y="73.6094"/><text fill="#000000" font-family="sans-serif" font-size="11" lengthAdjust="spacingAndGlyphs" textLength="101" x="181.5" y="79.8198">hasQuarterState_</text><rect fill="none" height="6" style="stroke: #C82930; stroke-width: 1.0;" width="6" x="169.5" y="86.4141"/><text fill="#000000" font-family="sans-serif" font-size="11" lengthAdjust="spacingAndGlyphs" textLength="60" x="181.5" y="92.6245">soldState_</text><rect fill="none" height="6" style="stroke: #C82930; stroke-width: 1.0;" width="6" x="169.5" y="99.2188"/><text fill="#000000" font-family="sans-serif" font-size="11" lengthAdjust="spacingAndGlyphs" textLength="74" x="181.5" y="105.4292">winnerState_</text><rect fill="none" height="6" style="stroke: #C82930; stroke-width: 1.0;" width="6" x="169.5" y="112.0234"/><text fill="#000000" font-family="sans-serif" font-size="11" lengthAdjust="spacingAndGlyphs" textLength="129" x="181.5" y="118.2339">state_{soldOutState_}</text><rect fill="none" height="6" style="stroke: #C82930; stroke-width: 1.0;" width="6" x="169.5" y="124.8281"/><text fill="#000000" font-family="sans-serif" font-size="11" lengthAdjust="spacingAndGlyphs" textLength="61" x="181.5" y="131.0386">count_ = 0</text><line style="stroke: #A80036; stroke-width: 1.5;" x1="162.5" x2="315.5" y1="137.6328" y2="137.6328"/><ellipse cx="172.5" cy="148.6328" fill="#84BE84" rx="3" ry="3" style="stroke: #038048; stroke-width: 1.0;"/><text fill="#000000" font-family="sans-serif" font-size="11" lengthAdjust="spacingAndGlyphs" textLength="85" x="181.5" y="151.8433">insertQuarter()</text><ellipse cx="172.5" cy="161.4375" fill="#84BE84" rx="3" ry="3" style="stroke: #038048; stroke-width: 1.0;"/><text fill="#000000" font-family="sans-serif" font-size="11" lengthAdjust="spacingAndGlyphs" textLength="79" x="181.5" y="164.6479">ejectQuarter()</text><ellipse cx="172.5" cy="174.2422" fill="#84BE84" rx="3" ry="3" style="stroke: #038048; stroke-width: 1.0;"/><text fill="#000000" font-family="sans-serif" font-size="11" lengthAdjust="spacingAndGlyphs" textLength="64" x="181.5" y="177.4526">turnCrank()</text><ellipse cx="172.5" cy="187.0469" fill="#84BE84" rx="3" ry="3" style="stroke: #038048; stroke-width: 1.0;"/><text fill="#000000" font-family="sans-serif" font-size="11" lengthAdjust="spacingAndGlyphs" textLength="56" x="181.5" y="190.2573">setState()</text><ellipse cx="172.5" cy="199.8516" fill="#84BE84" rx="3" ry="3" style="stroke: #038048; stroke-width: 1.0;"/><text fill="#000000" font-family="sans-serif" font-size="11" lengthAdjust="spacingAndGlyphs" textLength="72" x="181.5" y="203.062">releaseBall()</text><ellipse cx="172.5" cy="212.6563" fill="#84BE84" rx="3" ry="3" style="stroke: #038048; stroke-width: 1.0;"/><text fill="#000000" font-family="sans-serif" font-size="11" lengthAdjust="spacingAndGlyphs" textLength="122" x="181.5" y="215.8667">getHasQuarterState()</text><ellipse cx="172.5" cy="225.4609" fill="#84BE84" rx="3" ry="3" style="stroke: #038048; stroke-width: 1.0;"/><text fill="#000000" font-family="sans-serif" font-size="11" lengthAdjust="spacingAndGlyphs" textLength="115" x="181.5" y="228.6714">getNoQuarterState()</text><ellipse cx="172.5" cy="238.2656" fill="#84BE84" rx="3" ry="3" style="stroke: #038048; stroke-width: 1.0;"/><text fill="#000000" font-family="sans-serif" font-size="11" lengthAdjust="spacingAndGlyphs" textLength="81" x="181.5" y="241.4761">getSoldState()</text><ellipse cx="172.5" cy="251.0703" fill="#84BE84" rx="3" ry="3" style="stroke: #038048; stroke-width: 1.0;"/><text fill="#000000" font-family="sans-serif" font-size="11" lengthAdjust="spacingAndGlyphs" textLength="101" x="181.5" y="254.2808">getSoldOutState()</text><ellipse cx="172.5" cy="263.875" fill="#84BE84" rx="3" ry="3" style="stroke: #038048; stroke-width: 1.0;"/><text fill="#000000" font-family="sans-serif" font-size="11" lengthAdjust="spacingAndGlyphs" textLength="94" x="181.5" y="267.0854">getWinnerState()</text><ellipse cx="172.5" cy="276.6797" fill="#84BE84" rx="3" ry="3" style="stroke: #038048; stroke-width: 1.0;"/><text fill="#000000" font-family="sans-serif" font-size="11" lengthAdjust="spacingAndGlyphs" textLength="59" x="181.5" y="279.8901">getCount()</text><ellipse cx="172.5" cy="289.4844" fill="#84BE84" rx="3" ry="3" style="stroke: #038048; stroke-width: 1.0;"/><text fill="#000000" font-family="sans-serif" font-size="11" lengthAdjust="spacingAndGlyphs" textLength="33" x="181.5" y="292.6948">refill()</text><!--MD5=[800656e15f269834b820c871d077de99]
class HasQuarterState--><rect fill="#FEFECE" filter="url(#f17i4bm7wiz38f)" height="112.0234" id="HasQuarterState" style="stroke: #A80036; stroke-width: 1.5;" width="138" x="6" y="359"/><ellipse cx="21" cy="375" fill="#ADD1B2" rx="11" ry="11" style="stroke: #A80036; stroke-width: 1.0;"/><path d="M23.9688,380.6406 Q23.3906,380.9375 22.75,381.0781 Q22.1094,381.2344 21.4063,381.2344 Q18.9063,381.2344 17.5781,379.5938 Q16.2656,377.9375 16.2656,374.8125 Q16.2656,371.6875 17.5781,370.0313 Q18.9063,368.375 21.4063,368.375 Q22.1094,368.375 22.75,368.5313 Q23.4063,368.6875 23.9688,368.9844 L23.9688,371.7031 Q23.3438,371.125 22.75,370.8594 Q22.1563,370.5781 21.5313,370.5781 Q20.1875,370.5781 19.5,371.6563 Q18.8125,372.7188 18.8125,374.8125 Q18.8125,376.9063 19.5,377.9844 Q20.1875,379.0469 21.5313,379.0469 Q22.1563,379.0469 22.75,378.7813 Q23.3438,378.5 23.9688,377.9219 L23.9688,380.6406 Z "/><text fill="#000000" font-family="sans-serif" font-size="12" lengthAdjust="spacingAndGlyphs" textLength="106" x="35" y="379.1543">HasQuarterState</text><line style="stroke: #A80036; stroke-width: 1.5;" x1="7" x2="143" y1="391" y2="391"/><rect fill="none" height="6" style="stroke: #C82930; stroke-width: 1.0;" width="6" x="14" y="399"/><text fill="#000000" font-family="sans-serif" font-size="11" lengthAdjust="spacingAndGlyphs" textLength="97" x="26" y="405.2104">gumballMachine_</text><line style="stroke: #A80036; stroke-width: 1.5;" x1="7" x2="143" y1="411.8047" y2="411.8047"/><ellipse cx="17" cy="422.8047" fill="#84BE84" rx="3" ry="3" style="stroke: #038048; stroke-width: 1.0;"/><text fill="#000000" font-family="sans-serif" font-size="11" lengthAdjust="spacingAndGlyphs" textLength="85" x="26" y="426.0151">insertQuarter()</text><ellipse cx="17" cy="435.6094" fill="#84BE84" rx="3" ry="3" style="stroke: #038048; stroke-width: 1.0;"/><text fill="#000000" font-family="sans-serif" font-size="11" lengthAdjust="spacingAndGlyphs" textLength="79" x="26" y="438.8198">ejectQuarter()</text><ellipse cx="17" cy="448.4141" fill="#84BE84" rx="3" ry="3" style="stroke: #038048; stroke-width: 1.0;"/><text fill="#000000" font-family="sans-serif" font-size="11" lengthAdjust="spacingAndGlyphs" textLength="64" x="26" y="451.6245">turnCrank()</text><ellipse cx="17" cy="461.2188" fill="#84BE84" rx="3" ry="3" style="stroke: #038048; stroke-width: 1.0;"/><text fill="#000000" font-family="sans-serif" font-size="11" lengthAdjust="spacingAndGlyphs" textLength="60" x="26" y="464.4292">dispense()</text><!--MD5=[f6e3bc0dbc71c940b7bd3f539d7f09b8]
class NoQuarterState--><rect fill="#FEFECE" filter="url(#f17i4bm7wiz38f)" height="112.0234" id="NoQuarterState" style="stroke: #A80036; stroke-width: 1.5;" width="131" x="179.5" y="359"/><ellipse cx="194.5" cy="375" fill="#ADD1B2" rx="11" ry="11" style="stroke: #A80036; stroke-width: 1.0;"/><path d="M197.4688,380.6406 Q196.8906,380.9375 196.25,381.0781 Q195.6094,381.2344 194.9063,381.2344 Q192.4063,381.2344 191.0781,379.5938 Q189.7656,377.9375 189.7656,374.8125 Q189.7656,371.6875 191.0781,370.0313 Q192.4063,368.375 194.9063,368.375 Q195.6094,368.375 196.25,368.5313 Q196.9063,368.6875 197.4688,368.9844 L197.4688,371.7031 Q196.8438,371.125 196.25,370.8594 Q195.6563,370.5781 195.0313,370.5781 Q193.6875,370.5781 193,371.6563 Q192.3125,372.7188 192.3125,374.8125 Q192.3125,376.9063 193,377.9844 Q193.6875,379.0469 195.0313,379.0469 Q195.6563,379.0469 196.25,378.7813 Q196.8438,378.5 197.4688,377.9219 L197.4688,380.6406 Z "/><text fill="#000000" font-family="sans-serif" font-size="12" lengthAdjust="spacingAndGlyphs" textLength="99" x="208.5" y="379.1543">NoQuarterState</text><line style="stroke: #A80036; stroke-width: 1.5;" x1="180.5" x2="309.5" y1="391" y2="391"/><rect fill="none" height="6" style="stroke: #C82930; stroke-width: 1.0;" width="6" x="187.5" y="399"/><text fill="#000000" font-family="sans-serif" font-size="11" lengthAdjust="spacingAndGlyphs" textLength="97" x="199.5" y="405.2104">gumballMachine_</text><line style="stroke: #A80036; stroke-width: 1.5;" x1="180.5" x2="309.5" y1="411.8047" y2="411.8047"/><ellipse cx="190.5" cy="422.8047" fill="#84BE84" rx="3" ry="3" style="stroke: #038048; stroke-width: 1.0;"/><text fill="#000000" font-family="sans-serif" font-size="11" lengthAdjust="spacingAndGlyphs" textLength="85" x="199.5" y="426.0151">insertQuarter()</text><ellipse cx="190.5" cy="435.6094" fill="#84BE84" rx="3" ry="3" style="stroke: #038048; stroke-width: 1.0;"/><text fill="#000000" font-family="sans-serif" font-size="11" lengthAdjust="spacingAndGlyphs" textLength="79" x="199.5" y="438.8198">ejectQuarter()</text><ellipse cx="190.5" cy="448.4141" fill="#84BE84" rx="3" ry="3" style="stroke: #038048; stroke-width: 1.0;"/><text fill="#000000" font-family="sans-serif" font-size="11" lengthAdjust="spacingAndGlyphs" textLength="64" x="199.5" y="451.6245">turnCrank()</text><ellipse cx="190.5" cy="461.2188" fill="#84BE84" rx="3" ry="3" style="stroke: #038048; stroke-width: 1.0;"/><text fill="#000000" font-family="sans-serif" font-size="11" lengthAdjust="spacingAndGlyphs" textLength="60" x="199.5" y="464.4292">dispense()</text><!--MD5=[fb0efd25cb3352a7987cdca3b1579da2]
class SoldOutState--><rect fill="#FEFECE" filter="url(#f17i4bm7wiz38f)" height="112.0234" id="SoldOutState" style="stroke: #A80036; stroke-width: 1.5;" width="123" x="345.5" y="359"/><ellipse cx="364.1" cy="375" fill="#ADD1B2" rx="11" ry="11" style="stroke: #A80036; stroke-width: 1.0;"/><path d="M367.0688,380.6406 Q366.4906,380.9375 365.85,381.0781 Q365.2094,381.2344 364.5063,381.2344 Q362.0063,381.2344 360.6781,379.5938 Q359.3656,377.9375 359.3656,374.8125 Q359.3656,371.6875 360.6781,370.0313 Q362.0063,368.375 364.5063,368.375 Q365.2094,368.375 365.85,368.5313 Q366.5063,368.6875 367.0688,368.9844 L367.0688,371.7031 Q366.4438,371.125 365.85,370.8594 Q365.2563,370.5781 364.6313,370.5781 Q363.2875,370.5781 362.6,371.6563 Q361.9125,372.7188 361.9125,374.8125 Q361.9125,376.9063 362.6,377.9844 Q363.2875,379.0469 364.6313,379.0469 Q365.2563,379.0469 365.85,378.7813 Q366.4438,378.5 367.0688,377.9219 L367.0688,380.6406 Z "/><text fill="#000000" font-family="sans-serif" font-size="12" lengthAdjust="spacingAndGlyphs" textLength="83" x="378.9" y="379.1543">SoldOutState</text><line style="stroke: #A80036; stroke-width: 1.5;" x1="346.5" x2="467.5" y1="391" y2="391"/><rect fill="none" height="6" style="stroke: #C82930; stroke-width: 1.0;" width="6" x="353.5" y="399"/><text fill="#000000" font-family="sans-serif" font-size="11" lengthAdjust="spacingAndGlyphs" textLength="97" x="365.5" y="405.2104">gumballMachine_</text><line style="stroke: #A80036; stroke-width: 1.5;" x1="346.5" x2="467.5" y1="411.8047" y2="411.8047"/><ellipse cx="356.5" cy="422.8047" fill="#84BE84" rx="3" ry="3" style="stroke: #038048; stroke-width: 1.0;"/><text fill="#000000" font-family="sans-serif" font-size="11" lengthAdjust="spacingAndGlyphs" textLength="85" x="365.5" y="426.0151">insertQuarter()</text><ellipse cx="356.5" cy="435.6094" fill="#84BE84" rx="3" ry="3" style="stroke: #038048; stroke-width: 1.0;"/><text fill="#000000" font-family="sans-serif" font-size="11" lengthAdjust="spacingAndGlyphs" textLength="79" x="365.5" y="438.8198">ejectQuarter()</text><ellipse cx="356.5" cy="448.4141" fill="#84BE84" rx="3" ry="3" style="stroke: #038048; stroke-width: 1.0;"/><text fill="#000000" font-family="sans-serif" font-size="11" lengthAdjust="spacingAndGlyphs" textLength="64" x="365.5" y="451.6245">turnCrank()</text><ellipse cx="356.5" cy="461.2188" fill="#84BE84" rx="3" ry="3" style="stroke: #038048; stroke-width: 1.0;"/><text fill="#000000" font-family="sans-serif" font-size="11" lengthAdjust="spacingAndGlyphs" textLength="60" x="365.5" y="464.4292">dispense()</text><!--MD5=[ef4a15166501b08e814ac0d8e9a2976d]
class SoldState--><rect fill="#FEFECE" filter="url(#f17i4bm7wiz38f)" height="112.0234" id="SoldState" style="stroke: #A80036; stroke-width: 1.5;" width="123" x="503.5" y="359"/><ellipse cx="532" cy="375" fill="#ADD1B2" rx="11" ry="11" style="stroke: #A80036; stroke-width: 1.0;"/><path d="M534.9688,380.6406 Q534.3906,380.9375 533.75,381.0781 Q533.1094,381.2344 532.4063,381.2344 Q529.9063,381.2344 528.5781,379.5938 Q527.2656,377.9375 527.2656,374.8125 Q527.2656,371.6875 528.5781,370.0313 Q529.9063,368.375 532.4063,368.375 Q533.1094,368.375 533.75,368.5313 Q534.4063,368.6875 534.9688,368.9844 L534.9688,371.7031 Q534.3438,371.125 533.75,370.8594 Q533.1563,370.5781 532.5313,370.5781 Q531.1875,370.5781 530.5,371.6563 Q529.8125,372.7188 529.8125,374.8125 Q529.8125,376.9063 530.5,377.9844 Q531.1875,379.0469 532.5313,379.0469 Q533.1563,379.0469 533.75,378.7813 Q534.3438,378.5 534.9688,377.9219 L534.9688,380.6406 Z "/><text fill="#000000" font-family="sans-serif" font-size="12" lengthAdjust="spacingAndGlyphs" textLength="61" x="549" y="379.1543">SoldState</text><line style="stroke: #A80036; stroke-width: 1.5;" x1="504.5" x2="625.5" y1="391" y2="391"/><rect fill="none" height="6" style="stroke: #C82930; stroke-width: 1.0;" width="6" x="511.5" y="399"/><text fill="#000000" font-family="sans-serif" font-size="11" lengthAdjust="spacingAndGlyphs" textLength="97" x="523.5" y="405.2104">gumballMachine_</text><line style="stroke: #A80036; stroke-width: 1.5;" x1="504.5" x2="625.5" y1="411.8047" y2="411.8047"/><ellipse cx="514.5" cy="422.8047" fill="#84BE84" rx="3" ry="3" style="stroke: #038048; stroke-width: 1.0;"/><text fill="#000000" font-family="sans-serif" font-size="11" lengthAdjust="spacingAndGlyphs" textLength="85" x="523.5" y="426.0151">insertQuarter()</text><ellipse cx="514.5" cy="435.6094" fill="#84BE84" rx="3" ry="3" style="stroke: #038048; stroke-width: 1.0;"/><text fill="#000000" font-family="sans-serif" font-size="11" lengthAdjust="spacingAndGlyphs" textLength="79" x="523.5" y="438.8198">ejectQuarter()</text><ellipse cx="514.5" cy="448.4141" fill="#84BE84" rx="3" ry="3" style="stroke: #038048; stroke-width: 1.0;"/><text fill="#000000" font-family="sans-serif" font-size="11" lengthAdjust="spacingAndGlyphs" textLength="64" x="523.5" y="451.6245">turnCrank()</text><ellipse cx="514.5" cy="461.2188" fill="#84BE84" rx="3" ry="3" style="stroke: #038048; stroke-width: 1.0;"/><text fill="#000000" font-family="sans-serif" font-size="11" lengthAdjust="spacingAndGlyphs" textLength="60" x="523.5" y="464.4292">dispense()</text><!--MD5=[b0dc074f41baba10148dd330e3cd69d9]
class WinnerState--><rect fill="#FEFECE" filter="url(#f17i4bm7wiz38f)" height="112.0234" id="WinnerState" style="stroke: #A80036; stroke-width: 1.5;" width="123" x="661.5" y="359"/><ellipse cx="682.8" cy="375" fill="#ADD1B2" rx="11" ry="11" style="stroke: #A80036; stroke-width: 1.0;"/><path d="M685.7688,380.6406 Q685.1906,380.9375 684.55,381.0781 Q683.9094,381.2344 683.2063,381.2344 Q680.7063,381.2344 679.3781,379.5938 Q678.0656,377.9375 678.0656,374.8125 Q678.0656,371.6875 679.3781,370.0313 Q680.7063,368.375 683.2063,368.375 Q683.9094,368.375 684.55,368.5313 Q685.2063,368.6875 685.7688,368.9844 L685.7688,371.7031 Q685.1438,371.125 684.55,370.8594 Q683.9563,370.5781 683.3313,370.5781 Q681.9875,370.5781 681.3,371.6563 Q680.6125,372.7188 680.6125,374.8125 Q680.6125,376.9063 681.3,377.9844 Q681.9875,379.0469 683.3313,379.0469 Q683.9563,379.0469 684.55,378.7813 Q685.1438,378.5 685.7688,377.9219 L685.7688,380.6406 Z "/><text fill="#000000" font-family="sans-serif" font-size="12" lengthAdjust="spacingAndGlyphs" textLength="77" x="698.2" y="379.1543">WinnerState</text><line style="stroke: #A80036; stroke-width: 1.5;" x1="662.5" x2="783.5" y1="391" y2="391"/><rect fill="none" height="6" style="stroke: #C82930; stroke-width: 1.0;" width="6" x="669.5" y="399"/><text fill="#000000" font-family="sans-serif" font-size="11" lengthAdjust="spacingAndGlyphs" textLength="97" x="681.5" y="405.2104">gumballMachine_</text><line style="stroke: #A80036; stroke-width: 1.5;" x1="662.5" x2="783.5" y1="411.8047" y2="411.8047"/><ellipse cx="672.5" cy="422.8047" fill="#84BE84" rx="3" ry="3" style="stroke: #038048; stroke-width: 1.0;"/><text fill="#000000" font-family="sans-serif" font-size="11" lengthAdjust="spacingAndGlyphs" textLength="85" x="681.5" y="426.0151">insertQuarter()</text><ellipse cx="672.5" cy="435.6094" fill="#84BE84" rx="3" ry="3" style="stroke: #038048; stroke-width: 1.0;"/><text fill="#000000" font-family="sans-serif" font-size="11" lengthAdjust="spacingAndGlyphs" textLength="79" x="681.5" y="438.8198">ejectQuarter()</text><ellipse cx="672.5" cy="448.4141" fill="#84BE84" rx="3" ry="3" style="stroke: #038048; stroke-width: 1.0;"/><text fill="#000000" font-family="sans-serif" font-size="11" lengthAdjust="spacingAndGlyphs" textLength="64" x="681.5" y="451.6245">turnCrank()</text><ellipse cx="672.5" cy="461.2188" fill="#84BE84" rx="3" ry="3" style="stroke: #038048; stroke-width: 1.0;"/><text fill="#000000" font-family="sans-serif" font-size="11" lengthAdjust="spacingAndGlyphs" textLength="60" x="681.5" y="464.4292">dispense()</text><!--MD5=[71e7fbf3091b3613e2cf42fef44162b4]
link GumballMachine to State--><path d="M328.77,153.5 C328.77,153.5 335.32,153.5 337.98,153.5 " fill="none" id="GumballMachine-State" style="stroke: #A80036; stroke-width: 1.0;"/><polygon fill="#A80036" points="351.31,153.5,342.31,149.5,346.31,153.5,342.31,157.5,351.31,153.5" style="stroke: #A80036; stroke-width: 1.0;"/><line style="stroke: #A80036; stroke-width: 1.0;" x1="346.31" x2="338.31" y1="153.5" y2="153.5"/><polygon fill="#FFFFFF" points="316.77,153.5,322.77,157.5,328.77,153.5,322.77,149.5,316.77,153.5" style="stroke: #A80036; stroke-width: 1.0;"/><!--MD5=[0dd6101ec948bff0343e39dec4fba90d]
reverse link State to NoQuarterState--><path d="M376.43,221.57 C364.23,246.46 349.43,274.57 334,299 C321.2,319.28 305.64,340.34 291.13,358.82 " fill="none" id="State&lt;-NoQuarterState" style="stroke: #A80036; stroke-width: 1.0;"/><polygon fill="none" points="370.25,218.27,385.22,203.27,382.87,224.33,370.25,218.27" style="stroke: #A80036; stroke-width: 1.0;"/><!--MD5=[4df87360eb1adedb65cebd67bd02e05e]
reverse link State to HasQuarterState--><path d="M385.66,221.74 C374.12,248.89 357.34,278.56 334,299 C273.1,352.34 234.91,323.81 162,359 C156.05,361.87 150,365.07 144,368.42 " fill="none" id="State&lt;-HasQuarterState" style="stroke: #A80036; stroke-width: 1.0;"/><polygon fill="none" points="379.18,219.1,393,203.04,392.21,224.21,379.18,219.1" style="stroke: #A80036; stroke-width: 1.0;"/><!--MD5=[af4fa344313b2a9c693a4db80a3bff66]
reverse link State to SoldState--><path d="M447.03,220.24 C473.14,263.12 506.82,318.44 531.51,358.99 " fill="none" id="State&lt;-SoldState" style="stroke: #A80036; stroke-width: 1.0;"/><polygon fill="none" points="440.96,223.73,436.53,203.01,452.91,216.45,440.96,223.73" style="stroke: #A80036; stroke-width: 1.0;"/><!--MD5=[afb734c7f3fd6dc3e8d3737631576b3c]
reverse link State to SoldOutState--><path d="M407,223.13 C407,265.58 407,319.35 407,358.99 " fill="none" id="State&lt;-SoldOutState" style="stroke: #A80036; stroke-width: 1.0;"/><polygon fill="none" points="400,223.01,407,203.01,414,223.01,400,223.01" style="stroke: #A80036; stroke-width: 1.0;"/><!--MD5=[293952ee95b55834a20535d0e91462a7]
reverse link State to WinnerState--><path d="M478.44,213.17 C533.5,258.38 608.85,320.26 661.31,363.34 " fill="none" id="State&lt;-WinnerState" style="stroke: #A80036; stroke-width: 1.0;"/><polygon fill="none" points="473.78,218.4,462.77,200.3,482.67,207.58,473.78,218.4" style="stroke: #A80036; stroke-width: 1.0;"/><!--MD5=[fee30956f27844259f7a7fb551e95d5e]
@startuml state

abstract class State{
    +insertQuarter()
    +ejectQuarter()
    +turnCrank()
    +dispense()
}

class GumballMachine{
    -soldOutState_
    -noQuarterState_
    -hasQuarterState_
    -soldState_
    -winnerState_
    -state_{soldOutState_}
    -count_ = 0
    +insertQuarter()
    +ejectQuarter()
    +turnCrank()
    +setState()
    +releaseBall()
    +getHasQuarterState()
    +getNoQuarterState()
    +getSoldState()
    +getSoldOutState()
    +getWinnerState()
    +getCount()
    +refill()
}

State <-right-o GumballMachine

class HasQuarterState{
    -gumballMachine_
    +insertQuarter()
    +ejectQuarter()
    +turnCrank()
    +dispense()
}

class NoQuarterState{
    -gumballMachine_
    +insertQuarter()
    +ejectQuarter()
    +turnCrank()
    +dispense()
}

class SoldOutState{
    -gumballMachine_
    +insertQuarter()
    +ejectQuarter()
    +turnCrank()
    +dispense()
}

class SoldState{
    -gumballMachine_
    +insertQuarter()
    +ejectQuarter()
    +turnCrank()
    +dispense()
}

class WinnerState{
    -gumballMachine_
    +insertQuarter()
    +ejectQuarter()
    +turnCrank()
    +dispense()
}

State <|-down-NoQuarterState
State <|-down-HasQuarterState
State <|-down-SoldState
State <|-down-SoldOutState
State <|-down-WinnerState

@enduml

PlantUML version 1.2020.10(Sun May 17 11:35:57 CEST 2020)
(GPL source distribution)
Java Runtime: OpenJDK Runtime Environment
JVM: OpenJDK 64-Bit Server VM
Java Version: 14.0.1+7-Ubuntu-1ubuntu1
Operating System: Linux
Default Encoding: UTF-8
Language: en
Country: US
--></g></svg>