<?xml version="1.0" encoding="UTF-8" standalone="no"?><svg xmlns="http://www.w3.org/2000/svg" xmlns:xlink="http://www.w3.org/1999/xlink" contentScriptType="application/ecmascript" contentStyleType="text/css" height="277px" preserveAspectRatio="none" style="width:282px;height:277px;" version="1.1" viewBox="0 0 282 277" width="282px" zoomAndPan="magnify"><defs><filter height="300%" id="f1t5mki00jyn6h" width="300%" x="-1" y="-1"><feGaussianBlur result="blurOut" stdDeviation="2.0"/><feColorMatrix in="blurOut" result="blurOut2" type="matrix" values="0 0 0 0 0 0 0 0 0 0 0 0 0 0 0 0 0 0 .4 0"/><feOffset dx="4.0" dy="4.0" in="blurOut2" result="blurOut3"/><feBlend in="SourceGraphic" in2="blurOut3" mode="normal"/></filter></defs><g><!--MD5=[4e13963c9dc916a21a8436ef39422b32]
class Component--><rect fill="#FEFECE" filter="url(#f1t5mki00jyn6h)" height="99.2188" id="Component" style="stroke: #A80036; stroke-width: 1.5;" width="142" x="129" y="8"/><ellipse cx="161.1" cy="24" fill="#ADD1B2" rx="11" ry="11" style="stroke: #A80036; stroke-width: 1.0;"/><path d="M164.0688,29.6406 Q163.4906,29.9375 162.85,30.0781 Q162.2094,30.2344 161.5063,30.2344 Q159.0063,30.2344 157.6781,28.5938 Q156.3656,26.9375 156.3656,23.8125 Q156.3656,20.6875 157.6781,19.0313 Q159.0063,17.375 161.5063,17.375 Q162.2094,17.375 162.85,17.5313 Q163.5063,17.6875 164.0688,17.9844 L164.0688,20.7031 Q163.4438,20.125 162.85,19.8594 Q162.2563,19.5781 161.6313,19.5781 Q160.2875,19.5781 159.6,20.6563 Q158.9125,21.7188 158.9125,23.8125 Q158.9125,25.9063 159.6,26.9844 Q160.2875,28.0469 161.6313,28.0469 Q162.2563,28.0469 162.85,27.7813 Q163.4438,27.5 164.0688,26.9219 L164.0688,29.6406 Z "/><text fill="#000000" font-family="sans-serif" font-size="12" lengthAdjust="spacingAndGlyphs" textLength="72" x="178.9" y="28.1543">Component</text><line style="stroke: #A80036; stroke-width: 1.5;" x1="130" x2="270" y1="40" y2="40"/><line style="stroke: #A80036; stroke-width: 1.5;" x1="130" x2="270" y1="48" y2="48"/><ellipse cx="140" cy="59" fill="#84BE84" rx="3" ry="3" style="stroke: #038048; stroke-width: 1.0;"/><text fill="#000000" font-family="sans-serif" font-size="11" lengthAdjust="spacingAndGlyphs" textLength="62" x="149" y="62.2104">operation()</text><ellipse cx="140" cy="71.8047" fill="#84BE84" rx="3" ry="3" style="stroke: #038048; stroke-width: 1.0;"/><text fill="#000000" font-family="sans-serif" font-size="11" lengthAdjust="spacingAndGlyphs" textLength="94" x="149" y="75.0151">add(Component)</text><ellipse cx="140" cy="84.6094" fill="#84BE84" rx="3" ry="3" style="stroke: #038048; stroke-width: 1.0;"/><text fill="#000000" font-family="sans-serif" font-size="11" lengthAdjust="spacingAndGlyphs" textLength="116" x="149" y="87.8198">remove(Component)</text><ellipse cx="140" cy="97.4141" fill="#84BE84" rx="3" ry="3" style="stroke: #038048; stroke-width: 1.0;"/><text fill="#000000" font-family="sans-serif" font-size="11" lengthAdjust="spacingAndGlyphs" textLength="68" x="149" y="100.6245">getChild(int)</text><!--MD5=[3670a9b67b8a752f6e42da25dea7e2da]
class Leaf--><rect fill="#FEFECE" filter="url(#f1t5mki00jyn6h)" height="60.8047" id="Leaf" style="stroke: #A80036; stroke-width: 1.5;" width="88" x="6" y="186"/><ellipse cx="34.5" cy="202" fill="#ADD1B2" rx="11" ry="11" style="stroke: #A80036; stroke-width: 1.0;"/><path d="M37.4688,207.6406 Q36.8906,207.9375 36.25,208.0781 Q35.6094,208.2344 34.9063,208.2344 Q32.4063,208.2344 31.0781,206.5938 Q29.7656,204.9375 29.7656,201.8125 Q29.7656,198.6875 31.0781,197.0313 Q32.4063,195.375 34.9063,195.375 Q35.6094,195.375 36.25,195.5313 Q36.9063,195.6875 37.4688,195.9844 L37.4688,198.7031 Q36.8438,198.125 36.25,197.8594 Q35.6563,197.5781 35.0313,197.5781 Q33.6875,197.5781 33,198.6563 Q32.3125,199.7188 32.3125,201.8125 Q32.3125,203.9063 33,204.9844 Q33.6875,206.0469 35.0313,206.0469 Q35.6563,206.0469 36.25,205.7813 Q36.8438,205.5 37.4688,204.9219 L37.4688,207.6406 Z "/><text fill="#000000" font-family="sans-serif" font-size="12" lengthAdjust="spacingAndGlyphs" textLength="26" x="51.5" y="206.1543">Leaf</text><line style="stroke: #A80036; stroke-width: 1.5;" x1="7" x2="93" y1="218" y2="218"/><line style="stroke: #A80036; stroke-width: 1.5;" x1="7" x2="93" y1="226" y2="226"/><ellipse cx="17" cy="237" fill="#84BE84" rx="3" ry="3" style="stroke: #038048; stroke-width: 1.0;"/><text fill="#000000" font-family="sans-serif" font-size="11" lengthAdjust="spacingAndGlyphs" textLength="62" x="26" y="240.2104">operation()</text><!--MD5=[73d251a377f173325f21997c77c25ad9]
class Composite--><rect fill="#FEFECE" filter="url(#f1t5mki00jyn6h)" height="99.2188" id="Composite" style="stroke: #A80036; stroke-width: 1.5;" width="142" x="129" y="167"/><ellipse cx="163.8" cy="183" fill="#ADD1B2" rx="11" ry="11" style="stroke: #A80036; stroke-width: 1.0;"/><path d="M166.7688,188.6406 Q166.1906,188.9375 165.55,189.0781 Q164.9094,189.2344 164.2063,189.2344 Q161.7063,189.2344 160.3781,187.5938 Q159.0656,185.9375 159.0656,182.8125 Q159.0656,179.6875 160.3781,178.0313 Q161.7063,176.375 164.2063,176.375 Q164.9094,176.375 165.55,176.5313 Q166.2063,176.6875 166.7688,176.9844 L166.7688,179.7031 Q166.1438,179.125 165.55,178.8594 Q164.9563,178.5781 164.3313,178.5781 Q162.9875,178.5781 162.3,179.6563 Q161.6125,180.7188 161.6125,182.8125 Q161.6125,184.9063 162.3,185.9844 Q162.9875,187.0469 164.3313,187.0469 Q164.9563,187.0469 165.55,186.7813 Q166.1438,186.5 166.7688,185.9219 L166.7688,188.6406 Z "/><text fill="#000000" font-family="sans-serif" font-size="12" lengthAdjust="spacingAndGlyphs" textLength="66" x="182.2" y="187.1543">Composite</text><line style="stroke: #A80036; stroke-width: 1.5;" x1="130" x2="270" y1="199" y2="199"/><line style="stroke: #A80036; stroke-width: 1.5;" x1="130" x2="270" y1="207" y2="207"/><ellipse cx="140" cy="218" fill="#84BE84" rx="3" ry="3" style="stroke: #038048; stroke-width: 1.0;"/><text fill="#000000" font-family="sans-serif" font-size="11" lengthAdjust="spacingAndGlyphs" textLength="62" x="149" y="221.2104">operation()</text><ellipse cx="140" cy="230.8047" fill="#84BE84" rx="3" ry="3" style="stroke: #038048; stroke-width: 1.0;"/><text fill="#000000" font-family="sans-serif" font-size="11" lengthAdjust="spacingAndGlyphs" textLength="94" x="149" y="234.0151">add(Component)</text><ellipse cx="140" cy="243.6094" fill="#84BE84" rx="3" ry="3" style="stroke: #038048; stroke-width: 1.0;"/><text fill="#000000" font-family="sans-serif" font-size="11" lengthAdjust="spacingAndGlyphs" textLength="116" x="149" y="246.8198">remove(Component)</text><ellipse cx="140" cy="256.4141" fill="#84BE84" rx="3" ry="3" style="stroke: #038048; stroke-width: 1.0;"/><text fill="#000000" font-family="sans-serif" font-size="11" lengthAdjust="spacingAndGlyphs" textLength="68" x="149" y="259.6245">getChild(int)</text><!--MD5=[ed6624c6556d5e7b1bd23032162d20b7]
class Client--><rect fill="#FEFECE" filter="url(#f1t5mki00jyn6h)" height="48" id="Client" style="stroke: #A80036; stroke-width: 1.5;" width="67" x="26.5" y="33.5"/><ellipse cx="41.5" cy="49.5" fill="#ADD1B2" rx="11" ry="11" style="stroke: #A80036; stroke-width: 1.0;"/><path d="M44.4688,55.1406 Q43.8906,55.4375 43.25,55.5781 Q42.6094,55.7344 41.9063,55.7344 Q39.4063,55.7344 38.0781,54.0938 Q36.7656,52.4375 36.7656,49.3125 Q36.7656,46.1875 38.0781,44.5313 Q39.4063,42.875 41.9063,42.875 Q42.6094,42.875 43.25,43.0313 Q43.9063,43.1875 44.4688,43.4844 L44.4688,46.2031 Q43.8438,45.625 43.25,45.3594 Q42.6563,45.0781 42.0313,45.0781 Q40.6875,45.0781 40,46.1563 Q39.3125,47.2188 39.3125,49.3125 Q39.3125,51.4063 40,52.4844 Q40.6875,53.5469 42.0313,53.5469 Q42.6563,53.5469 43.25,53.2813 Q43.8438,53 44.4688,52.4219 L44.4688,55.1406 Z "/><text fill="#000000" font-family="sans-serif" font-size="12" lengthAdjust="spacingAndGlyphs" textLength="35" x="55.5" y="53.6543">Client</text><line style="stroke: #A80036; stroke-width: 1.5;" x1="27.5" x2="92.5" y1="65.5" y2="65.5"/><line style="stroke: #A80036; stroke-width: 1.5;" x1="27.5" x2="92.5" y1="73.5" y2="73.5"/><!--MD5=[2b8a550542006e17ac803e491d55f4e4]
reverse link Component to Leaf--><path d="M139.41,121.92 C118.26,144.06 95.52,167.86 78.26,185.92 " fill="none" id="Component&lt;-Leaf" style="stroke: #A80036; stroke-width: 1.0;"/><polygon fill="none" points="134.48,116.94,153.36,107.32,144.61,126.61,134.48,116.94" style="stroke: #A80036; stroke-width: 1.0;"/><!--MD5=[d08e8c878fbc40ecc1404728b0bb96b1]
reverse link Component to Composite--><path d="M187.33,127.64 C187.1,140.91 187.36,154.54 188.12,166.98 " fill="none" id="Component&lt;-Composite" style="stroke: #A80036; stroke-width: 1.0;"/><polygon fill="none" points="180.35,127.04,188.1,107.32,194.34,127.56,180.35,127.04" style="stroke: #A80036; stroke-width: 1.0;"/><!--MD5=[4891deb3fed738231c8228a6b6958427]
link Component to Composite--><path d="M212.6,107.32 C213.53,122.01 213.74,138.32 213.22,153.74 " fill="none" id="Component-&gt;Composite" style="stroke: #A80036; stroke-width: 1.0;"/><polygon fill="#A80036" points="212.58,166.98,216.8654,161.1804,213.1602,154.994,208.8748,160.7936,212.58,166.98" style="stroke: #A80036; stroke-width: 1.0;"/><!--MD5=[fa39e0b8b995cfad057d1e097dfd30f9]
link Client to Component--><path d="M93.63,57.5 C103.66,57.5 113.68,57.5 123.71,57.5 " fill="none" id="Client-&gt;Component" style="stroke: #A80036; stroke-width: 1.0;"/><polygon fill="#A80036" points="128.95,57.5,119.95,53.5,123.95,57.5,119.95,61.5,128.95,57.5" style="stroke: #A80036; stroke-width: 1.0;"/><!--MD5=[59178c45dfc39ad93966c3fbe34292ef]
@startuml composite-schema

class Component{
    +operation()
    +add(Component)
    +remove(Component)
    +getChild(int)
}

class Leaf{
    +operation()
}

class Composite{
    +operation()
    +add(Component)
    +remove(Component)
    +getChild(int)
}

Component <|-down- Leaf
Component <|-down- Composite

Client -right-> Component

Component -up-* Composite
@enduml

PlantUML version 1.2020.10(Sun May 17 11:35:57 CEST 2020)
(GPL source distribution)
Java Runtime: OpenJDK Runtime Environment
JVM: OpenJDK 64-Bit Server VM
Java Version: 14.0.1+7-Ubuntu-1ubuntu1
Operating System: Linux
Default Encoding: UTF-8
Language: en
Country: US
--></g></svg>