<?xml version="1.0" encoding="UTF-8" standalone="no"?><svg xmlns="http://www.w3.org/2000/svg" xmlns:xlink="http://www.w3.org/1999/xlink" contentScriptType="application/ecmascript" contentStyleType="text/css" height="392px" preserveAspectRatio="none" style="width:305px;height:392px;" version="1.1" viewBox="0 0 305 392" width="305px" zoomAndPan="magnify"><defs><filter height="300%" id="f1sem2h9ibszfq" width="300%" x="-1" y="-1"><feGaussianBlur result="blurOut" stdDeviation="2.0"/><feColorMatrix in="blurOut" result="blurOut2" type="matrix" values="0 0 0 0 0 0 0 0 0 0 0 0 0 0 0 0 0 0 .4 0"/><feOffset dx="4.0" dy="4.0" in="blurOut2" result="blurOut3"/><feBlend in="SourceGraphic" in2="blurOut3" mode="normal"/></filter></defs><g><!--MD5=[5deb2213c7e491a4a8725ab5df405f32]
class MenuComponent--><rect fill="#FEFECE" filter="url(#f1sem2h9ibszfq)" height="150.4375" id="MenuComponent" style="stroke: #A80036; stroke-width: 1.5;" width="138" x="156" y="8"/><ellipse cx="171" cy="24" fill="#A9DCDF" rx="11" ry="11" style="stroke: #A80036; stroke-width: 1.0;"/><path d="M171.1094,19.3438 L169.9531,24.4219 L172.2813,24.4219 L171.1094,19.3438 Z M169.625,17.1094 L172.6094,17.1094 L175.9688,29.5 L173.5156,29.5 L172.75,26.4375 L169.4688,26.4375 L168.7188,29.5 L166.2813,29.5 L169.625,17.1094 Z "/><text fill="#000000" font-family="sans-serif" font-size="12" font-style="italic" lengthAdjust="spacingAndGlyphs" textLength="106" x="185" y="28.1543">MenuComponent</text><line style="stroke: #A80036; stroke-width: 1.5;" x1="157" x2="293" y1="40" y2="40"/><line style="stroke: #A80036; stroke-width: 1.5;" x1="157" x2="293" y1="48" y2="48"/><ellipse cx="167" cy="59" fill="#84BE84" rx="3" ry="3" style="stroke: #038048; stroke-width: 1.0;"/><text fill="#000000" font-family="sans-serif" font-size="11" lengthAdjust="spacingAndGlyphs" textLength="29" x="176" y="62.2104">add()</text><ellipse cx="167" cy="71.8047" fill="#84BE84" rx="3" ry="3" style="stroke: #038048; stroke-width: 1.0;"/><text fill="#000000" font-family="sans-serif" font-size="11" lengthAdjust="spacingAndGlyphs" textLength="51" x="176" y="75.0151">remove()</text><ellipse cx="167" cy="84.6094" fill="#84BE84" rx="3" ry="3" style="stroke: #038048; stroke-width: 1.0;"/><text fill="#000000" font-family="sans-serif" font-size="11" lengthAdjust="spacingAndGlyphs" textLength="54" x="176" y="87.8198">getChild()</text><ellipse cx="167" cy="97.4141" fill="#84BE84" rx="3" ry="3" style="stroke: #038048; stroke-width: 1.0;"/><text fill="#000000" font-family="sans-serif" font-size="11" lengthAdjust="spacingAndGlyphs" textLength="59" x="176" y="100.6245">getName()</text><ellipse cx="167" cy="110.2188" fill="#84BE84" rx="3" ry="3" style="stroke: #038048; stroke-width: 1.0;"/><text fill="#000000" font-family="sans-serif" font-size="11" lengthAdjust="spacingAndGlyphs" textLength="90" x="176" y="113.4292">getDescription()</text><ellipse cx="167" cy="123.0234" fill="#84BE84" rx="3" ry="3" style="stroke: #038048; stroke-width: 1.0;"/><text fill="#000000" font-family="sans-serif" font-size="11" lengthAdjust="spacingAndGlyphs" textLength="54" x="176" y="126.2339">getPrice()</text><ellipse cx="167" cy="135.8281" fill="#84BE84" rx="3" ry="3" style="stroke: #038048; stroke-width: 1.0;"/><text fill="#000000" font-family="sans-serif" font-size="11" lengthAdjust="spacingAndGlyphs" textLength="79" x="176" y="139.0386">isVegetarian()</text><ellipse cx="167" cy="148.6328" fill="#84BE84" rx="3" ry="3" style="stroke: #038048; stroke-width: 1.0;"/><text fill="#000000" font-family="sans-serif" font-size="11" lengthAdjust="spacingAndGlyphs" textLength="34" x="176" y="151.8433">print()</text><!--MD5=[27eb0c30e65d8b262e52e99e862b6c6e]
class MenuItem--><rect fill="#FEFECE" filter="url(#f1sem2h9ibszfq)" height="163.2422" id="MenuItem" style="stroke: #A80036; stroke-width: 1.5;" width="116" x="6" y="218"/><ellipse cx="31.35" cy="234" fill="#ADD1B2" rx="11" ry="11" style="stroke: #A80036; stroke-width: 1.0;"/><path d="M34.3188,239.6406 Q33.7406,239.9375 33.1,240.0781 Q32.4594,240.2344 31.7563,240.2344 Q29.2563,240.2344 27.9281,238.5938 Q26.6156,236.9375 26.6156,233.8125 Q26.6156,230.6875 27.9281,229.0313 Q29.2563,227.375 31.7563,227.375 Q32.4594,227.375 33.1,227.5313 Q33.7563,227.6875 34.3188,227.9844 L34.3188,230.7031 Q33.6938,230.125 33.1,229.8594 Q32.5063,229.5781 31.8813,229.5781 Q30.5375,229.5781 29.85,230.6563 Q29.1625,231.7188 29.1625,233.8125 Q29.1625,235.9063 29.85,236.9844 Q30.5375,238.0469 31.8813,238.0469 Q32.5063,238.0469 33.1,237.7813 Q33.6938,237.5 34.3188,236.9219 L34.3188,239.6406 Z "/><text fill="#000000" font-family="sans-serif" font-size="12" lengthAdjust="spacingAndGlyphs" textLength="61" x="47.65" y="238.1543">MenuItem</text><line style="stroke: #A80036; stroke-width: 1.5;" x1="7" x2="121" y1="250" y2="250"/><rect fill="none" height="6" style="stroke: #C82930; stroke-width: 1.0;" width="6" x="14" y="258"/><text fill="#000000" font-family="sans-serif" font-size="11" lengthAdjust="spacingAndGlyphs" textLength="38" x="26" y="264.2104">name_</text><rect fill="none" height="6" style="stroke: #C82930; stroke-width: 1.0;" width="6" x="14" y="270.8047"/><text fill="#000000" font-family="sans-serif" font-size="11" lengthAdjust="spacingAndGlyphs" textLength="69" x="26" y="277.0151">description_</text><rect fill="none" height="6" style="stroke: #C82930; stroke-width: 1.0;" width="6" x="14" y="283.6094"/><text fill="#000000" font-family="sans-serif" font-size="11" lengthAdjust="spacingAndGlyphs" textLength="66" x="26" y="289.8198">vegetarian_</text><rect fill="none" height="6" style="stroke: #C82930; stroke-width: 1.0;" width="6" x="14" y="296.4141"/><text fill="#000000" font-family="sans-serif" font-size="11" lengthAdjust="spacingAndGlyphs" textLength="34" x="26" y="302.6245">price_</text><line style="stroke: #A80036; stroke-width: 1.5;" x1="7" x2="121" y1="309.2188" y2="309.2188"/><ellipse cx="17" cy="320.2188" fill="#84BE84" rx="3" ry="3" style="stroke: #038048; stroke-width: 1.0;"/><text fill="#000000" font-family="sans-serif" font-size="11" lengthAdjust="spacingAndGlyphs" textLength="59" x="26" y="323.4292">getName()</text><ellipse cx="17" cy="333.0234" fill="#84BE84" rx="3" ry="3" style="stroke: #038048; stroke-width: 1.0;"/><text fill="#000000" font-family="sans-serif" font-size="11" lengthAdjust="spacingAndGlyphs" textLength="90" x="26" y="336.2339">getDescription()</text><ellipse cx="17" cy="345.8281" fill="#84BE84" rx="3" ry="3" style="stroke: #038048; stroke-width: 1.0;"/><text fill="#000000" font-family="sans-serif" font-size="11" lengthAdjust="spacingAndGlyphs" textLength="54" x="26" y="349.0386">getPrice()</text><ellipse cx="17" cy="358.6328" fill="#84BE84" rx="3" ry="3" style="stroke: #038048; stroke-width: 1.0;"/><text fill="#000000" font-family="sans-serif" font-size="11" lengthAdjust="spacingAndGlyphs" textLength="79" x="26" y="361.8433">isVegetarian()</text><ellipse cx="17" cy="371.4375" fill="#84BE84" rx="3" ry="3" style="stroke: #038048; stroke-width: 1.0;"/><text fill="#000000" font-family="sans-serif" font-size="11" lengthAdjust="spacingAndGlyphs" textLength="34" x="26" y="374.6479">print()</text><!--MD5=[f0268dd29ee89052933f031546cb1cab]
class Menu--><rect fill="#FEFECE" filter="url(#f1sem2h9ibszfq)" height="163.2422" id="Menu" style="stroke: #A80036; stroke-width: 1.5;" width="136" x="157" y="218"/><ellipse cx="203.75" cy="234" fill="#ADD1B2" rx="11" ry="11" style="stroke: #A80036; stroke-width: 1.0;"/><path d="M206.7188,239.6406 Q206.1406,239.9375 205.5,240.0781 Q204.8594,240.2344 204.1563,240.2344 Q201.6563,240.2344 200.3281,238.5938 Q199.0156,236.9375 199.0156,233.8125 Q199.0156,230.6875 200.3281,229.0313 Q201.6563,227.375 204.1563,227.375 Q204.8594,227.375 205.5,227.5313 Q206.1563,227.6875 206.7188,227.9844 L206.7188,230.7031 Q206.0938,230.125 205.5,229.8594 Q204.9063,229.5781 204.2813,229.5781 Q202.9375,229.5781 202.25,230.6563 Q201.5625,231.7188 201.5625,233.8125 Q201.5625,235.9063 202.25,236.9844 Q202.9375,238.0469 204.2813,238.0469 Q204.9063,238.0469 205.5,237.7813 Q206.0938,237.5 206.7188,236.9219 L206.7188,239.6406 Z "/><text fill="#000000" font-family="sans-serif" font-size="12" lengthAdjust="spacingAndGlyphs" textLength="34" x="224.25" y="238.1543">Menu</text><line style="stroke: #A80036; stroke-width: 1.5;" x1="158" x2="292" y1="250" y2="250"/><rect fill="none" height="6" style="stroke: #C82930; stroke-width: 1.0;" width="6" x="165" y="258"/><text fill="#000000" font-family="sans-serif" font-size="11" lengthAdjust="spacingAndGlyphs" textLength="110" x="177" y="264.2104">menuComponents_</text><rect fill="none" height="6" style="stroke: #C82930; stroke-width: 1.0;" width="6" x="165" y="270.8047"/><text fill="#000000" font-family="sans-serif" font-size="11" lengthAdjust="spacingAndGlyphs" textLength="38" x="177" y="277.0151">name_</text><rect fill="none" height="6" style="stroke: #C82930; stroke-width: 1.0;" width="6" x="165" y="283.6094"/><text fill="#000000" font-family="sans-serif" font-size="11" lengthAdjust="spacingAndGlyphs" textLength="69" x="177" y="289.8198">description_</text><line style="stroke: #A80036; stroke-width: 1.5;" x1="158" x2="292" y1="296.4141" y2="296.4141"/><ellipse cx="168" cy="307.4141" fill="#84BE84" rx="3" ry="3" style="stroke: #038048; stroke-width: 1.0;"/><text fill="#000000" font-family="sans-serif" font-size="11" lengthAdjust="spacingAndGlyphs" textLength="29" x="177" y="310.6245">add()</text><ellipse cx="168" cy="320.2188" fill="#84BE84" rx="3" ry="3" style="stroke: #038048; stroke-width: 1.0;"/><text fill="#000000" font-family="sans-serif" font-size="11" lengthAdjust="spacingAndGlyphs" textLength="51" x="177" y="323.4292">remove()</text><ellipse cx="168" cy="333.0234" fill="#84BE84" rx="3" ry="3" style="stroke: #038048; stroke-width: 1.0;"/><text fill="#000000" font-family="sans-serif" font-size="11" lengthAdjust="spacingAndGlyphs" textLength="54" x="177" y="336.2339">getChild()</text><ellipse cx="168" cy="345.8281" fill="#84BE84" rx="3" ry="3" style="stroke: #038048; stroke-width: 1.0;"/><text fill="#000000" font-family="sans-serif" font-size="11" lengthAdjust="spacingAndGlyphs" textLength="59" x="177" y="349.0386">getName()</text><ellipse cx="168" cy="358.6328" fill="#84BE84" rx="3" ry="3" style="stroke: #038048; stroke-width: 1.0;"/><text fill="#000000" font-family="sans-serif" font-size="11" lengthAdjust="spacingAndGlyphs" textLength="90" x="177" y="361.8433">getDescription()</text><ellipse cx="168" cy="371.4375" fill="#84BE84" rx="3" ry="3" style="stroke: #038048; stroke-width: 1.0;"/><text fill="#000000" font-family="sans-serif" font-size="11" lengthAdjust="spacingAndGlyphs" textLength="34" x="177" y="374.6479">print()</text><!--MD5=[f4e843451c33ab6738cd05e6a39b4d42]
class Waitress--><rect fill="#FEFECE" filter="url(#f1sem2h9ibszfq)" height="73.6094" id="Waitress" style="stroke: #A80036; stroke-width: 1.5;" width="90" x="31" y="46"/><ellipse cx="47.8" cy="62" fill="#ADD1B2" rx="11" ry="11" style="stroke: #A80036; stroke-width: 1.0;"/><path d="M50.7688,67.6406 Q50.1906,67.9375 49.55,68.0781 Q48.9094,68.2344 48.2063,68.2344 Q45.7063,68.2344 44.3781,66.5938 Q43.0656,64.9375 43.0656,61.8125 Q43.0656,58.6875 44.3781,57.0313 Q45.7063,55.375 48.2063,55.375 Q48.9094,55.375 49.55,55.5313 Q50.2063,55.6875 50.7688,55.9844 L50.7688,58.7031 Q50.1438,58.125 49.55,57.8594 Q48.9563,57.5781 48.3313,57.5781 Q46.9875,57.5781 46.3,58.6563 Q45.6125,59.7188 45.6125,61.8125 Q45.6125,63.9063 46.3,64.9844 Q46.9875,66.0469 48.3313,66.0469 Q48.9563,66.0469 49.55,65.7813 Q50.1438,65.5 50.7688,64.9219 L50.7688,67.6406 Z "/><text fill="#000000" font-family="sans-serif" font-size="12" lengthAdjust="spacingAndGlyphs" textLength="54" x="62.2" y="66.1543">Waitress</text><line style="stroke: #A80036; stroke-width: 1.5;" x1="32" x2="120" y1="78" y2="78"/><rect fill="none" height="6" style="stroke: #C82930; stroke-width: 1.0;" width="6" x="39" y="86"/><text fill="#000000" font-family="sans-serif" font-size="11" lengthAdjust="spacingAndGlyphs" textLength="56" x="51" y="92.2104">allMenus_</text><line style="stroke: #A80036; stroke-width: 1.5;" x1="32" x2="120" y1="98.8047" y2="98.8047"/><ellipse cx="42" cy="109.8047" fill="#84BE84" rx="3" ry="3" style="stroke: #038048; stroke-width: 1.0;"/><text fill="#000000" font-family="sans-serif" font-size="11" lengthAdjust="spacingAndGlyphs" textLength="64" x="51" y="113.0151">printMenu()</text><!--MD5=[4525de0f5f7ba911ee64b22dc665e905]
reverse link MenuComponent to MenuItem--><path d="M157.34,174.15 C145.62,189.76 133.53,205.86 122.1,221.09 " fill="none" id="MenuComponent&lt;-MenuItem" style="stroke: #A80036; stroke-width: 1.0;"/><polygon fill="none" points="151.76,169.91,169.37,158.12,162.96,178.32,151.76,169.91" style="stroke: #A80036; stroke-width: 1.0;"/><!--MD5=[2d08837176ae67af18e04d0f7a71b2f1]
reverse link MenuComponent to Menu--><path d="M212.33,178.42 C212.16,191.55 212.25,204.94 212.6,217.78 " fill="none" id="MenuComponent&lt;-Menu" style="stroke: #A80036; stroke-width: 1.0;"/><polygon fill="none" points="205.34,177.95,212.81,158.12,219.34,178.28,205.34,177.95" style="stroke: #A80036; stroke-width: 1.0;"/><!--MD5=[6250ead86b469e2bb12daa2db3da51ec]
link MenuComponent to Menu--><path d="M237.91,158.12 C238.46,173.16 238.63,189.17 238.4,204.78 " fill="none" id="MenuComponent-&gt;Menu" style="stroke: #A80036; stroke-width: 1.0;"/><polygon fill="#A80036" points="238.13,217.78,242.2545,211.8649,238.3808,205.7826,234.2563,211.6977,238.13,217.78" style="stroke: #A80036; stroke-width: 1.0;"/><!--MD5=[cc75d4a32e46a7efddd7451326121daf]
link Waitress to MenuComponent--><path d="M121.11,83 C130.9,83 140.69,83 150.48,83 " fill="none" id="Waitress-&gt;MenuComponent" style="stroke: #A80036; stroke-width: 1.0;"/><polygon fill="#A80036" points="155.6,83,146.6,79,150.6,83,146.6,87,155.6,83" style="stroke: #A80036; stroke-width: 1.0;"/><!--MD5=[83eb3e423389f5c28f619ec894546e73]
@startuml composite

abstract class MenuComponent{
    +add()
    +remove()
    +getChild()
    +getName()
    +getDescription()
    +getPrice()
    +isVegetarian()
    +print()
}

class MenuItem{
    -name_
    -description_
    -vegetarian_
    -price_
    +getName()
    +getDescription()
    +getPrice()
    +isVegetarian()
    +print()
}

class Menu{
    -menuComponents_
    -name_
    -description_
    +add()
    +remove()
    +getChild()
    +getName()
    +getDescription()
    +print()
}

class Waitress{
    -allMenus_
    +printMenu()
}

MenuComponent <|-down- MenuItem
MenuComponent <|-down- Menu

Waitress -right-> MenuComponent

MenuComponent -up-* Menu

@enduml

PlantUML version 1.2020.10(Sun May 17 11:35:57 CEST 2020)
(GPL source distribution)
Java Runtime: OpenJDK Runtime Environment
JVM: OpenJDK 64-Bit Server VM
Java Version: 14.0.1+7-Ubuntu-1ubuntu1
Operating System: Linux
Default Encoding: UTF-8
Language: en
Country: US
--></g></svg>