<?xml version="1.0" encoding="UTF-8" standalone="no"?><svg xmlns="http://www.w3.org/2000/svg" xmlns:xlink="http://www.w3.org/1999/xlink" contentScriptType="application/ecmascript" contentStyleType="text/css" height="378px" preserveAspectRatio="none" style="width:416px;height:378px;" version="1.1" viewBox="0 0 416 378" width="416px" zoomAndPan="magnify"><defs><filter height="300%" id="fnrfzijb9evjk" width="300%" x="-1" y="-1"><feGaussianBlur result="blurOut" stdDeviation="2.0"/><feColorMatrix in="blurOut" result="blurOut2" type="matrix" values="0 0 0 0 0 0 0 0 0 0 0 0 0 0 0 0 0 0 .4 0"/><feOffset dx="4.0" dy="4.0" in="blurOut2" result="blurOut3"/><feBlend in="SourceGraphic" in2="blurOut3" mode="normal"/></filter></defs><g><!--MD5=[ee80f128756adf0e95ba2af8ad3ecb8c]
class Duck--><rect fill="#FEFECE" filter="url(#fnrfzijb9evjk)" height="79.5469" id="Duck" style="stroke: #A80036; stroke-width: 1.5;" width="98" x="160.5" y="8"/><ellipse cx="175.5" cy="26.9688" fill="#A9DCDF" rx="11" ry="11" style="stroke: #A80036; stroke-width: 1.0;"/><path d="M175.6094,22.3125 L174.4531,27.3906 L176.7813,27.3906 L175.6094,22.3125 Z M174.125,20.0781 L177.1094,20.0781 L180.4688,32.4688 L178.0156,32.4688 L177.25,29.4063 L173.9688,29.4063 L173.2188,32.4688 L170.7813,32.4688 L174.125,20.0781 Z "/><text fill="#000000" font-family="sans-serif" font-size="12" font-style="italic" lengthAdjust="spacingAndGlyphs" textLength="70" x="187.5" y="24.1387">«interface»</text><text fill="#000000" font-family="sans-serif" font-size="12" font-style="italic" lengthAdjust="spacingAndGlyphs" textLength="31" x="207" y="38.1074">Duck</text><line style="stroke: #A80036; stroke-width: 1.5;" x1="161.5" x2="257.5" y1="45.9375" y2="45.9375"/><line style="stroke: #A80036; stroke-width: 1.5;" x1="161.5" x2="257.5" y1="53.9375" y2="53.9375"/><ellipse cx="171.5" cy="64.9375" fill="#84BE84" rx="3" ry="3" style="stroke: #038048; stroke-width: 1.0;"/><text fill="#000000" font-family="sans-serif" font-size="11" lengthAdjust="spacingAndGlyphs" textLength="41" x="180.5" y="68.1479">quack()</text><ellipse cx="171.5" cy="77.7422" fill="#84BE84" rx="3" ry="3" style="stroke: #038048; stroke-width: 1.0;"/><text fill="#000000" font-family="sans-serif" font-size="11" lengthAdjust="spacingAndGlyphs" textLength="21" x="180.5" y="80.9526">fly()</text><!--MD5=[3514eda1f9578311a848538d86a3af13]
class MallardDuck--><rect fill="#FEFECE" filter="url(#fnrfzijb9evjk)" height="73.6094" id="MallardDuck" style="stroke: #A80036; stroke-width: 1.5;" width="108" x="297.5" y="154"/><ellipse cx="312.5" cy="170" fill="#ADD1B2" rx="11" ry="11" style="stroke: #A80036; stroke-width: 1.0;"/><path d="M315.4688,175.6406 Q314.8906,175.9375 314.25,176.0781 Q313.6094,176.2344 312.9063,176.2344 Q310.4063,176.2344 309.0781,174.5938 Q307.7656,172.9375 307.7656,169.8125 Q307.7656,166.6875 309.0781,165.0313 Q310.4063,163.375 312.9063,163.375 Q313.6094,163.375 314.25,163.5313 Q314.9063,163.6875 315.4688,163.9844 L315.4688,166.7031 Q314.8438,166.125 314.25,165.8594 Q313.6563,165.5781 313.0313,165.5781 Q311.6875,165.5781 311,166.6563 Q310.3125,167.7188 310.3125,169.8125 Q310.3125,171.9063 311,172.9844 Q311.6875,174.0469 313.0313,174.0469 Q313.6563,174.0469 314.25,173.7813 Q314.8438,173.5 315.4688,172.9219 L315.4688,175.6406 Z "/><text fill="#000000" font-family="sans-serif" font-size="12" lengthAdjust="spacingAndGlyphs" textLength="76" x="326.5" y="174.1543">MallardDuck</text><line style="stroke: #A80036; stroke-width: 1.5;" x1="298.5" x2="404.5" y1="186" y2="186"/><line style="stroke: #A80036; stroke-width: 1.5;" x1="298.5" x2="404.5" y1="194" y2="194"/><ellipse cx="308.5" cy="205" fill="#84BE84" rx="3" ry="3" style="stroke: #038048; stroke-width: 1.0;"/><text fill="#000000" font-family="sans-serif" font-size="11" lengthAdjust="spacingAndGlyphs" textLength="41" x="317.5" y="208.2104">quack()</text><ellipse cx="308.5" cy="217.8047" fill="#84BE84" rx="3" ry="3" style="stroke: #038048; stroke-width: 1.0;"/><text fill="#000000" font-family="sans-serif" font-size="11" lengthAdjust="spacingAndGlyphs" textLength="21" x="317.5" y="221.0151">fly()</text><!--MD5=[bf7a5cbdfa65bcbb1270d0b4f51e1923]
class Turkey--><rect fill="#FEFECE" filter="url(#fnrfzijb9evjk)" height="79.5469" id="Turkey" style="stroke: #A80036; stroke-width: 1.5;" width="98" x="164.5" y="151"/><ellipse cx="179.5" cy="169.9688" fill="#A9DCDF" rx="11" ry="11" style="stroke: #A80036; stroke-width: 1.0;"/><path d="M179.6094,165.3125 L178.4531,170.3906 L180.7813,170.3906 L179.6094,165.3125 Z M178.125,163.0781 L181.1094,163.0781 L184.4688,175.4688 L182.0156,175.4688 L181.25,172.4063 L177.9688,172.4063 L177.2188,175.4688 L174.7813,175.4688 L178.125,163.0781 Z "/><text fill="#000000" font-family="sans-serif" font-size="12" font-style="italic" lengthAdjust="spacingAndGlyphs" textLength="70" x="191.5" y="167.1387">«interface»</text><text fill="#000000" font-family="sans-serif" font-size="12" font-style="italic" lengthAdjust="spacingAndGlyphs" textLength="41" x="206" y="181.1074">Turkey</text><line style="stroke: #A80036; stroke-width: 1.5;" x1="165.5" x2="261.5" y1="188.9375" y2="188.9375"/><line style="stroke: #A80036; stroke-width: 1.5;" x1="165.5" x2="261.5" y1="196.9375" y2="196.9375"/><ellipse cx="175.5" cy="207.9375" fill="#84BE84" rx="3" ry="3" style="stroke: #038048; stroke-width: 1.0;"/><text fill="#000000" font-family="sans-serif" font-size="11" lengthAdjust="spacingAndGlyphs" textLength="46" x="184.5" y="211.1479">gobble()</text><ellipse cx="175.5" cy="220.7422" fill="#84BE84" rx="3" ry="3" style="stroke: #038048; stroke-width: 1.0;"/><text fill="#000000" font-family="sans-serif" font-size="11" lengthAdjust="spacingAndGlyphs" textLength="21" x="184.5" y="223.9526">fly()</text><!--MD5=[38e07a88cd9440255bbd8837f7d6cd2e]
class WildTurkey--><rect fill="#FEFECE" filter="url(#fnrfzijb9evjk)" height="73.6094" id="WildTurkey" style="stroke: #A80036; stroke-width: 1.5;" width="98" x="164.5" y="294"/><ellipse cx="179.5" cy="310" fill="#ADD1B2" rx="11" ry="11" style="stroke: #A80036; stroke-width: 1.0;"/><path d="M182.4688,315.6406 Q181.8906,315.9375 181.25,316.0781 Q180.6094,316.2344 179.9063,316.2344 Q177.4063,316.2344 176.0781,314.5938 Q174.7656,312.9375 174.7656,309.8125 Q174.7656,306.6875 176.0781,305.0313 Q177.4063,303.375 179.9063,303.375 Q180.6094,303.375 181.25,303.5313 Q181.9063,303.6875 182.4688,303.9844 L182.4688,306.7031 Q181.8438,306.125 181.25,305.8594 Q180.6563,305.5781 180.0313,305.5781 Q178.6875,305.5781 178,306.6563 Q177.3125,307.7188 177.3125,309.8125 Q177.3125,311.9063 178,312.9844 Q178.6875,314.0469 180.0313,314.0469 Q180.6563,314.0469 181.25,313.7813 Q181.8438,313.5 182.4688,312.9219 L182.4688,315.6406 Z "/><text fill="#000000" font-family="sans-serif" font-size="12" lengthAdjust="spacingAndGlyphs" textLength="66" x="193.5" y="314.1543">WildTurkey</text><line style="stroke: #A80036; stroke-width: 1.5;" x1="165.5" x2="261.5" y1="326" y2="326"/><line style="stroke: #A80036; stroke-width: 1.5;" x1="165.5" x2="261.5" y1="334" y2="334"/><ellipse cx="175.5" cy="345" fill="#84BE84" rx="3" ry="3" style="stroke: #038048; stroke-width: 1.0;"/><text fill="#000000" font-family="sans-serif" font-size="11" lengthAdjust="spacingAndGlyphs" textLength="46" x="184.5" y="348.2104">gobble()</text><ellipse cx="175.5" cy="357.8047" fill="#84BE84" rx="3" ry="3" style="stroke: #038048; stroke-width: 1.0;"/><text fill="#000000" font-family="sans-serif" font-size="11" lengthAdjust="spacingAndGlyphs" textLength="21" x="184.5" y="361.0151">fly()</text><!--MD5=[f6d6628275d2be472261877654ca6f40]
class TurkeyAdapter--><rect fill="#FEFECE" filter="url(#fnrfzijb9evjk)" height="86.4141" id="TurkeyAdapter" style="stroke: #A80036; stroke-width: 1.5;" width="123" x="6" y="148"/><ellipse cx="21" cy="164" fill="#ADD1B2" rx="11" ry="11" style="stroke: #A80036; stroke-width: 1.0;"/><path d="M23.9688,169.6406 Q23.3906,169.9375 22.75,170.0781 Q22.1094,170.2344 21.4063,170.2344 Q18.9063,170.2344 17.5781,168.5938 Q16.2656,166.9375 16.2656,163.8125 Q16.2656,160.6875 17.5781,159.0313 Q18.9063,157.375 21.4063,157.375 Q22.1094,157.375 22.75,157.5313 Q23.4063,157.6875 23.9688,157.9844 L23.9688,160.7031 Q23.3438,160.125 22.75,159.8594 Q22.1563,159.5781 21.5313,159.5781 Q20.1875,159.5781 19.5,160.6563 Q18.8125,161.7188 18.8125,163.8125 Q18.8125,165.9063 19.5,166.9844 Q20.1875,168.0469 21.5313,168.0469 Q22.1563,168.0469 22.75,167.7813 Q23.3438,167.5 23.9688,166.9219 L23.9688,169.6406 Z "/><text fill="#000000" font-family="sans-serif" font-size="12" lengthAdjust="spacingAndGlyphs" textLength="91" x="35" y="168.1543">TurkeyAdapter</text><line style="stroke: #A80036; stroke-width: 1.5;" x1="7" x2="128" y1="180" y2="180"/><rect fill="none" height="6" style="stroke: #C82930; stroke-width: 1.0;" width="6" x="14" y="188"/><text fill="#000000" font-family="sans-serif" font-size="11" lengthAdjust="spacingAndGlyphs" textLength="91" x="26" y="194.2104">turkey_ : Turkey</text><line style="stroke: #A80036; stroke-width: 1.5;" x1="7" x2="128" y1="200.8047" y2="200.8047"/><ellipse cx="17" cy="211.8047" fill="#84BE84" rx="3" ry="3" style="stroke: #038048; stroke-width: 1.0;"/><text fill="#000000" font-family="sans-serif" font-size="11" lengthAdjust="spacingAndGlyphs" textLength="41" x="26" y="215.0151">quack()</text><ellipse cx="17" cy="224.6094" fill="#84BE84" rx="3" ry="3" style="stroke: #038048; stroke-width: 1.0;"/><text fill="#000000" font-family="sans-serif" font-size="11" lengthAdjust="spacingAndGlyphs" textLength="21" x="26" y="227.8198">fly()</text><!--MD5=[ed6624c6556d5e7b1bd23032162d20b7]
class Client--><rect fill="#FEFECE" filter="url(#fnrfzijb9evjk)" height="48" id="Client" style="stroke: #A80036; stroke-width: 1.5;" width="67" x="58" y="24"/><ellipse cx="73" cy="40" fill="#ADD1B2" rx="11" ry="11" style="stroke: #A80036; stroke-width: 1.0;"/><path d="M75.9688,45.6406 Q75.3906,45.9375 74.75,46.0781 Q74.1094,46.2344 73.4063,46.2344 Q70.9063,46.2344 69.5781,44.5938 Q68.2656,42.9375 68.2656,39.8125 Q68.2656,36.6875 69.5781,35.0313 Q70.9063,33.375 73.4063,33.375 Q74.1094,33.375 74.75,33.5313 Q75.4063,33.6875 75.9688,33.9844 L75.9688,36.7031 Q75.3438,36.125 74.75,35.8594 Q74.1563,35.5781 73.5313,35.5781 Q72.1875,35.5781 71.5,36.6563 Q70.8125,37.7188 70.8125,39.8125 Q70.8125,41.9063 71.5,42.9844 Q72.1875,44.0469 73.5313,44.0469 Q74.1563,44.0469 74.75,43.7813 Q75.3438,43.5 75.9688,42.9219 L75.9688,45.6406 Z "/><text fill="#000000" font-family="sans-serif" font-size="12" lengthAdjust="spacingAndGlyphs" textLength="35" x="87" y="44.1543">Client</text><line style="stroke: #A80036; stroke-width: 1.5;" x1="59" x2="124" y1="56" y2="56"/><line style="stroke: #A80036; stroke-width: 1.5;" x1="59" x2="124" y1="64" y2="64"/><!--MD5=[4119507705d5a71ddd00fbf84b018ba6]
reverse link Duck to TurkeyAdapter--><path d="M155.34,102.78 C140.26,117.75 124.11,133.79 109.82,147.98 " fill="none" id="Duck&lt;-TurkeyAdapter" style="stroke: #A80036; stroke-width: 1.0; stroke-dasharray: 7.0,7.0;"/><polygon fill="none" points="150.82,97.4,169.95,88.28,160.69,107.34,150.82,97.4" style="stroke: #A80036; stroke-width: 1.0;"/><!--MD5=[e84f297adb4dad7bb5a07710cf0c73ba]
link TurkeyAdapter to Turkey--><path d="M129.09,191 C139.11,191 149.12,191 159.14,191 " fill="none" id="TurkeyAdapter-&gt;Turkey" style="stroke: #A80036; stroke-width: 1.0;"/><polygon fill="#A80036" points="164.37,191,155.37,187,159.37,191,155.37,195,164.37,191" style="stroke: #A80036; stroke-width: 1.0;"/><!--MD5=[9e6b36c82301a4b445229ba9614207d2]
reverse link Duck to MallardDuck--><path d="M263.43,102.55 C280.69,119.68 299.37,138.24 315.08,153.83 " fill="none" id="Duck&lt;-MallardDuck" style="stroke: #A80036; stroke-width: 1.0;"/><polygon fill="none" points="258.31,107.34,249.05,88.28,268.18,97.4,258.31,107.34" style="stroke: #A80036; stroke-width: 1.0;"/><!--MD5=[4e81e615b511324368c655841bd4203f]
reverse link Turkey to WildTurkey--><path d="M213.5,251.46 C213.5,265.78 213.5,280.66 213.5,293.57 " fill="none" id="Turkey&lt;-WildTurkey" style="stroke: #A80036; stroke-width: 1.0;"/><polygon fill="none" points="206.5,251.18,213.5,231.18,220.5,251.18,206.5,251.18" style="stroke: #A80036; stroke-width: 1.0;"/><!--MD5=[48cb2b446605f93e31ec217b4b0befa5]
link Client to Duck--><path d="M125.15,48 C135.16,48 145.16,48 155.17,48 " fill="none" id="Client-&gt;Duck" style="stroke: #A80036; stroke-width: 1.0;"/><polygon fill="#A80036" points="160.4,48,151.4,44,155.4,48,151.4,52,160.4,48" style="stroke: #A80036; stroke-width: 1.0;"/><!--MD5=[11a6d47f69871ce94f640a9722a43207]
@startuml adapter

abstract class Duck <<interface>>{
    +quack()
    +fly()
}

class MallardDuck{
    +quack()
    +fly()
}

abstract class Turkey <<interface>>{
    +gobble()
    +fly()
}

class WildTurkey{
    +gobble()
    +fly()
}

class TurkeyAdapter{
    -turkey_ : Turkey
    +quack()
    +fly() 
}

Duck <|.down. TurkeyAdapter
TurkeyAdapter -right-> Turkey

Duck <|- - MallardDuck
Turkey <|- - WildTurkey

class Client

Client -> Duck

@enduml

PlantUML version 1.2020.10(Sun May 17 11:35:57 CEST 2020)
(GPL source distribution)
Java Runtime: OpenJDK Runtime Environment
JVM: OpenJDK 64-Bit Server VM
Java Version: 14.0.1+7-Ubuntu-1ubuntu1
Operating System: Linux
Default Encoding: UTF-8
Language: en
Country: US
--></g></svg>