<?xml version="1.0" encoding="UTF-8" standalone="no"?><svg xmlns="http://www.w3.org/2000/svg" xmlns:xlink="http://www.w3.org/1999/xlink" contentScriptType="application/ecmascript" contentStyleType="text/css" height="232px" preserveAspectRatio="none" style="width:405px;height:232px;" version="1.1" viewBox="0 0 405 232" width="405px" zoomAndPan="magnify"><defs><filter height="300%" id="f14ctsixpwvgte" width="300%" x="-1" y="-1"><feGaussianBlur result="blurOut" stdDeviation="2.0"/><feColorMatrix in="blurOut" result="blurOut2" type="matrix" values="0 0 0 0 0 0 0 0 0 0 0 0 0 0 0 0 0 0 .4 0"/><feOffset dx="4.0" dy="4.0" in="blurOut2" result="blurOut3"/><feBlend in="SourceGraphic" in2="blurOut3" mode="normal"/></filter></defs><g><!--MD5=[914cdf822bf80e984e8ac3bf93b406a5]
class Aggregate--><rect fill="#FEFECE" filter="url(#f14ctsixpwvgte)" height="66.7422" id="Aggregate" style="stroke: #A80036; stroke-width: 1.5;" width="112" x="27.5" y="14.5"/><ellipse cx="48.8" cy="33.4688" fill="#A9DCDF" rx="11" ry="11" style="stroke: #A80036; stroke-width: 1.0;"/><path d="M48.9094,28.8125 L47.7531,33.8906 L50.0813,33.8906 L48.9094,28.8125 Z M47.425,26.5781 L50.4094,26.5781 L53.7688,38.9688 L51.3156,38.9688 L50.55,35.9063 L47.2688,35.9063 L46.5188,38.9688 L44.0813,38.9688 L47.425,26.5781 Z "/><text fill="#000000" font-family="sans-serif" font-size="12" font-style="italic" lengthAdjust="spacingAndGlyphs" textLength="70" x="62.2" y="30.6387">«interface»</text><text fill="#000000" font-family="sans-serif" font-size="12" font-style="italic" lengthAdjust="spacingAndGlyphs" textLength="66" x="64.2" y="44.6074">Aggregate</text><line style="stroke: #A80036; stroke-width: 1.5;" x1="28.5" x2="138.5" y1="52.4375" y2="52.4375"/><line style="stroke: #A80036; stroke-width: 1.5;" x1="28.5" x2="138.5" y1="60.4375" y2="60.4375"/><ellipse cx="38.5" cy="71.4375" fill="#84BE84" rx="3" ry="3" style="stroke: #038048; stroke-width: 1.0;"/><text fill="#000000" font-family="sans-serif" font-size="11" lengthAdjust="spacingAndGlyphs" textLength="86" x="47.5" y="74.6479">createIterator()</text><!--MD5=[ac192e3b58a2163e38488214a7837886]
class ConcreteAggregate--><rect fill="#FEFECE" filter="url(#f14ctsixpwvgte)" height="60.8047" id="ConcreteAggregate" style="stroke: #A80036; stroke-width: 1.5;" width="155" x="6" y="154.5"/><ellipse cx="21" cy="170.5" fill="#ADD1B2" rx="11" ry="11" style="stroke: #A80036; stroke-width: 1.0;"/><path d="M23.9688,176.1406 Q23.3906,176.4375 22.75,176.5781 Q22.1094,176.7344 21.4063,176.7344 Q18.9063,176.7344 17.5781,175.0938 Q16.2656,173.4375 16.2656,170.3125 Q16.2656,167.1875 17.5781,165.5313 Q18.9063,163.875 21.4063,163.875 Q22.1094,163.875 22.75,164.0313 Q23.4063,164.1875 23.9688,164.4844 L23.9688,167.2031 Q23.3438,166.625 22.75,166.3594 Q22.1563,166.0781 21.5313,166.0781 Q20.1875,166.0781 19.5,167.1563 Q18.8125,168.2188 18.8125,170.3125 Q18.8125,172.4063 19.5,173.4844 Q20.1875,174.5469 21.5313,174.5469 Q22.1563,174.5469 22.75,174.2813 Q23.3438,174 23.9688,173.4219 L23.9688,176.1406 Z "/><text fill="#000000" font-family="sans-serif" font-size="12" lengthAdjust="spacingAndGlyphs" textLength="123" x="35" y="174.6543">ConcreteAggregate</text><line style="stroke: #A80036; stroke-width: 1.5;" x1="7" x2="160" y1="186.5" y2="186.5"/><line style="stroke: #A80036; stroke-width: 1.5;" x1="7" x2="160" y1="194.5" y2="194.5"/><text fill="#000000" font-family="sans-serif" font-size="11" lengthAdjust="spacingAndGlyphs" textLength="86" x="12" y="208.7104">createIterator()</text><!--MD5=[023ecf6702e3ca2ce47ae747eafb20f1]
class Iterator--><rect fill="#FEFECE" filter="url(#f14ctsixpwvgte)" height="79.5469" id="Iterator" style="stroke: #A80036; stroke-width: 1.5;" width="98" x="277.5" y="8"/><ellipse cx="292.5" cy="26.9688" fill="#A9DCDF" rx="11" ry="11" style="stroke: #A80036; stroke-width: 1.0;"/><path d="M292.6094,22.3125 L291.4531,27.3906 L293.7813,27.3906 L292.6094,22.3125 Z M291.125,20.0781 L294.1094,20.0781 L297.4688,32.4688 L295.0156,32.4688 L294.25,29.4063 L290.9688,29.4063 L290.2188,32.4688 L287.7813,32.4688 L291.125,20.0781 Z "/><text fill="#000000" font-family="sans-serif" font-size="12" font-style="italic" lengthAdjust="spacingAndGlyphs" textLength="70" x="304.5" y="24.1387">«interface»</text><text fill="#000000" font-family="sans-serif" font-size="12" font-style="italic" lengthAdjust="spacingAndGlyphs" textLength="47" x="316" y="38.1074">Iterator</text><line style="stroke: #A80036; stroke-width: 1.5;" x1="278.5" x2="374.5" y1="45.9375" y2="45.9375"/><line style="stroke: #A80036; stroke-width: 1.5;" x1="278.5" x2="374.5" y1="53.9375" y2="53.9375"/><ellipse cx="288.5" cy="64.9375" fill="#84BE84" rx="3" ry="3" style="stroke: #038048; stroke-width: 1.0;"/><text fill="#000000" font-family="sans-serif" font-size="11" lengthAdjust="spacingAndGlyphs" textLength="54" x="297.5" y="68.1479">hasNext()</text><ellipse cx="288.5" cy="77.7422" fill="#84BE84" rx="3" ry="3" style="stroke: #038048; stroke-width: 1.0;"/><text fill="#000000" font-family="sans-serif" font-size="11" lengthAdjust="spacingAndGlyphs" textLength="32" x="297.5" y="80.9526">next()</text><!--MD5=[4a3c11898c703d44c2eccf691605a75f]
class ConcreteIterator--><rect fill="#FEFECE" filter="url(#f14ctsixpwvgte)" height="73.6094" id="ConcreteIterator" style="stroke: #A80036; stroke-width: 1.5;" width="136" x="258.5" y="148"/><ellipse cx="273.5" cy="164" fill="#ADD1B2" rx="11" ry="11" style="stroke: #A80036; stroke-width: 1.0;"/><path d="M276.4688,169.6406 Q275.8906,169.9375 275.25,170.0781 Q274.6094,170.2344 273.9063,170.2344 Q271.4063,170.2344 270.0781,168.5938 Q268.7656,166.9375 268.7656,163.8125 Q268.7656,160.6875 270.0781,159.0313 Q271.4063,157.375 273.9063,157.375 Q274.6094,157.375 275.25,157.5313 Q275.9063,157.6875 276.4688,157.9844 L276.4688,160.7031 Q275.8438,160.125 275.25,159.8594 Q274.6563,159.5781 274.0313,159.5781 Q272.6875,159.5781 272,160.6563 Q271.3125,161.7188 271.3125,163.8125 Q271.3125,165.9063 272,166.9844 Q272.6875,168.0469 274.0313,168.0469 Q274.6563,168.0469 275.25,167.7813 Q275.8438,167.5 276.4688,166.9219 L276.4688,169.6406 Z "/><text fill="#000000" font-family="sans-serif" font-size="12" lengthAdjust="spacingAndGlyphs" textLength="104" x="287.5" y="168.1543">ConcreteIterator</text><line style="stroke: #A80036; stroke-width: 1.5;" x1="259.5" x2="393.5" y1="180" y2="180"/><line style="stroke: #A80036; stroke-width: 1.5;" x1="259.5" x2="393.5" y1="188" y2="188"/><ellipse cx="269.5" cy="199" fill="#84BE84" rx="3" ry="3" style="stroke: #038048; stroke-width: 1.0;"/><text fill="#000000" font-family="sans-serif" font-size="11" lengthAdjust="spacingAndGlyphs" textLength="54" x="278.5" y="202.2104">hasNext()</text><ellipse cx="269.5" cy="211.8047" fill="#84BE84" rx="3" ry="3" style="stroke: #038048; stroke-width: 1.0;"/><text fill="#000000" font-family="sans-serif" font-size="11" lengthAdjust="spacingAndGlyphs" textLength="32" x="278.5" y="215.0151">next()</text><!--MD5=[ed6624c6556d5e7b1bd23032162d20b7]
class Client--><rect fill="#FEFECE" filter="url(#f14ctsixpwvgte)" height="48" id="Client" style="stroke: #A80036; stroke-width: 1.5;" width="67" x="175" y="24"/><ellipse cx="190" cy="40" fill="#ADD1B2" rx="11" ry="11" style="stroke: #A80036; stroke-width: 1.0;"/><path d="M192.9688,45.6406 Q192.3906,45.9375 191.75,46.0781 Q191.1094,46.2344 190.4063,46.2344 Q187.9063,46.2344 186.5781,44.5938 Q185.2656,42.9375 185.2656,39.8125 Q185.2656,36.6875 186.5781,35.0313 Q187.9063,33.375 190.4063,33.375 Q191.1094,33.375 191.75,33.5313 Q192.4063,33.6875 192.9688,33.9844 L192.9688,36.7031 Q192.3438,36.125 191.75,35.8594 Q191.1563,35.5781 190.5313,35.5781 Q189.1875,35.5781 188.5,36.6563 Q187.8125,37.7188 187.8125,39.8125 Q187.8125,41.9063 188.5,42.9844 Q189.1875,44.0469 190.5313,44.0469 Q191.1563,44.0469 191.75,43.7813 Q192.3438,43.5 192.9688,42.9219 L192.9688,45.6406 Z "/><text fill="#000000" font-family="sans-serif" font-size="12" lengthAdjust="spacingAndGlyphs" textLength="35" x="204" y="44.1543">Client</text><line style="stroke: #A80036; stroke-width: 1.5;" x1="176" x2="241" y1="56" y2="56"/><line style="stroke: #A80036; stroke-width: 1.5;" x1="176" x2="241" y1="64" y2="64"/><!--MD5=[ec16dd3faf36faf8d04f37a830811fa9]
reverse link Aggregate to ConcreteAggregate--><path d="M83.5,101.69 C83.5,119.59 83.5,138.94 83.5,154.38 " fill="none" id="Aggregate&lt;-ConcreteAggregate" style="stroke: #A80036; stroke-width: 1.0; stroke-dasharray: 7.0,7.0;"/><polygon fill="none" points="76.5,101.68,83.5,81.68,90.5,101.68,76.5,101.68" style="stroke: #A80036; stroke-width: 1.0;"/><!--MD5=[08005fad78b25d943eac0df10e57518e]
reverse link Iterator to ConcreteIterator--><path d="M326.5,108.46 C326.5,121.86 326.5,135.7 326.5,147.81 " fill="none" id="Iterator&lt;-ConcreteIterator" style="stroke: #A80036; stroke-width: 1.0; stroke-dasharray: 7.0,7.0;"/><polygon fill="none" points="319.5,108.05,326.5,88.05,333.5,108.05,319.5,108.05" style="stroke: #A80036; stroke-width: 1.0;"/><!--MD5=[f9e9bc89fcdaa8287cda7eef935519d4]
reverse link Aggregate to Client--><path d="M144.88,48 C154.88,48 164.88,48 174.88,48 " fill="none" id="Aggregate&lt;-Client" style="stroke: #A80036; stroke-width: 1.0;"/><polygon fill="#A80036" points="139.65,48,148.65,52,144.65,48,148.65,44,139.65,48" style="stroke: #A80036; stroke-width: 1.0;"/><!--MD5=[cdf31114c0a9b73670b48f28c83c0040]
link Client to Iterator--><path d="M242.15,48 C252.16,48 262.16,48 272.17,48 " fill="none" id="Client-&gt;Iterator" style="stroke: #A80036; stroke-width: 1.0;"/><polygon fill="#A80036" points="277.4,48,268.4,44,272.4,48,268.4,52,277.4,48" style="stroke: #A80036; stroke-width: 1.0;"/><!--MD5=[510d304b65a4a0bf48ae28b9055e70d9]
@startuml iterator-schema

abstract class Aggregate<<interface>>{
    +createIterator()
}

class ConcreteAggregate{
    createIterator()
}

Aggregate <|.down. ConcreteAggregate


abstract class Iterator<<interface>>{
    +hasNext()
    +next()
}

class ConcreteIterator{
    +hasNext()
    +next()
}

Iterator <|.down. ConcreteIterator

class Client{

}

Client -left-> Aggregate
Client -right-> Iterator
@enduml

PlantUML version 1.2020.10(Sun May 17 11:35:57 CEST 2020)
(GPL source distribution)
Java Runtime: OpenJDK Runtime Environment
JVM: OpenJDK 64-Bit Server VM
Java Version: 14.0.1+7-Ubuntu-1ubuntu1
Operating System: Linux
Default Encoding: UTF-8
Language: en
Country: US
--></g></svg>