<?xml version="1.0" encoding="UTF-8" standalone="no"?><svg xmlns="http://www.w3.org/2000/svg" xmlns:xlink="http://www.w3.org/1999/xlink" contentScriptType="application/ecmascript" contentStyleType="text/css" height="500px" preserveAspectRatio="none" style="width:1223px;height:500px;" version="1.1" viewBox="0 0 1223 500" width="1223px" zoomAndPan="magnify"><defs><filter height="300%" id="f1ox0paofnbsld" width="300%" x="-1" y="-1"><feGaussianBlur result="blurOut" stdDeviation="2.0"/><feColorMatrix in="blurOut" result="blurOut2" type="matrix" values="0 0 0 0 0 0 0 0 0 0 0 0 0 0 0 0 0 0 .4 0"/><feOffset dx="4.0" dy="4.0" in="blurOut2" result="blurOut3"/><feBlend in="SourceGraphic" in2="blurOut3" mode="normal"/></filter></defs><g><!--MD5=[27eb0c30e65d8b262e52e99e862b6c6e]
class MenuItem--><rect fill="#FEFECE" filter="url(#f1ox0paofnbsld)" height="150.4375" id="MenuItem" style="stroke: #A80036; stroke-width: 1.5;" width="116" x="236" y="339"/><ellipse cx="261.35" cy="355" fill="#ADD1B2" rx="11" ry="11" style="stroke: #A80036; stroke-width: 1.0;"/><path d="M264.3188,360.6406 Q263.7406,360.9375 263.1,361.0781 Q262.4594,361.2344 261.7563,361.2344 Q259.2563,361.2344 257.9281,359.5938 Q256.6156,357.9375 256.6156,354.8125 Q256.6156,351.6875 257.9281,350.0313 Q259.2563,348.375 261.7563,348.375 Q262.4594,348.375 263.1,348.5313 Q263.7563,348.6875 264.3188,348.9844 L264.3188,351.7031 Q263.6938,351.125 263.1,350.8594 Q262.5063,350.5781 261.8813,350.5781 Q260.5375,350.5781 259.85,351.6563 Q259.1625,352.7188 259.1625,354.8125 Q259.1625,356.9063 259.85,357.9844 Q260.5375,359.0469 261.8813,359.0469 Q262.5063,359.0469 263.1,358.7813 Q263.6938,358.5 264.3188,357.9219 L264.3188,360.6406 Z "/><text fill="#000000" font-family="sans-serif" font-size="12" lengthAdjust="spacingAndGlyphs" textLength="61" x="277.65" y="359.1543">MenuItem</text><line style="stroke: #A80036; stroke-width: 1.5;" x1="237" x2="351" y1="371" y2="371"/><rect fill="none" height="6" style="stroke: #C82930; stroke-width: 1.0;" width="6" x="244" y="379"/><text fill="#000000" font-family="sans-serif" font-size="11" lengthAdjust="spacingAndGlyphs" textLength="38" x="256" y="385.2104">name_</text><rect fill="none" height="6" style="stroke: #C82930; stroke-width: 1.0;" width="6" x="244" y="391.8047"/><text fill="#000000" font-family="sans-serif" font-size="11" lengthAdjust="spacingAndGlyphs" textLength="69" x="256" y="398.0151">description_</text><rect fill="none" height="6" style="stroke: #C82930; stroke-width: 1.0;" width="6" x="244" y="404.6094"/><text fill="#000000" font-family="sans-serif" font-size="11" lengthAdjust="spacingAndGlyphs" textLength="66" x="256" y="410.8198">vegetarian_</text><rect fill="none" height="6" style="stroke: #C82930; stroke-width: 1.0;" width="6" x="244" y="417.4141"/><text fill="#000000" font-family="sans-serif" font-size="11" lengthAdjust="spacingAndGlyphs" textLength="34" x="256" y="423.6245">price_</text><line style="stroke: #A80036; stroke-width: 1.5;" x1="237" x2="351" y1="430.2188" y2="430.2188"/><ellipse cx="247" cy="441.2188" fill="#84BE84" rx="3" ry="3" style="stroke: #038048; stroke-width: 1.0;"/><text fill="#000000" font-family="sans-serif" font-size="11" lengthAdjust="spacingAndGlyphs" textLength="59" x="256" y="444.4292">getName()</text><ellipse cx="247" cy="454.0234" fill="#84BE84" rx="3" ry="3" style="stroke: #038048; stroke-width: 1.0;"/><text fill="#000000" font-family="sans-serif" font-size="11" lengthAdjust="spacingAndGlyphs" textLength="90" x="256" y="457.2339">getDescription()</text><ellipse cx="247" cy="466.8281" fill="#84BE84" rx="3" ry="3" style="stroke: #038048; stroke-width: 1.0;"/><text fill="#000000" font-family="sans-serif" font-size="11" lengthAdjust="spacingAndGlyphs" textLength="54" x="256" y="470.0386">getPrice()</text><ellipse cx="247" cy="479.6328" fill="#84BE84" rx="3" ry="3" style="stroke: #038048; stroke-width: 1.0;"/><text fill="#000000" font-family="sans-serif" font-size="11" lengthAdjust="spacingAndGlyphs" textLength="79" x="256" y="482.8433">isVegetarian()</text><!--MD5=[f0268dd29ee89052933f031546cb1cab]
class Menu--><rect fill="#FEFECE" filter="url(#f1ox0paofnbsld)" height="66.7422" id="Menu" style="stroke: #A80036; stroke-width: 1.5;" width="112" x="342" y="30.5"/><ellipse cx="363.3" cy="49.4688" fill="#A9DCDF" rx="11" ry="11" style="stroke: #A80036; stroke-width: 1.0;"/><path d="M363.4094,44.8125 L362.2531,49.8906 L364.5813,49.8906 L363.4094,44.8125 Z M361.925,42.5781 L364.9094,42.5781 L368.2688,54.9688 L365.8156,54.9688 L365.05,51.9063 L361.7688,51.9063 L361.0188,54.9688 L358.5813,54.9688 L361.925,42.5781 Z "/><text fill="#000000" font-family="sans-serif" font-size="12" font-style="italic" lengthAdjust="spacingAndGlyphs" textLength="70" x="376.7" y="46.6387">«interface»</text><text fill="#000000" font-family="sans-serif" font-size="12" font-style="italic" lengthAdjust="spacingAndGlyphs" textLength="34" x="394.7" y="60.6074">Menu</text><line style="stroke: #A80036; stroke-width: 1.5;" x1="343" x2="453" y1="68.4375" y2="68.4375"/><line style="stroke: #A80036; stroke-width: 1.5;" x1="343" x2="453" y1="76.4375" y2="76.4375"/><ellipse cx="353" cy="87.4375" fill="#84BE84" rx="3" ry="3" style="stroke: #038048; stroke-width: 1.0;"/><text fill="#000000" font-family="sans-serif" font-size="11" lengthAdjust="spacingAndGlyphs" textLength="86" x="362" y="90.6479">createIterator()</text><!--MD5=[f9ff500b7bdc1d759709aea60c43c3ab]
class CafeMenu--><rect fill="#FEFECE" filter="url(#f1ox0paofnbsld)" height="73.6094" id="CafeMenu" style="stroke: #A80036; stroke-width: 1.5;" width="184" x="6" y="192.5"/><ellipse cx="62.75" cy="208.5" fill="#ADD1B2" rx="11" ry="11" style="stroke: #A80036; stroke-width: 1.0;"/><path d="M65.7188,214.1406 Q65.1406,214.4375 64.5,214.5781 Q63.8594,214.7344 63.1563,214.7344 Q60.6563,214.7344 59.3281,213.0938 Q58.0156,211.4375 58.0156,208.3125 Q58.0156,205.1875 59.3281,203.5313 Q60.6563,201.875 63.1563,201.875 Q63.8594,201.875 64.5,202.0313 Q65.1563,202.1875 65.7188,202.4844 L65.7188,205.2031 Q65.0938,204.625 64.5,204.3594 Q63.9063,204.0781 63.2813,204.0781 Q61.9375,204.0781 61.25,205.1563 Q60.5625,206.2188 60.5625,208.3125 Q60.5625,210.4063 61.25,211.4844 Q61.9375,212.5469 63.2813,212.5469 Q63.9063,212.5469 64.5,212.2813 Q65.0938,212 65.7188,211.4219 L65.7188,214.1406 Z "/><text fill="#000000" font-family="sans-serif" font-size="12" lengthAdjust="spacingAndGlyphs" textLength="62" x="83.25" y="212.6543">CafeMenu</text><line style="stroke: #A80036; stroke-width: 1.5;" x1="7" x2="189" y1="224.5" y2="224.5"/><rect fill="none" height="6" style="stroke: #C82930; stroke-width: 1.0;" width="6" x="14" y="232.5"/><text fill="#000000" font-family="sans-serif" font-size="11" lengthAdjust="spacingAndGlyphs" textLength="158" x="26" y="238.7104">menuItems_ : unorder_map</text><line style="stroke: #A80036; stroke-width: 1.5;" x1="7" x2="189" y1="245.3047" y2="245.3047"/><ellipse cx="17" cy="256.3047" fill="#84BE84" rx="3" ry="3" style="stroke: #038048; stroke-width: 1.0;"/><text fill="#000000" font-family="sans-serif" font-size="11" lengthAdjust="spacingAndGlyphs" textLength="86" x="26" y="259.5151">createIterator()</text><!--MD5=[0321b0ee8154714e00d0c54547efbb35]
class DinerMenu--><rect fill="#FEFECE" filter="url(#f1ox0paofnbsld)" height="73.6094" id="DinerMenu" style="stroke: #A80036; stroke-width: 1.5;" width="138" x="225" y="192.5"/><ellipse cx="257.55" cy="208.5" fill="#ADD1B2" rx="11" ry="11" style="stroke: #A80036; stroke-width: 1.0;"/><path d="M260.5188,214.1406 Q259.9406,214.4375 259.3,214.5781 Q258.6594,214.7344 257.9563,214.7344 Q255.4563,214.7344 254.1281,213.0938 Q252.8156,211.4375 252.8156,208.3125 Q252.8156,205.1875 254.1281,203.5313 Q255.4563,201.875 257.9563,201.875 Q258.6594,201.875 259.3,202.0313 Q259.9563,202.1875 260.5188,202.4844 L260.5188,205.2031 Q259.8938,204.625 259.3,204.3594 Q258.7063,204.0781 258.0813,204.0781 Q256.7375,204.0781 256.05,205.1563 Q255.3625,206.2188 255.3625,208.3125 Q255.3625,210.4063 256.05,211.4844 Q256.7375,212.5469 258.0813,212.5469 Q258.7063,212.5469 259.3,212.2813 Q259.8938,212 260.5188,211.4219 L260.5188,214.1406 Z "/><text fill="#000000" font-family="sans-serif" font-size="12" lengthAdjust="spacingAndGlyphs" textLength="67" x="275.45" y="212.6543">DinerMenu</text><line style="stroke: #A80036; stroke-width: 1.5;" x1="226" x2="362" y1="224.5" y2="224.5"/><rect fill="none" height="6" style="stroke: #C82930; stroke-width: 1.0;" width="6" x="233" y="232.5"/><text fill="#000000" font-family="sans-serif" font-size="11" lengthAdjust="spacingAndGlyphs" textLength="112" x="245" y="238.7104">menuItems_ : array</text><line style="stroke: #A80036; stroke-width: 1.5;" x1="226" x2="362" y1="245.3047" y2="245.3047"/><ellipse cx="236" cy="256.3047" fill="#84BE84" rx="3" ry="3" style="stroke: #038048; stroke-width: 1.0;"/><text fill="#000000" font-family="sans-serif" font-size="11" lengthAdjust="spacingAndGlyphs" textLength="86" x="245" y="259.5151">createIterator()</text><!--MD5=[2b5bf27e2bd79edb2813bef399e67858]
class PancakeHouseMenu--><rect fill="#FEFECE" filter="url(#f1ox0paofnbsld)" height="73.6094" id="PancakeHouseMenu" style="stroke: #A80036; stroke-width: 1.5;" width="160" x="398" y="192.5"/><ellipse cx="413" cy="208.5" fill="#ADD1B2" rx="11" ry="11" style="stroke: #A80036; stroke-width: 1.0;"/><path d="M415.9688,214.1406 Q415.3906,214.4375 414.75,214.5781 Q414.1094,214.7344 413.4063,214.7344 Q410.9063,214.7344 409.5781,213.0938 Q408.2656,211.4375 408.2656,208.3125 Q408.2656,205.1875 409.5781,203.5313 Q410.9063,201.875 413.4063,201.875 Q414.1094,201.875 414.75,202.0313 Q415.4063,202.1875 415.9688,202.4844 L415.9688,205.2031 Q415.3438,204.625 414.75,204.3594 Q414.1563,204.0781 413.5313,204.0781 Q412.1875,204.0781 411.5,205.1563 Q410.8125,206.2188 410.8125,208.3125 Q410.8125,210.4063 411.5,211.4844 Q412.1875,212.5469 413.5313,212.5469 Q414.1563,212.5469 414.75,212.2813 Q415.3438,212 415.9688,211.4219 L415.9688,214.1406 Z "/><text fill="#000000" font-family="sans-serif" font-size="12" lengthAdjust="spacingAndGlyphs" textLength="128" x="427" y="212.6543">PancakeHouseMenu</text><line style="stroke: #A80036; stroke-width: 1.5;" x1="399" x2="557" y1="224.5" y2="224.5"/><rect fill="none" height="6" style="stroke: #C82930; stroke-width: 1.0;" width="6" x="406" y="232.5"/><text fill="#000000" font-family="sans-serif" font-size="11" lengthAdjust="spacingAndGlyphs" textLength="117" x="418" y="238.7104">menuItems_ : vector</text><line style="stroke: #A80036; stroke-width: 1.5;" x1="399" x2="557" y1="245.3047" y2="245.3047"/><ellipse cx="409" cy="256.3047" fill="#84BE84" rx="3" ry="3" style="stroke: #038048; stroke-width: 1.0;"/><text fill="#000000" font-family="sans-serif" font-size="11" lengthAdjust="spacingAndGlyphs" textLength="86" x="418" y="259.5151">createIterator()</text><!--MD5=[023ecf6702e3ca2ce47ae747eafb20f1]
class Iterator--><rect fill="#FEFECE" filter="url(#f1ox0paofnbsld)" height="79.5469" id="Iterator" style="stroke: #A80036; stroke-width: 1.5;" width="98" x="739" y="24"/><ellipse cx="754" cy="42.9688" fill="#A9DCDF" rx="11" ry="11" style="stroke: #A80036; stroke-width: 1.0;"/><path d="M754.1094,38.3125 L752.9531,43.3906 L755.2813,43.3906 L754.1094,38.3125 Z M752.625,36.0781 L755.6094,36.0781 L758.9688,48.4688 L756.5156,48.4688 L755.75,45.4063 L752.4688,45.4063 L751.7188,48.4688 L749.2813,48.4688 L752.625,36.0781 Z "/><text fill="#000000" font-family="sans-serif" font-size="12" font-style="italic" lengthAdjust="spacingAndGlyphs" textLength="70" x="766" y="40.1387">«interface»</text><text fill="#000000" font-family="sans-serif" font-size="12" font-style="italic" lengthAdjust="spacingAndGlyphs" textLength="47" x="777.5" y="54.1074">Iterator</text><line style="stroke: #A80036; stroke-width: 1.5;" x1="740" x2="836" y1="61.9375" y2="61.9375"/><line style="stroke: #A80036; stroke-width: 1.5;" x1="740" x2="836" y1="69.9375" y2="69.9375"/><ellipse cx="750" cy="80.9375" fill="#84BE84" rx="3" ry="3" style="stroke: #038048; stroke-width: 1.0;"/><text fill="#000000" font-family="sans-serif" font-size="11" lengthAdjust="spacingAndGlyphs" textLength="54" x="759" y="84.1479">hasNext()</text><ellipse cx="750" cy="93.7422" fill="#84BE84" rx="3" ry="3" style="stroke: #038048; stroke-width: 1.0;"/><text fill="#000000" font-family="sans-serif" font-size="11" lengthAdjust="spacingAndGlyphs" textLength="32" x="759" y="96.9526">next()</text><!--MD5=[662dabfc5ecedc106756c609b12243a6]
class CafeMenuIterator--><rect fill="#FEFECE" filter="url(#f1ox0paofnbsld)" height="99.2188" id="CafeMenuIterator" style="stroke: #A80036; stroke-width: 1.5;" width="229" x="593.5" y="180"/><ellipse cx="649.25" cy="196" fill="#ADD1B2" rx="11" ry="11" style="stroke: #A80036; stroke-width: 1.0;"/><path d="M652.2188,201.6406 Q651.6406,201.9375 651,202.0781 Q650.3594,202.2344 649.6563,202.2344 Q647.1563,202.2344 645.8281,200.5938 Q644.5156,198.9375 644.5156,195.8125 Q644.5156,192.6875 645.8281,191.0313 Q647.1563,189.375 649.6563,189.375 Q650.3594,189.375 651,189.5313 Q651.6563,189.6875 652.2188,189.9844 L652.2188,192.7031 Q651.5938,192.125 651,191.8594 Q650.4063,191.5781 649.7813,191.5781 Q648.4375,191.5781 647.75,192.6563 Q647.0625,193.7188 647.0625,195.8125 Q647.0625,197.9063 647.75,198.9844 Q648.4375,200.0469 649.7813,200.0469 Q650.4063,200.0469 651,199.7813 Q651.5938,199.5 652.2188,198.9219 L652.2188,201.6406 Z "/><text fill="#000000" font-family="sans-serif" font-size="12" lengthAdjust="spacingAndGlyphs" textLength="109" x="669.75" y="200.1543">CafeMenuIterator</text><line style="stroke: #A80036; stroke-width: 1.5;" x1="594.5" x2="821.5" y1="212" y2="212"/><rect fill="none" height="6" style="stroke: #C82930; stroke-width: 1.0;" width="6" x="601.5" y="220"/><text fill="#000000" font-family="sans-serif" font-size="11" lengthAdjust="spacingAndGlyphs" textLength="140" x="613.5" y="226.2104">items_ : unordered_map</text><rect fill="none" height="6" style="stroke: #C82930; stroke-width: 1.0;" width="6" x="601.5" y="232.8047"/><text fill="#000000" font-family="sans-serif" font-size="11" lengthAdjust="spacingAndGlyphs" textLength="203" x="613.5" y="239.0151">position_ : unordered_map::iterator</text><line style="stroke: #A80036; stroke-width: 1.5;" x1="594.5" x2="821.5" y1="245.6094" y2="245.6094"/><ellipse cx="604.5" cy="256.6094" fill="#84BE84" rx="3" ry="3" style="stroke: #038048; stroke-width: 1.0;"/><text fill="#000000" font-family="sans-serif" font-size="11" lengthAdjust="spacingAndGlyphs" textLength="54" x="613.5" y="259.8198">hasNext()</text><ellipse cx="604.5" cy="269.4141" fill="#84BE84" rx="3" ry="3" style="stroke: #038048; stroke-width: 1.0;"/><text fill="#000000" font-family="sans-serif" font-size="11" lengthAdjust="spacingAndGlyphs" textLength="32" x="613.5" y="272.6245">next()</text><!--MD5=[77053efc788c0778d05a4d27be908146]
class DinerMenuIterator--><rect fill="#FEFECE" filter="url(#f1ox0paofnbsld)" height="99.2188" id="DinerMenuIterator" style="stroke: #A80036; stroke-width: 1.5;" width="146" x="858" y="180"/><ellipse cx="873" cy="196" fill="#ADD1B2" rx="11" ry="11" style="stroke: #A80036; stroke-width: 1.0;"/><path d="M875.9688,201.6406 Q875.3906,201.9375 874.75,202.0781 Q874.1094,202.2344 873.4063,202.2344 Q870.9063,202.2344 869.5781,200.5938 Q868.2656,198.9375 868.2656,195.8125 Q868.2656,192.6875 869.5781,191.0313 Q870.9063,189.375 873.4063,189.375 Q874.1094,189.375 874.75,189.5313 Q875.4063,189.6875 875.9688,189.9844 L875.9688,192.7031 Q875.3438,192.125 874.75,191.8594 Q874.1563,191.5781 873.5313,191.5781 Q872.1875,191.5781 871.5,192.6563 Q870.8125,193.7188 870.8125,195.8125 Q870.8125,197.9063 871.5,198.9844 Q872.1875,200.0469 873.5313,200.0469 Q874.1563,200.0469 874.75,199.7813 Q875.3438,199.5 875.9688,198.9219 L875.9688,201.6406 Z "/><text fill="#000000" font-family="sans-serif" font-size="12" lengthAdjust="spacingAndGlyphs" textLength="114" x="887" y="200.1543">DinerMenuIterator</text><line style="stroke: #A80036; stroke-width: 1.5;" x1="859" x2="1003" y1="212" y2="212"/><rect fill="none" height="6" style="stroke: #C82930; stroke-width: 1.0;" width="6" x="866" y="220"/><text fill="#000000" font-family="sans-serif" font-size="11" lengthAdjust="spacingAndGlyphs" textLength="80" x="878" y="226.2104">items_ : array</text><rect fill="none" height="6" style="stroke: #C82930; stroke-width: 1.0;" width="6" x="866" y="232.8047"/><text fill="#000000" font-family="sans-serif" font-size="11" lengthAdjust="spacingAndGlyphs" textLength="51" x="878" y="239.0151">position_</text><line style="stroke: #A80036; stroke-width: 1.5;" x1="859" x2="1003" y1="245.6094" y2="245.6094"/><ellipse cx="869" cy="256.6094" fill="#84BE84" rx="3" ry="3" style="stroke: #038048; stroke-width: 1.0;"/><text fill="#000000" font-family="sans-serif" font-size="11" lengthAdjust="spacingAndGlyphs" textLength="54" x="878" y="259.8198">hasNext()</text><ellipse cx="869" cy="269.4141" fill="#84BE84" rx="3" ry="3" style="stroke: #038048; stroke-width: 1.0;"/><text fill="#000000" font-family="sans-serif" font-size="11" lengthAdjust="spacingAndGlyphs" textLength="32" x="878" y="272.6245">next()</text><!--MD5=[806957fd077bf2c8396440de52e701a2]
class PancakeHouseIterator--><rect fill="#FEFECE" filter="url(#f1ox0paofnbsld)" height="99.2188" id="PancakeHouseIterator" style="stroke: #A80036; stroke-width: 1.5;" width="173" x="1039.5" y="180"/><ellipse cx="1054.5" cy="196" fill="#ADD1B2" rx="11" ry="11" style="stroke: #A80036; stroke-width: 1.0;"/><path d="M1057.4688,201.6406 Q1056.8906,201.9375 1056.25,202.0781 Q1055.6094,202.2344 1054.9063,202.2344 Q1052.4063,202.2344 1051.0781,200.5938 Q1049.7656,198.9375 1049.7656,195.8125 Q1049.7656,192.6875 1051.0781,191.0313 Q1052.4063,189.375 1054.9063,189.375 Q1055.6094,189.375 1056.25,189.5313 Q1056.9063,189.6875 1057.4688,189.9844 L1057.4688,192.7031 Q1056.8438,192.125 1056.25,191.8594 Q1055.6563,191.5781 1055.0313,191.5781 Q1053.6875,191.5781 1053,192.6563 Q1052.3125,193.7188 1052.3125,195.8125 Q1052.3125,197.9063 1053,198.9844 Q1053.6875,200.0469 1055.0313,200.0469 Q1055.6563,200.0469 1056.25,199.7813 Q1056.8438,199.5 1057.4688,198.9219 L1057.4688,201.6406 Z "/><text fill="#000000" font-family="sans-serif" font-size="12" lengthAdjust="spacingAndGlyphs" textLength="141" x="1068.5" y="200.1543">PancakeHouseIterator</text><line style="stroke: #A80036; stroke-width: 1.5;" x1="1040.5" x2="1211.5" y1="212" y2="212"/><rect fill="none" height="6" style="stroke: #C82930; stroke-width: 1.0;" width="6" x="1047.5" y="220"/><text fill="#000000" font-family="sans-serif" font-size="11" lengthAdjust="spacingAndGlyphs" textLength="85" x="1059.5" y="226.2104">items_ : vector</text><rect fill="none" height="6" style="stroke: #C82930; stroke-width: 1.0;" width="6" x="1047.5" y="232.8047"/><text fill="#000000" font-family="sans-serif" font-size="11" lengthAdjust="spacingAndGlyphs" textLength="51" x="1059.5" y="239.0151">position_</text><line style="stroke: #A80036; stroke-width: 1.5;" x1="1040.5" x2="1211.5" y1="245.6094" y2="245.6094"/><ellipse cx="1050.5" cy="256.6094" fill="#84BE84" rx="3" ry="3" style="stroke: #038048; stroke-width: 1.0;"/><text fill="#000000" font-family="sans-serif" font-size="11" lengthAdjust="spacingAndGlyphs" textLength="54" x="1059.5" y="259.8198">hasNext()</text><ellipse cx="1050.5" cy="269.4141" fill="#84BE84" rx="3" ry="3" style="stroke: #038048; stroke-width: 1.0;"/><text fill="#000000" font-family="sans-serif" font-size="11" lengthAdjust="spacingAndGlyphs" textLength="32" x="1059.5" y="272.6245">next()</text><!--MD5=[f4e843451c33ab6738cd05e6a39b4d42]
class Waitress--><rect fill="#FEFECE" filter="url(#f1ox0paofnbsld)" height="112.0234" id="Waitress" style="stroke: #A80036; stroke-width: 1.5;" width="145" x="535.5" y="8"/><ellipse cx="577.05" cy="24" fill="#ADD1B2" rx="11" ry="11" style="stroke: #A80036; stroke-width: 1.0;"/><path d="M580.0188,29.6406 Q579.4406,29.9375 578.8,30.0781 Q578.1594,30.2344 577.4563,30.2344 Q574.9563,30.2344 573.6281,28.5938 Q572.3156,26.9375 572.3156,23.8125 Q572.3156,20.6875 573.6281,19.0313 Q574.9563,17.375 577.4563,17.375 Q578.1594,17.375 578.8,17.5313 Q579.4563,17.6875 580.0188,17.9844 L580.0188,20.7031 Q579.3938,20.125 578.8,19.8594 Q578.2063,19.5781 577.5813,19.5781 Q576.2375,19.5781 575.55,20.6563 Q574.8625,21.7188 574.8625,23.8125 Q574.8625,25.9063 575.55,26.9844 Q576.2375,28.0469 577.5813,28.0469 Q578.2063,28.0469 578.8,27.7813 Q579.3938,27.5 580.0188,26.9219 L580.0188,29.6406 Z "/><text fill="#000000" font-family="sans-serif" font-size="12" lengthAdjust="spacingAndGlyphs" textLength="54" x="596.95" y="28.1543">Waitress</text><line style="stroke: #A80036; stroke-width: 1.5;" x1="536.5" x2="679.5" y1="40" y2="40"/><rect fill="none" height="6" style="stroke: #C82930; stroke-width: 1.0;" width="6" x="543.5" y="48"/><text fill="#000000" font-family="sans-serif" font-size="11" lengthAdjust="spacingAndGlyphs" textLength="119" x="555.5" y="54.2104">pancakeHouseMenu_</text><rect fill="none" height="6" style="stroke: #C82930; stroke-width: 1.0;" width="6" x="543.5" y="60.8047"/><text fill="#000000" font-family="sans-serif" font-size="11" lengthAdjust="spacingAndGlyphs" textLength="65" x="555.5" y="67.0151">dinerMenu_</text><rect fill="none" height="6" style="stroke: #C82930; stroke-width: 1.0;" width="6" x="543.5" y="73.6094"/><text fill="#000000" font-family="sans-serif" font-size="11" lengthAdjust="spacingAndGlyphs" textLength="60" x="555.5" y="79.8198">cafeMenu_</text><line style="stroke: #A80036; stroke-width: 1.5;" x1="536.5" x2="679.5" y1="86.4141" y2="86.4141"/><rect fill="#F24D5C" height="6" style="stroke: #C82930; stroke-width: 1.0;" width="6" x="543.5" y="94.4141"/><text fill="#000000" font-family="sans-serif" font-size="11" lengthAdjust="spacingAndGlyphs" textLength="106" x="555.5" y="100.6245">printMenu(Iterator)</text><ellipse cx="546.5" cy="110.2188" fill="#84BE84" rx="3" ry="3" style="stroke: #038048; stroke-width: 1.0;"/><text fill="#000000" font-family="sans-serif" font-size="11" lengthAdjust="spacingAndGlyphs" textLength="64" x="555.5" y="113.4292">printMenu()</text><!--MD5=[190e2372f93ce60e467f45b3406331c2]
reverse link Menu to CafeMenu--><path d="M324.28,105.18 C275.33,131.85 211.61,166.58 164.27,192.38 " fill="none" id="Menu&lt;-CafeMenu" style="stroke: #A80036; stroke-width: 1.0; stroke-dasharray: 7.0,7.0;"/><polygon fill="none" points="321.01,98.99,341.92,95.56,327.71,111.28,321.01,98.99" style="stroke: #A80036; stroke-width: 1.0;"/><!--MD5=[2e42d48cd23ee8a7cf8a6023784e9f64]
reverse link Menu to DinerMenu--><path d="M366.25,114.92 C350.33,139.94 331.41,169.68 316.93,192.45 " fill="none" id="Menu&lt;-DinerMenu" style="stroke: #A80036; stroke-width: 1.0; stroke-dasharray: 7.0,7.0;"/><polygon fill="none" points="360.56,110.81,377.2,97.69,372.38,118.33,360.56,110.81" style="stroke: #A80036; stroke-width: 1.0;"/><!--MD5=[310e11accb0824f07868dcbc4eecdb3d]
reverse link Menu to PancakeHouseMenu--><path d="M422.96,116.01 C435.09,140.8 449.38,170.01 460.36,192.45 " fill="none" id="Menu&lt;-PancakeHouseMenu" style="stroke: #A80036; stroke-width: 1.0; stroke-dasharray: 7.0,7.0;"/><polygon fill="none" points="416.5,118.74,414,97.69,429.07,112.58,416.5,118.74" style="stroke: #A80036; stroke-width: 1.0;"/><!--MD5=[290ed2faa44a1abdad2716ede39f3cdb]
reverse link Iterator to CafeMenuIterator--><path d="M760.04,122.14 C750.85,140.92 740.73,161.61 731.87,179.71 " fill="none" id="Iterator&lt;-CafeMenuIterator" style="stroke: #A80036; stroke-width: 1.0; stroke-dasharray: 7.0,7.0;"/><polygon fill="none" points="753.76,119.05,768.84,104.16,766.34,125.2,753.76,119.05" style="stroke: #A80036; stroke-width: 1.0;"/><!--MD5=[ab5bb8a73804a35b54dcd34254292dd9]
reverse link Iterator to DinerMenuIterator--><path d="M835.42,119.22 C852.51,138.75 871.67,160.66 888.33,179.71 " fill="none" id="Iterator&lt;-DinerMenuIterator" style="stroke: #A80036; stroke-width: 1.0; stroke-dasharray: 7.0,7.0;"/><polygon fill="none" points="830.15,123.83,822.25,104.16,840.69,114.61,830.15,123.83" style="stroke: #A80036; stroke-width: 1.0;"/><!--MD5=[f3f9c249cc50d95d79ba51e60f1aa1d7]
reverse link Iterator to PancakeHouseIterator--><path d="M855.25,97.53 C908.13,123.11 982.17,158.92 1039.46,186.64 " fill="none" id="Iterator&lt;-PancakeHouseIterator" style="stroke: #A80036; stroke-width: 1.0; stroke-dasharray: 7.0,7.0;"/><polygon fill="none" points="852.1,103.78,837.15,88.77,858.2,91.18,852.1,103.78" style="stroke: #A80036; stroke-width: 1.0;"/><!--MD5=[a6e1bd66cfa96a19601040fce52e6335]
link Waitress to Iterator--><path d="M680.77,64 C698.51,64 716.25,64 733.99,64 " fill="none" id="Waitress-&gt;Iterator" style="stroke: #A80036; stroke-width: 1.0;"/><polygon fill="#A80036" points="738.99,64,729.99,60,733.99,64,729.99,68,738.99,64" style="stroke: #A80036; stroke-width: 1.0;"/><!--MD5=[1dc2c00a160b0f795dc054bce23b98ed]
reverse link Menu to Waitress--><path d="M459.26,64 C484.61,64 509.95,64 535.3,64 " fill="none" id="Menu&lt;-Waitress" style="stroke: #A80036; stroke-width: 1.0;"/><polygon fill="#A80036" points="454.19,64,463.19,68,459.19,64,463.19,60,454.19,64" style="stroke: #A80036; stroke-width: 1.0;"/><!--MD5=[752eef479d9788e68feee9b633452d18]
reverse link CafeMenu to MenuItem--><path d="M146.34,275.51 C173.34,300.65 207.18,332.16 235.65,358.67 " fill="none" id="CafeMenu&lt;-MenuItem" style="stroke: #A80036; stroke-width: 1.0;"/><polygon fill="#FFFFFF" points="136.72,266.56,138.3861,273.576,145.5032,274.7365,143.8371,267.7205,136.72,266.56" style="stroke: #A80036; stroke-width: 1.0;"/><!--MD5=[024cadcc3512ad0f8bae79f30de7400c]
reverse link DinerMenu to MenuItem--><path d="M294,279.57 C294,297.81 294,318.92 294,338.9 " fill="none" id="DinerMenu&lt;-MenuItem" style="stroke: #A80036; stroke-width: 1.0;"/><polygon fill="#FFFFFF" points="294,266.56,290,272.56,294,278.56,298,272.56,294,266.56" style="stroke: #A80036; stroke-width: 1.0;"/><!--MD5=[76f8ac91a4f9952257ee053f5c8eb07c]
reverse link PancakeHouseMenu to MenuItem--><path d="M432.31,275.82 C408.03,299.9 377.92,329.76 352.01,355.47 " fill="none" id="PancakeHouseMenu&lt;-MenuItem" style="stroke: #A80036; stroke-width: 1.0;"/><polygon fill="#FFFFFF" points="441.65,266.56,434.5735,267.9467,433.1318,275.0123,440.2083,273.6255,441.65,266.56" style="stroke: #A80036; stroke-width: 1.0;"/><!--MD5=[aa61f252910bf4d6d655916beb074e86]
@startuml iterator

class MenuItem{
    -name_
    -description_
    -vegetarian_
    -price_
    +getName()
    +getDescription()
    +getPrice()
    +isVegetarian()
}

abstract class Menu <<interface>>{
    +createIterator()
}

class CafeMenu{
    -menuItems_ : unorder_map
    +createIterator()
}

class DinerMenu{
    -menuItems_ : array
    +createIterator()
}

class PancakeHouseMenu{
    -menuItems_ : vector
    +createIterator()
}

Menu <|.down. CafeMenu
Menu <|.down. DinerMenu
Menu <|.down. PancakeHouseMenu

abstract class Iterator<<interface>>{
    +hasNext()
    +next()
}

class CafeMenuIterator{
    -items_ : unordered_map
    -position_ : unordered_map::iterator
    +hasNext()
    +next()
}

class DinerMenuIterator{
    -items_ : array
    -position_
    +hasNext()
    +next()
}

class PancakeHouseIterator{
    -items_ : vector
    -position_
    +hasNext()
    +next()
}

Iterator <|.down. CafeMenuIterator
Iterator <|.down. DinerMenuIterator
Iterator <|.down. PancakeHouseIterator


class Waitress{
    -pancakeHouseMenu_
    -dinerMenu_
    -cafeMenu_
    -printMenu(Iterator)
    +printMenu()

}

Iterator <-right- Waitress
Waitress -left-> Menu

CafeMenu o- - MenuItem
DinerMenu o- - MenuItem
PancakeHouseMenu o- - MenuItem

@enduml

PlantUML version 1.2020.10(Sun May 17 11:35:57 CEST 2020)
(GPL source distribution)
Java Runtime: OpenJDK Runtime Environment
JVM: OpenJDK 64-Bit Server VM
Java Version: 14.0.1+7-Ubuntu-1ubuntu1
Operating System: Linux
Default Encoding: UTF-8
Language: en
Country: US
--></g></svg>